<svg width="44" height="44" fill="none" xmlns="http://www.w3.org/2000/svg"><path d="M35.447 9.141l.001.01v-.01zM21.97 5.708c4.492 1.354 8.985 2.704 13.48 4.05v15.054c0 .937-.194 1.864-.57 2.722v.004l-.002.003c-.767 1.77-2.032 3.257-3.637 4.723-2.097 1.914-4.473 3.504-7.04 4.919-.661.363-1.316.694-2.01 1.045l-.22.111a42.272 42.272 0 01-6.54-3.87c-2.099-1.513-3.92-3.108-5.305-5.057l-.001-.002c-1.06-1.488-1.639-2.974-1.639-4.6V9.759c4.496-1.348 8.99-2.698 13.484-4.05zM8.489 9.144l-.001.008a.11.11 0 010-.008zM7.907 9.933l-.008.003.008-.003zM36.04 9.937s-.003 0-.008-.003a.125.125 0 01.008.003z" fill="#fff"/><path fill-rule="evenodd" clip-rule="evenodd" d="M21.614 44h.687c.344-.176.688-.35 1.032-.524a81.707 81.707 0 002.5-1.3c3.165-1.742 6.16-3.736 8.833-6.176 2.03-1.852 3.82-3.898 4.93-6.459.586-1.338.888-2.784.887-4.245V6.812c0-.915-.306-1.327-1.181-1.59a8717.33 8717.33 0 01-16.69-5.01 2.16 2.16 0 00-1.3 0C15.75 1.887 10.186 3.557 4.619 5.223c-.871.263-1.181.675-1.181 1.59v18.484c0 2.588.938 4.853 2.413 6.922 1.87 2.63 4.278 4.71 6.875 6.58a52.659 52.659 0 008.839 5.14c.015.006.026.024.037.041a.3.3 0 00.014.021zm-.192-40.37c.356-.113.739-.113 1.096 0A7363.47 7363.47 0 0036.6 7.86c.738.221.997.57.997 1.342V24.81a8.93 8.93 0 01-.749 3.585c-.937 2.162-2.447 3.89-4.16 5.454-2.256 2.06-4.783 3.744-7.453 5.215-.695.382-1.402.74-2.11 1.098-.29.147-.58.294-.87.443h-.58a.234.234 0 01-.011-.018c-.01-.015-.018-.03-.031-.035a44.415 44.415 0 01-7.458-4.34c-2.192-1.58-4.224-3.336-5.801-5.557-1.245-1.747-2.037-3.66-2.037-5.845V9.2c0-.771.262-1.12.997-1.34 4.697-1.409 9.393-2.819 14.087-4.232z" fill="#fff"/></svg>