<svg width="44" height="44" fill="none" xmlns="http://www.w3.org/2000/svg"><g clip-path="url(#clip0_367:331)"><path fill-rule="evenodd" clip-rule="evenodd" d="M33.156 3.153l-4.253 4.253a.792.792 0 00-.22.514v4.4a11.45 11.45 0 012.566 2.42l3.814-3.814a.666.666 0 00.22-.513V9.386c-.587-.22-1.1-.66-1.32-1.32-.44-1.1.146-2.346 1.32-2.787 1.173-.44 2.346.22 2.786 1.32.44 1.1-.147 2.347-1.32 2.787v1.027c0 .586-.22 1.1-.66 1.54l-3.96 3.96c.44.807.807 1.613 1.1 2.42h3.667c.22 0 .367-.073.513-.22l1.76-1.76a2.257 2.257 0 01-.22-.954c0-1.246.954-2.2 2.2-2.2 1.247 0 2.2.954 2.2 2.2 0 1.247-.953 2.2-2.2 2.2-.367 0-.66-.073-.953-.22l-1.76 1.76c-.367.44-.954.66-1.54.66h-3.3c.147.66.22 1.247.22 1.907l4.473 4.474c.147.147.293.22.514.22h1.026c.22-.587.66-1.1 1.32-1.32 1.1-.44 2.347.147 2.787 1.32.44 1.1-.147 2.347-1.32 2.787-1.1.44-2.347-.147-2.787-1.32h-1.026c-.587 0-1.1-.22-1.54-.66l-3.594-3.594a10.91 10.91 0 01-1.907 4.987h2.934c.586 0 1.1.22 1.54.66l3.52 3.52c.44.367.66.953.66 1.54v1.027c.587.22 1.1.66 1.32 1.32.44 1.1-.147 2.346-1.32 2.786-1.1.44-2.347-.147-2.787-1.32-.44-1.1.147-2.346 1.32-2.786V34.32a.665.665 0 00-.22-.514l-3.52-3.52a.666.666 0 00-.513-.22h-4.107c-.586.587-1.246 1.174-1.907 1.614v3.667c0 .22.074.366.22.513l3.96 3.96c.294-.147.66-.22.954-.22 1.246 0 2.2.953 2.2 2.2 0 1.247-.953 2.2-2.2 2.2-1.247 0-2.2-.953-2.2-2.2 0-.293.073-.66.22-.953l-3.96-3.96c-.44-.367-.66-.954-.66-1.54V32.56c-1.394.66-2.86 1.1-4.4 1.173v6.014c.586.22 1.1.66 1.32 1.32.44 1.1-.147 2.346-1.32 2.786-1.1.44-2.347-.146-2.787-1.32-.44-1.1.147-2.346 1.32-2.786v-6.014c-1.54-.073-3.007-.513-4.4-1.173v2.787c0 .586-.22 1.1-.66 1.54l-3.96 3.96c.147.293.22.66.22.953 0 1.247-.954 2.2-2.2 2.2-1.247 0-2.2-.953-2.2-2.2 0-1.247.953-2.2 2.2-2.2.293 0 .66.073.953.22l3.96-3.96a.666.666 0 00.22-.513V31.68c-.733-.44-1.32-1.027-1.906-1.614H9.469a.666.666 0 00-.514.22l-3.52 3.52a.666.666 0 00-.22.514v1.027c.587.22 1.1.66 1.32 1.32.44 1.1-.146 2.346-1.32 2.786-1.1.44-2.346-.147-2.786-1.32-.44-1.1.147-2.346 1.32-2.786V34.32c0-.587.22-1.1.66-1.54l3.52-3.52c.366-.44.953-.66 1.54-.66h2.933c-1.026-1.54-1.687-3.227-1.906-4.987l-3.594 3.593c-.366.44-.953.66-1.54.66H4.335c-.22.587-.66 1.1-1.32 1.32-1.1.44-2.346-.146-2.786-1.32-.44-1.173.22-2.346 1.32-2.786 1.1-.44 2.346.147 2.786 1.32h1.027a.792.792 0 00.514-.22l4.473-4.474c.024-.214.04-.429.056-.641.033-.44.065-.87.164-1.265h-3.3c-.587 0-1.1-.22-1.54-.66l-1.76-1.76c-.293.146-.66.22-.954.22-1.246 0-2.2-.954-2.2-2.2 0-1.247.954-2.2 2.2-2.2 1.247 0 2.2.953 2.2 2.2 0 .293-.073.66-.22.953l1.76 1.76c.147.147.294.22.514.22h3.667c.293-.88.66-1.687 1.1-2.42l-3.96-3.96c-.44-.367-.66-.954-.66-1.54V9.386c-.587-.22-1.1-.66-1.32-1.32-.44-1.1.22-2.346 1.32-2.787 1.1-.44 2.346.147 2.786 1.32.44 1.1-.147 2.347-1.32 2.787v1.027c0 .22.073.367.22.513l3.813 3.814a11.455 11.455 0 012.567-2.42v-4.4a.665.665 0 00-.22-.514L11.01 3.153a.666.666 0 00-.514-.22h-6.16c-.22.587-.66 1.1-1.32 1.32C1.842 4.693.67 4.106.23 2.933-.211 1.76.449.586 1.549.146c1.1-.44 2.42.147 2.786 1.32h6.16c.587 0 1.1.22 1.54.66L16.29 6.38c.44.366.66.953.66 1.54v3.52c1.393-.66 2.86-1.1 4.4-1.174V4.253c-.587-.22-1.1-.66-1.32-1.32-.44-1.173.147-2.347 1.32-2.787 1.173-.44 2.347.22 2.787 1.32.44 1.1-.147 2.347-1.32 2.787v6.013c1.54.073 3.006.514 4.4 1.174V7.92c0-.587.22-1.1.66-1.54l4.253-4.254c.367-.44.953-.66 1.54-.66h6.16c.22-.587.66-1.1 1.32-1.32 1.173-.44 2.347.22 2.787 1.32.44 1.1-.22 2.347-1.32 2.787-1.1.44-2.347-.147-2.787-1.32h-6.16a.792.792 0 00-.513.22zm9.46-.954c0-.44-.294-.733-.734-.733s-.733.294-.733.733c0 .44.294.734.733.734.44 0 .734-.294.734-.734zm-41.067 0c0 .44.293.734.733.734s.733-.294.733-.734-.293-.733-.733-.733-.733.294-.733.733zm7.333 5.134c0-.44-.293-.734-.733-.734s-.734.294-.734.734.294.733.734.733.733-.293.733-.733zm-5.867 7.333c-.44 0-.733.294-.733.733 0 .44.294.734.733.734.44 0 .734-.293.734-.733s-.294-.734-.734-.734zM1.55 27.133c0 .44.293.733.733.733s.733-.293.733-.733-.293-.733-.733-.733-.733.293-.733.733zm2.2 10.267c0 .44.293.733.733.733s.733-.293.733-.733-.293-.734-.733-.734-.733.294-.733.734zm5.866 4.4c0 .44.294.733.734.733s.733-.293.733-.733-.293-.733-.733-.733-.734.293-.734.733zm24.2.733c.44 0 .734-.293.734-.733s-.293-.733-.733-.733-.734.293-.734.733.294.733.734.733zM38.95 37.4c0 .44.294.733.733.733.44 0 .734-.293.734-.733s-.293-.734-.734-.734c-.44 0-.733.294-.733.734zm3.667-10.267c0-.44-.294-.733-.734-.733s-.733.293-.733.733.294.733.733.733c.44 0 .734-.293.734-.733zM41.882 15.4c0-.44-.293-.734-.733-.734s-.733.294-.733.733c0 .44.293.734.733.734s.733-.293.733-.733zM36.75 7.332c0-.44-.293-.734-.733-.734s-.734.294-.734.734.294.733.734.733.733-.293.733-.733zM22.815 2.199c0-.44-.293-.733-.733-.733s-.733.294-.733.733c0 .44.293.734.733.734s.733-.294.733-.734zM21.35 41.8c0 .44.293.734.733.734s.733-.293.733-.733-.293-.733-.733-.733-.733.293-.733.733zm.733-9.533c5.647 0 10.267-4.62 10.267-10.266 0-5.647-4.62-10.267-10.267-10.267-5.646 0-10.267 4.62-10.267 10.267 0 5.646 4.62 10.266 10.267 10.266zm5.548-13.768a.602.602 0 00-.327-.554L22.132 15.4l-5.085 2.536h-.002a.6.6 0 00-.325.555v4.56c0 .649.205 1.362.54 2 .333.639.8 1.214 1.337 1.58l3.238 2.214a.605.605 0 00.69 0l3.23-2.214c.536-.366 1.003-.941 1.337-1.58.333-.638.538-1.351.538-2v-4.553zm-6.067-1.4l-3.61 1.775v4.179c0 .436.15.952.397 1.425.248.474.585.89.945 1.136l2.271 1.556-.003-10.072zm1.219 10.073l2.278-1.558c.359-.245.695-.662.942-1.136.247-.473.396-.99.396-1.425v-4.173l-3.638-1.792.022 10.084z" fill="#fff"/></g><defs><clipPath id="clip0_367:331"><path fill="#fff" d="M0 0h44v44H0z"/></clipPath></defs></svg>