<svg width="44" height="44" fill="none" xmlns="http://www.w3.org/2000/svg"><path fill-rule="evenodd" clip-rule="evenodd" d="M19.814 43.992h4.458a.958.958 0 00.376-.486c.325-.84.647-1.68.968-2.52a.881.881 0 01.676-.58c1.965-.492 3.842-1.198 5.561-2.292.42-.27.79-.287 1.239-.069.463.226.935.432 1.407.639.352.154.704.307 1.053.47.356.164.63.129.916-.165a156.13 156.13 0 012.515-2.515c.295-.287.325-.564.16-.916-.152-.33-.297-.664-.443-.997a30.167 30.167 0 00-.648-1.423c-.238-.48-.208-.87.076-1.317 1.07-1.694 1.785-3.536 2.243-5.484a.917.917 0 01.604-.712c.35-.129.7-.264 1.048-.4.423-.164.847-.328 1.275-.482.27-.096.536-.198.687-.47v-4.458c-.151-.27-.417-.37-.686-.47l-.001-.001c-.308-.115-.614-.233-.92-.35-.453-.175-.907-.35-1.364-.515a.945.945 0 01-.643-.731 18.253 18.253 0 00-2.306-5.599 1.032 1.032 0 01-.059-1.085c.269-.565.52-1.138.771-1.71.116-.265.232-.529.35-.792.225-.508.213-.578-.183-.979A232.57 232.57 0 0036.49 5.13c-.392-.386-.466-.399-.98-.17-.236.105-.473.209-.71.312-.572.251-1.145.502-1.713.774-.43.207-.792.209-1.202-.053-1.715-1.095-3.593-1.81-5.558-2.298a.951.951 0 01-.73-.64c-.146-.39-.297-.78-.449-1.17-.174-.449-.349-.898-.515-1.35-.121-.347-.314-.487-.687-.487-1.272.015-2.544.013-3.815 0-.35 0-.547.123-.672.458-.189.507-.384 1.012-.58 1.516-.14.361-.279.722-.416 1.084a.917.917 0 01-.713.605 18.01 18.01 0 00-5.523 2.268c-.427.27-.804.263-1.244.06A95.607 95.607 0 008.56 4.95c-.493-.214-.569-.213-.944.156A282.3 282.3 0 005.131 7.59c-.39.395-.404.466-.175.98.087.198.172.398.257.599.239.562.478 1.126.761 1.665.31.588.235 1.047-.109 1.585-1.011 1.593-1.678 3.337-2.115 5.17-.114.482-.33.786-.802.947-.485.167-.964.355-1.442.543-.332.13-.665.262-1 .385-.316.115-.46.286-.46.63.012 1.298.012 2.597 0 3.895-.002.338.135.52.448.634.496.186.99.377 1.483.568.372.144.744.288 1.117.43a.917.917 0 01.61.707 18.152 18.152 0 002.306 5.6c.242.383.242.725.051 1.124-.218.458-.423.924-.627 1.39-.163.371-.326.743-.497 1.11-.162.345-.147.625.153.918.77.747 1.526 1.51 2.281 2.273l.267.27c.272.273.53.312.881.152.285-.131.571-.257.858-.383.498-.219.996-.438 1.48-.68.57-.284 1.026-.218 1.552.114 1.62 1.024 3.394 1.694 5.254 2.14.414.098.685.295.833.701.232.64.479 1.273.726 1.907l.208.534a.956.956 0 00.384.494zm.103-15.126l2.129-.001c.745 0 1.49.002 2.236.004 1.397.004 2.793.008 4.187-.002 2.502-.02 3.869-2.433 2.636-4.604-.22-.387-.443-.772-.667-1.157l-.274-.474c-.545-.943-1.089-1.887-1.632-2.83-1.288-2.235-2.575-4.468-3.875-6.695-1.216-2.085-4.022-2.082-5.233 0-1.278 2.199-2.548 4.401-3.818 6.604-.882 1.53-1.765 3.062-2.65 4.591a2.979 2.979 0 00-.378 2.183c.317 1.463 1.492 2.373 3.082 2.38 1.42.004 2.838.003 4.257.001z" fill="#fff"/><path d="M22.823 22.02c-.008.546-.325.883-.786.878-.462-.004-.752-.343-.773-.893-.063-1.72-.12-3.427-.188-5.14-.013-.363.026-.705.378-.886a1.297 1.297 0 011.158-.012c.344.156.41.475.404.83-.022 1.823-.174 3.404-.193 5.224zM22.032 26.683a.993.993 0 11.043-1.986.993.993 0 01-.043 1.986z" fill="#fff"/></svg>