<svg width="44" height="44" fill="none" xmlns="http://www.w3.org/2000/svg"><path d="M3.902 14.59l.148.02c-.361 2.6.122 5.297 1.36 7.596a.71.71 0 001.249-.673C4.379 17.3 5.162 11.969 8.566 8.565c0 0 0 0 0 0M3.902 14.59l4.664-6.025M3.902 14.59l.148.02a12.287 12.287 0 013.512-7.048 12.315 12.315 0 018.766-3.63c3.312 0 6.424 1.289 8.766 3.63 4.833 4.834 4.833 12.698 0 17.532a12.29 12.29 0 01-7.049 3.512 12.483 12.483 0 01-7.595-1.36.71.71 0 01-.288-.96h0a.71.71 0 01.961-.289c4.233 2.28 9.564 1.497 12.968-1.907 4.28-4.28 4.28-11.244 0-15.525a10.907 10.907 0 00-7.763-3.215c-2.932 0-5.69 1.142-7.762 3.215M3.902 14.59l4.664-6.025M7.555 24.097h0l.008-.008s0 0 0 0a.71.71 0 011.003 1.004h0l-.008.007a.707.707 0 01-1.003 0 .71.71 0 010-1.003zM26.764 5.892h0l.052.052h0a.707.707 0 001.004.007h0a.71.71 0 00.007-1.003s0 0 0 0l-.06-.06a.71.71 0 00-1.003 0v1.004zm0 0a.71.71 0 010-1.003v1.003zm.558.414a.857.857 0 00.603-.248l-1.267-.06.052.052c.168.17.39.256.612.256z" fill="#fff" stroke="#FAFAFA" stroke-width=".3"/><path d="M33.38 27.657l-.044.095.074.074 9.283 9.284a3.953 3.953 0 010 5.584l.106.106-.106-.106a3.921 3.921 0 01-2.792 1.156 3.922 3.922 0 01-2.792-1.156L24.716 30.3l-.082-.082-.1.06a16.077 16.077 0 01-8.206 2.229 16.058 16.058 0 01-9.291-2.93l-.236-.166V30.227a3.244 3.244 0 01-3.24 3.24 3.244 3.244 0 01-3.24-3.24v-1.672a.71.71 0 011.419 0v1.672c0 1.005.817 1.821 1.821 1.821a1.823 1.823 0 001.821-1.82V28.24l-.048-.044A16.072 16.072 0 01.15 16.329c0-2.665.64-5.23 1.846-7.52l.079-.15-.157-.06A2.776 2.776 0 01.152 6.017V2.923A2.775 2.775 0 012.924.151a2.775 2.775 0 012.771 2.772v1.209l.247-.206A16.206 16.206 0 0114.744.228l-.014-.15.014.15a16.226 16.226 0 0110.428 2.55h0a.71.71 0 01-.777 1.188C18.587.167 10.806.977 5.892 5.892A14.664 14.664 0 001.569 16.33c0 3.941 1.535 7.648 4.323 10.436l.106-.106-.106.106a14.664 14.664 0 0010.436 4.323c3.942 0 7.649-1.536 10.436-4.323 4.932-4.932 5.731-12.732 1.899-18.546a.71.71 0 01.202-.983h0a.71.71 0 01.982.202h0a16.071 16.071 0 011.964 4.203l.072.238.177-.174a3.228 3.228 0 012.267-.929 3.244 3.244 0 013.24 3.24v1.672a3.244 3.244 0 01-3.24 3.24c-.64 0-1.238-.188-1.741-.51l-.198-.127-.032.233a16.192 16.192 0 01-2.085 6.005l-.059.1.082.082 1.863 1.862.126.126.102-.145a3.233 3.233 0 012.647-1.37 3.244 3.244 0 013.24 3.24v.795a.71.71 0 01-1.42 0v-.796a1.823 1.823 0 00-1.82-1.82c-.713 0-1.354.412-1.652 1.054zM4.269 5.545l.054-.06-.021-.08a.706.706 0 01-.025-.183V2.923c0-.746-.607-1.353-1.353-1.353-.747 0-1.353.607-1.353 1.353v3.094c0 .691.52 1.261 1.19 1.342l.09.011.052-.076c.412-.609.868-1.193 1.366-1.749zm21.71 23.77l-.138.104.123.122 2.513 2.514.106.106.106-.106 3.365-3.366.106-.106-.106-.106-2.516-2.516-.123-.123-.103.14c-.469.63-.984 1.23-1.545 1.79a16.43 16.43 0 01-1.787 1.547zm3.713 3.743l-.106.106.106.106 8.42 8.42a2.532 2.532 0 003.578 0 2.532 2.532 0 000-3.577l-8.42-8.42-.106-.107-.107.107-3.365 3.365zm6.456-19.042a1.823 1.823 0 00-1.821-1.821 1.823 1.823 0 00-1.821 1.82v1.673c0 1.004.816 1.821 1.82 1.821a1.823 1.823 0 001.822-1.821v-1.672zM3.188 42.28v.15H4.02a.71.71 0 010 1.42H.936a.71.71 0 010-1.42H1.77v-4.31l-.256.256-.15.15a.71.71 0 01-1.004-1.003l1.618-1.617h0a.71.71 0 011.21.501v5.874z" fill="#fff" stroke="#FAFAFA" stroke-width=".3"/><path d="M10.821 42.28v.15H11.654a.71.71 0 010 1.42H8.57a.71.71 0 010-1.42H9.403v-4.31l-.256.256-.151.15s0 0 0 0a.71.71 0 01-1.003-1.003l1.617-1.617a.71.71 0 011.211.501v5.874zM26.09 42.28v.15H26.923a.71.71 0 010 1.42h-3.084a.71.71 0 010-1.42H24.67v-4.31l-.256.256-.15.15s0 0 0 0a.71.71 0 01-1.004-1.003l1.618-1.617a.71.71 0 011.21.501v5.874zM20.947 38.938v1.672a3.244 3.244 0 01-3.24 3.24 3.244 3.244 0 01-3.24-3.24v-1.673a3.244 3.244 0 013.24-3.24 3.243 3.243 0 013.24 3.24zm-3.24 3.493a1.823 1.823 0 001.822-1.821v-1.672a1.823 1.823 0 00-1.821-1.822 1.823 1.823 0 00-1.821 1.822v1.672c0 1.004.816 1.82 1.82 1.82zM42.308 32.048v-6.024a.71.71 0 00-1.211-.502s0 0 0 0l-1.618 1.618h0a.71.71 0 000 1.003s0 0 0 0m2.829 3.905l-1.72-3.799a.86.86 0 01-1.215 0l.106-.105m2.829 3.904H43.14a.71.71 0 010 1.418h-3.084a.71.71 0 010-1.418H40.89v-4.311l-.256.256-.15.15m1.825 3.905l-1.826-3.905m-1.003 0a.71.71 0 001.003 0m-1.003 0h1.003M33.724 6.734v.15H34.556a.71.71 0 110 1.418h-3.084a.71.71 0 010-1.418H32.305V2.572l-.256.256-.151.151s0 0 0 0a.71.71 0 11-1.003-1.003L32.513.358s0 0 0 0a.71.71 0 01.773-.154h0a.71.71 0 01.438.656v5.874zM37.37 3.39A3.244 3.244 0 0140.61.15a3.244 3.244 0 013.24 3.24v1.673a3.244 3.244 0 01-3.24 3.24 3.244 3.244 0 01-3.24-3.24V3.39zm3.24 3.494a1.823 1.823 0 001.821-1.821V3.39a1.823 1.823 0 00-1.821-1.82 1.823 1.823 0 00-1.821 1.82v1.673c0 1.004.817 1.82 1.82 1.82zM42.308 17.508V11.485a.71.71 0 00-.438-.656l.438 6.68zm0 0h.15m-.15 0h.15m0 0h.682a.71.71 0 010 1.419h-3.084a.71.71 0 010-1.419H40.89v-4.311m1.569 4.311l-1.569-4.31m0 0l-.256.255m.256-.256l-.256.256m0 0l-.15.15v.001m.15-.15l-.15.15m.614-2.621s0 0 0 0L39.479 12.6a.71.71 0 000 1.003m1.618-2.621l-1.618 2.621m1.618-2.621a.71.71 0 01.773-.154l-.773.154zm-1.618 2.621a.71.71 0 001.003 0m-1.003 0h1.003" fill="#fff" stroke="#FAFAFA" stroke-width=".3"/><mask id="a" maskUnits="userSpaceOnUse" x="8.68" y="8.24" width="15" height="16" fill="#000"><path fill="#fff" d="M8.68 8.24h15v16h-15z"/><path d="M21.287 16.39a1.58 1.58 0 001.124-.47c.298-.3.467-.71.47-1.137v-.153a.358.358 0 00-.104-.251.348.348 0 00-.495 0 .358.358 0 00-.103.251v.153a.909.909 0 01-.264.635.884.884 0 01-.628.26h-.685v-.686a1.2 1.2 0 00-.219-.695 1.173 1.173 0 00-.578-.434 3.58 3.58 0 00-.46-1.49l1.228-1.406a.356.356 0 00.052-.39.354.354 0 00-.336-.2.346.346 0 00-.24.12l-1.123 1.286a3.578 3.578 0 00-.4-.388 2.257 2.257 0 00-.672-1.524 2.195 2.195 0 00-1.523-.631 2.194 2.194 0 00-1.532.612 2.256 2.256 0 00-.69 1.515c-.123.099-.239.206-.347.32l-1.145-1.312a.352.352 0 00-.241-.12.347.347 0 00-.336.2.36.36 0 00.052.39l1.23 1.41a3.59 3.59 0 00-.538 1.601 1.183 1.183 0 00-.595.432 1.21 1.21 0 00-.23.704v.687h-.685a.884.884 0 01-.629-.261.909.909 0 01-.264-.635v-.153a.358.358 0 00-.103-.251.348.348 0 00-.495 0 .358.358 0 00-.103.251v.153c.002.427.171.836.47 1.137.298.301.703.47 1.124.47h.684v1.243h-.355c-.876 0-1.572.734-1.572 1.622v.463c0 .094.037.185.102.251a.348.348 0 00.496 0 .358.358 0 00.103-.251v-.463a.908.908 0 01.249-.639.883.883 0 01.622-.272h.355v1.071c.002.457.083.909.24 1.337-.376.056-.72.249-.967.541a1.62 1.62 0 00-.383 1.052v.471c0 .095.037.185.103.252a.348.348 0 00.496 0 .358.358 0 00.102-.252v-.471c0-.496.396-.92.885-.92h.102c.675 1.125 1.887 1.895 3.267 1.895h.978a3.812 3.812 0 001.89-.51 3.879 3.879 0 001.401-1.386h.17a.861.861 0 01.624.252.883.883 0 01.262.627v.513c0 .095.037.185.103.252a.348.348 0 00.598-.252v-.513a1.63 1.63 0 00-.415-1.082 1.586 1.586 0 00-1.023-.52c.142-.414.213-.848.211-1.286v-1.012h.43c.489 0 .914.398.914.894v.421c0 .094.037.185.102.251a.348.348 0 00.599-.251v-.421c0-.888-.74-1.604-1.615-1.604h-.43V16.39h.684zM13.5 13.783c.176-1.362 1.364-2.5 2.8-2.5 1.435 0 2.623 1.138 2.799 2.5h-5.6zm2.816-3.832c.297 0 .588.09.835.256.248.166.441.403.557.68a3.476 3.476 0 00-2.775-.019c.118-.272.312-.504.557-.667.246-.163.533-.25.826-.25zm-3.658 9.464v-3.277c0-.032.014-.066.014-.1 0-.035-.014-.068-.014-.1v-.946a.492.492 0 01.123-.319.478.478 0 01.3-.158c.012.002.029-.006.042-.006.022 0 .047-.015.068-.015h2.738v8.115h-.127a3.139 3.139 0 01-2.22-.94 3.228 3.228 0 01-.924-2.254zm4.121 3.194h-.15v-8.115h2.779c.02 0 .042.015.064.015.01 0 .014.004.023.003a.473.473 0 01.292.163.485.485 0 01.113.317v2.93c0 .038-.02.078-.02.12 0 .042.02.082.02.12v1.253c0 1.752-1.394 3.194-3.12 3.194z"/></mask><path d="M21.287 16.39a1.58 1.58 0 001.124-.47c.298-.3.467-.71.47-1.137v-.153a.358.358 0 00-.104-.251.348.348 0 00-.495 0 .358.358 0 00-.103.251v.153a.909.909 0 01-.264.635.884.884 0 01-.628.26h-.685v-.686a1.2 1.2 0 00-.219-.695 1.173 1.173 0 00-.578-.434 3.58 3.58 0 00-.46-1.49l1.228-1.406a.356.356 0 00.052-.39.354.354 0 00-.336-.2.346.346 0 00-.24.12l-1.123 1.286a3.578 3.578 0 00-.4-.388 2.257 2.257 0 00-.672-1.524 2.195 2.195 0 00-1.523-.631 2.194 2.194 0 00-1.532.612 2.256 2.256 0 00-.69 1.515c-.123.099-.239.206-.347.32l-1.145-1.312a.352.352 0 00-.241-.12.347.347 0 00-.336.2.36.36 0 00.052.39l1.23 1.41a3.59 3.59 0 00-.538 1.601 1.183 1.183 0 00-.595.432 1.21 1.21 0 00-.23.704v.687h-.685a.884.884 0 01-.629-.261.909.909 0 01-.264-.635v-.153a.358.358 0 00-.103-.251.348.348 0 00-.495 0 .358.358 0 00-.103.251v.153c.002.427.171.836.47 1.137.298.301.703.47 1.124.47h.684v1.243h-.355c-.876 0-1.572.734-1.572 1.622v.463c0 .094.037.185.102.251a.348.348 0 00.496 0 .358.358 0 00.103-.251v-.463a.908.908 0 01.249-.639.883.883 0 01.622-.272h.355v1.071c.002.457.083.909.24 1.337-.376.056-.72.249-.967.541a1.62 1.62 0 00-.383 1.052v.471c0 .095.037.185.103.252a.348.348 0 00.496 0 .358.358 0 00.102-.252v-.471c0-.496.396-.92.885-.92h.102c.675 1.125 1.887 1.895 3.267 1.895h.978a3.812 3.812 0 001.89-.51 3.879 3.879 0 001.401-1.386h.17a.861.861 0 01.624.252.883.883 0 01.262.627v.513c0 .095.037.185.103.252a.348.348 0 00.598-.252v-.513a1.63 1.63 0 00-.415-1.082 1.586 1.586 0 00-1.023-.52c.142-.414.213-.848.211-1.286v-1.012h.43c.489 0 .914.398.914.894v.421c0 .094.037.185.102.251a.348.348 0 00.599-.251v-.421c0-.888-.74-1.604-1.615-1.604h-.43V16.39h.684zM13.5 13.783c.176-1.362 1.364-2.5 2.8-2.5 1.435 0 2.623 1.138 2.799 2.5h-5.6zm2.816-3.832c.297 0 .588.09.835.256.248.166.441.403.557.68a3.476 3.476 0 00-2.775-.019c.118-.272.312-.504.557-.667.246-.163.533-.25.826-.25zm-3.658 9.464v-3.277c0-.032.014-.066.014-.1 0-.035-.014-.068-.014-.1v-.946a.492.492 0 01.123-.319.478.478 0 01.3-.158c.012.002.029-.006.042-.006.022 0 .047-.015.068-.015h2.738v8.115h-.127a3.139 3.139 0 01-2.22-.94 3.228 3.228 0 01-.924-2.254zm4.121 3.194h-.15v-8.115h2.779c.02 0 .042.015.064.015.01 0 .014.004.023.003a.473.473 0 01.292.163.485.485 0 01.113.317v2.93c0 .038-.02.078-.02.12 0 .042.02.082.02.12v1.253c0 1.752-1.394 3.194-3.12 3.194z" fill="#fff"/><path d="M21.287 16.39a1.58 1.58 0 001.124-.47c.298-.3.467-.71.47-1.137v-.153a.358.358 0 00-.104-.251.348.348 0 00-.495 0 .358.358 0 00-.103.251v.153a.909.909 0 01-.264.635.884.884 0 01-.628.26h-.685v-.686a1.2 1.2 0 00-.219-.695 1.173 1.173 0 00-.578-.434 3.58 3.58 0 00-.46-1.49l1.228-1.406a.356.356 0 00.052-.39.354.354 0 00-.336-.2.346.346 0 00-.24.12l-1.123 1.286a3.578 3.578 0 00-.4-.388 2.257 2.257 0 00-.672-1.524 2.195 2.195 0 00-1.523-.631 2.194 2.194 0 00-1.532.612 2.256 2.256 0 00-.69 1.515c-.123.099-.239.206-.347.32l-1.145-1.312a.352.352 0 00-.241-.12.347.347 0 00-.336.2.36.36 0 00.052.39l1.23 1.41a3.59 3.59 0 00-.538 1.601 1.183 1.183 0 00-.595.432 1.21 1.21 0 00-.23.704v.687h-.685a.884.884 0 01-.629-.261.909.909 0 01-.264-.635v-.153a.358.358 0 00-.103-.251.348.348 0 00-.495 0 .358.358 0 00-.103.251v.153c.002.427.171.836.47 1.137.298.301.703.47 1.124.47h.684v1.243h-.355c-.876 0-1.572.734-1.572 1.622v.463c0 .094.037.185.102.251a.348.348 0 00.496 0 .358.358 0 00.103-.251v-.463a.908.908 0 01.249-.639.883.883 0 01.622-.272h.355v1.071c.002.457.083.909.24 1.337-.376.056-.72.249-.967.541a1.62 1.62 0 00-.383 1.052v.471c0 .095.037.185.103.252a.348.348 0 00.496 0 .358.358 0 00.102-.252v-.471c0-.496.396-.92.885-.92h.102c.675 1.125 1.887 1.895 3.267 1.895h.978a3.812 3.812 0 001.89-.51 3.879 3.879 0 001.401-1.386h.17a.861.861 0 01.624.252.883.883 0 01.262.627v.513c0 .095.037.185.103.252a.348.348 0 00.598-.252v-.513a1.63 1.63 0 00-.415-1.082 1.586 1.586 0 00-1.023-.52c.142-.414.213-.848.211-1.286v-1.012h.43c.489 0 .914.398.914.894v.421c0 .094.037.185.102.251a.348.348 0 00.599-.251v-.421c0-.888-.74-1.604-1.615-1.604h-.43V16.39h.684zM13.5 13.783c.176-1.362 1.364-2.5 2.8-2.5 1.435 0 2.623 1.138 2.799 2.5h-5.6zm2.816-3.832c.297 0 .588.09.835.256.248.166.441.403.557.68a3.476 3.476 0 00-2.775-.019c.118-.272.312-.504.557-.667.246-.163.533-.25.826-.25zm-3.658 9.464v-3.277c0-.032.014-.066.014-.1 0-.035-.014-.068-.014-.1v-.946a.492.492 0 01.123-.319.478.478 0 01.3-.158c.012.002.029-.006.042-.006.022 0 .047-.015.068-.015h2.738v8.115h-.127a3.139 3.139 0 01-2.22-.94 3.228 3.228 0 01-.924-2.254zm4.121 3.194h-.15v-8.115h2.779c.02 0 .042.015.064.015.01 0 .014.004.023.003a.473.473 0 01.292.163.485.485 0 01.113.317v2.93c0 .038-.02.078-.02.12 0 .042.02.082.02.12v1.253c0 1.752-1.394 3.194-3.12 3.194z" stroke="#fff" stroke-width="1.2" mask="url(#a)"/></svg>