<svg width="700" height="700" viewBox="0 0 700 700" fill="none" xmlns="http://www.w3.org/2000/svg">
<g clip-path="url(#clip0_356:238)">
<path d="M607.289 349.658H700V350.815H607.289V349.658Z" fill="#14173A"/>
<path d="M491.401 349.658H600.336V350.815H491.401V349.658Z" fill="#14173A"/>
<path d="M491.401 349.658H600.336V350.815H491.401V349.658Z" fill="#0B5324"/>
<path d="M605.265 382.569L697.228 394.298L697.081 395.445L605.118 383.715L605.265 382.569Z" fill="#2B4813"/>
<path d="M490.313 367.906L598.368 381.689L598.221 382.836L490.166 369.053L490.313 367.906Z" fill="#2B4813"/>
<path d="M490.312 367.906L598.367 381.689L598.22 382.836L490.165 369.053L490.312 367.906Z" fill="#1B2B39"/>
<path d="M598.933 415.409L688.597 438.923L688.303 440.041L598.638 416.527L598.933 415.409Z" fill="#282624"/>
<path d="M486.852 386.015L592.208 413.645L591.913 414.763L486.557 387.134L486.852 386.015Z" fill="#282624"/>
<path d="M486.852 386.016L592.208 413.645L591.913 414.763L486.557 387.134L486.852 386.016Z" fill="#321E24"/>
<path d="M594.221 431.311L682.185 460.526L681.819 461.623L593.855 432.408L594.221 431.311Z" fill="#1A382D"/>
<path d="M484.265 394.793L587.623 429.12L587.257 430.217L483.899 395.89L484.265 394.793Z" fill="#1A382D"/>
<path d="M594.221 431.311L682.185 460.526L681.819 461.623L593.855 432.408L594.221 431.311Z" fill="#25434A"/>
<path d="M573.57 477.625L654.079 523.491L653.504 524.495L572.995 478.629L573.57 477.625Z" fill="#44513F"/>
<path d="M472.934 420.293L567.532 474.185L566.957 475.189L472.359 421.297L472.934 420.293Z" fill="#44513F"/>
<path d="M573.57 477.625L654.079 523.491L653.504 524.495L572.995 478.629L573.57 477.625Z" fill="#145123"/>
<path d="M554.875 505.91L628.636 561.945L627.934 562.865L554.173 506.83L554.875 505.91Z" fill="#2F0C1B"/>
<path d="M462.674 435.867L549.343 501.708L548.641 502.628L461.972 436.787L462.674 435.867Z" fill="#2F0C1B"/>
<path d="M462.674 435.867L549.343 501.708L548.641 502.628L461.972 436.787L462.674 435.867Z" fill="#4B2912"/>
<path d="M544.619 518.558L614.764 579.038L614.006 579.913L543.862 519.433L544.619 518.558Z" fill="#0C0B4D"/>
<path d="M456.939 442.957L539.359 514.022L538.601 514.897L456.181 443.832L456.939 442.957Z" fill="#0C0B4D"/>
<path d="M456.939 442.957L539.359 514.022L538.601 514.897L456.181 443.832L456.939 442.957Z" fill="#4A4427"/>
<path d="M533.17 530.964L599.2 595.891L598.387 596.714L532.356 531.788L533.17 530.964Z" fill="#105147"/>
<path d="M450.631 449.807L528.217 526.095L527.404 526.918L449.817 450.63L450.631 449.807Z" fill="#105147"/>
<path d="M533.169 530.964L599.2 595.891L598.387 596.714L532.356 531.788L533.169 530.964Z" fill="#113D29"/>
<path d="M520.943 542.592L582.579 611.685L581.713 612.454L520.078 543.361L520.943 542.592Z" fill="#422C24"/>
<path d="M443.898 456.225L516.321 537.41L515.455 538.179L443.033 456.994L443.898 456.225Z" fill="#422C24"/>
<path d="M443.898 456.225L516.321 537.41L515.455 538.178L443.033 456.994L443.898 456.225Z" fill="#3F364E"/>
<path d="M507.981 553.403L564.95 626.374L564.036 627.085L507.067 554.113L507.981 553.403Z" fill="#1A0C3A"/>
<path d="M436.769 462.189L503.708 547.93L502.794 548.64L435.855 462.899L436.769 462.189Z" fill="#1A0C3A"/>
<path d="M436.77 462.188L503.708 547.93L502.794 548.64L435.855 462.899L436.77 462.188Z" fill="#274D42"/>
<path d="M480.446 572.164L527.601 651.8L526.603 652.388L479.448 572.752L480.446 572.164Z" fill="#17272B"/>
<path d="M421.502 472.618L476.909 566.191L475.911 566.779L420.505 473.206L421.502 472.618Z" fill="#17272B"/>
<path d="M480.446 572.164L527.601 651.8L526.603 652.388L479.448 572.752L480.446 572.164Z" fill="#0A293A"/>
<path d="M434.573 593.51L465.178 680.819L464.084 681.201L433.48 593.892L434.573 593.51Z" fill="#4C0D2A"/>
<path d="M396.317 484.373L432.278 586.962L431.184 587.343L395.224 484.755L396.317 484.373Z" fill="#4C0D2A"/>
<path d="M434.573 593.51L465.178 680.819L464.084 681.201L433.479 593.892L434.573 593.51Z" fill="#055228"/>
<path d="M418.642 598.523L443.569 687.611L442.453 687.922L417.526 598.834L418.642 598.523Z" fill="#40221F"/>
<path d="M387.483 487.163L416.772 591.841L415.656 592.152L386.367 487.473L387.483 487.163Z" fill="#40221F"/>
<path d="M418.642 598.523L443.569 687.611L442.453 687.922L417.526 598.834L418.642 598.523Z" fill="#1E0B3C"/>
<path d="M369.061 607.281L376.207 699.5L375.051 699.589L367.906 607.37L369.061 607.281Z" fill="#3E3F39"/>
<path d="M360.13 492.007L368.525 600.364L367.37 600.453L358.974 492.096L360.13 492.007Z" fill="#3E3F39"/>
<path d="M360.13 492.007L368.526 600.364L367.37 600.453L358.975 492.096L360.13 492.007Z" fill="#1F251A"/>
<path d="M334.336 607.661L328.973 700L327.816 699.933L333.179 607.594L334.336 607.661Z" fill="#3C4322"/>
<path d="M341.04 492.237L334.738 600.735L333.581 600.668L339.883 492.17L341.04 492.237Z" fill="#3C4322"/>
<path d="M341.041 492.237L334.74 600.736L333.583 600.669L339.884 492.17L341.041 492.237Z" fill="#0A2220"/>
<path d="M317.995 606.232L306.945 698.067L305.795 697.929L316.845 606.094L317.995 606.232Z" fill="#103235"/>
<path d="M331.808 491.438L318.824 599.344L317.674 599.206L330.658 491.301L331.808 491.438Z" fill="#103235"/>
<path d="M331.808 491.438L318.824 599.344L317.674 599.206L330.658 491.301L331.808 491.438Z" fill="#132C47"/>
<path d="M301.372 603.698L284.35 694.62L283.211 694.408L300.232 603.486L301.372 603.698Z" fill="#2E354D"/>
<path d="M322.649 490.046L302.648 596.879L301.509 596.667L321.51 489.834L322.649 490.046Z" fill="#2E354D"/>
<path d="M301.372 603.698L284.35 694.62L283.211 694.408L300.232 603.486L301.372 603.698Z" fill="#0C3F12"/>
<path d="M222.586 575.218L177.207 655.876L176.196 655.31L221.575 574.653L222.586 575.218Z" fill="#481F22"/>
<path d="M279.309 474.397L225.989 569.169L224.978 568.603L278.298 473.831L279.309 474.397Z" fill="#481F22"/>
<path d="M222.586 575.218L177.207 655.876L176.196 655.31L221.575 574.653L222.586 575.218Z" fill="#345043"/>
<path d="M194.213 556.817L138.587 630.813L137.66 630.119L193.286 556.124L194.213 556.817Z" fill="#3D124E"/>
<path d="M263.745 464.323L198.385 551.268L197.458 550.574L262.818 463.629L263.745 464.323Z" fill="#3D124E"/>
<path d="M194.213 556.817L138.587 630.813L137.66 630.119L193.286 556.124L194.213 556.817Z" fill="#0F174D"/>
<path d="M181.023 546.296L120.656 616.496L119.777 615.743L180.143 545.543L181.023 546.296Z" fill="#1C1652"/>
<path d="M256.481 458.546L185.55 541.031L184.671 540.278L255.601 457.793L256.481 458.546Z" fill="#1C1652"/>
<path d="M181.023 546.296L120.656 616.496L119.777 615.743L180.143 545.543L181.023 546.296Z" fill="#0A2E28"/>
<path d="M136.249 496.83L59.905 549.308L59.2475 548.356L135.592 495.878L136.249 496.83Z" fill="#324F46"/>
<path d="M231.679 431.233L141.975 492.894L141.317 491.942L231.022 430.281L231.679 431.233Z" fill="#324F46"/>
<path d="M136.249 496.83L59.905 549.308L59.2475 548.356L135.592 495.878L136.249 496.83Z" fill="#0D0A2E"/>
<path d="M127.399 483.166L47.9253 530.796L47.3285 529.805L126.802 482.175L127.399 483.166Z" fill="#2A4D1F"/>
<path d="M226.741 423.629L133.36 479.594L132.763 478.603L226.144 422.638L226.741 423.629Z" fill="#2A4D1F"/>
<path d="M127.399 483.166L47.9253 530.796L47.3285 529.805L126.802 482.175L127.399 483.166Z" fill="#4C293E"/>
<path d="M96.2952 405.007L5.64807 424.413L5.40492 423.283L96.052 403.876L96.2952 405.007Z" fill="#451D53"/>
<path d="M209.604 380.749L103.094 403.551L102.851 402.421L209.361 379.618L209.604 380.749Z" fill="#451D53"/>
<path d="M96.2952 405.007L5.64807 424.413L5.40492 423.283L96.052 403.876L96.2952 405.007Z" fill="#00ACAC"/>
<path d="M96.2951 405.007L5.64807 424.413L5.40492 423.283L96.052 403.876L96.2951 405.007Z" fill="#05273C"/>
<path d="M93.2778 388.557L1.55823 402.045L1.38923 400.901L93.1088 387.413L93.2778 388.557Z" fill="#3E4E43"/>
<path d="M207.927 371.696L100.157 387.545L99.9878 386.401L207.758 370.552L207.927 371.696Z" fill="#3E4E43"/>
<path d="M93.2778 388.557L1.55823 402.045L1.38923 400.901L93.1088 387.413L93.2778 388.557Z" fill="#372D30"/>
<path d="M92.0896 320.92L0 310.232L0.133492 309.083L92.2231 319.771L92.0896 320.92Z" fill="#26352A"/>
<path d="M207.202 334.28L98.9963 321.721L99.1298 320.573L207.335 333.132L207.202 334.28Z" fill="#26352A"/>
<path d="M207.202 334.28L98.9963 321.721L99.1298 320.573L207.335 333.132L207.202 334.28Z" fill="#452044"/>
<path d="M97.9274 286.615L8 264.121L8.28183 263L98.2092 285.494L97.9274 286.615Z" fill="#432448"/>
<path d="M210.337 314.732L104.672 288.302L104.954 287.181L210.618 313.61L210.337 314.732Z" fill="#432448"/>
<path d="M97.9274 286.615L8 264.121L8.28183 263L98.2092 285.494L97.9274 286.615Z" fill="#054D0F"/>
<path d="M102.29 272.321L14 244.101L14.3536 243L102.644 271.22L102.29 272.321Z" fill="#2E1113"/>
<path d="M212.653 307.596L108.912 274.437L109.266 273.336L213.007 306.495L212.653 307.596Z" fill="#2E1113"/>
<path d="M102.51 272.191L14.2194 243.971L14.5729 242.87L102.863 271.09L102.51 272.191Z" fill="#1E2111"/>
<path d="M108.368 255.741L22.1926 221.63L22.62 220.556L108.796 254.667L108.368 255.741Z" fill="#072246"/>
<path d="M216.088 298.38L114.831 258.3L115.259 257.225L216.515 297.306L216.088 298.38Z" fill="#072246"/>
<path d="M108.368 255.741L22.1926 221.63L22.62 220.556L108.796 254.667L108.368 255.741Z" fill="#203A1E"/>
<path d="M122.629 225.545L41.616 180.57L42.1795 179.56L123.192 224.535L122.629 225.545Z" fill="#4D4618"/>
<path d="M223.895 281.764L128.705 228.918L129.268 227.908L224.458 280.753L223.895 281.764Z" fill="#4D4618"/>
<path d="M223.894 281.763L128.704 228.918L129.268 227.908L224.458 280.753L223.894 281.763Z" fill="#4A4431"/>
<path d="M131.442 210.827L53.5892 160.603L54.2185 159.632L132.071 209.856L131.442 210.827Z" fill="#231115"/>
<path d="M228.757 273.606L137.281 214.594L137.91 213.623L229.387 272.636L228.757 273.606Z" fill="#231115"/>
<path d="M228.759 273.607L137.282 214.594L137.911 213.623L229.388 272.636L228.759 273.607Z" fill="#1D4B13"/>
<path d="M174.532 159.9L112.144 91.4815L113.001 90.7035L175.389 159.122L174.532 159.9Z" fill="#3E3849"/>
<path d="M252.516 245.424L179.211 165.032L180.068 164.254L253.373 244.646L252.516 245.424Z" fill="#3E3849"/>
<path d="M252.515 245.424L179.21 165.032L180.067 164.254L253.373 244.646L252.515 245.424Z" fill="#102E55"/>
<path d="M186.444 149.679L128.414 77.544L129.318 76.8203L187.347 148.956L186.444 149.679Z" fill="#243D14"/>
<path d="M258.98 239.848L190.796 155.089L191.7 154.366L259.884 239.125L258.98 239.848Z" fill="#243D14"/>
<path d="M258.98 239.848L190.796 155.089L191.7 154.366L259.884 239.125L258.98 239.848Z" fill="#155336"/>
<path d="M243.916 114.583L206.53 29.9423L207.59 29.476L244.976 114.116L243.916 114.583Z" fill="#3D1933"/>
<path d="M290.648 220.383L246.72 120.931L247.78 120.464L291.709 219.917L290.648 220.383Z" fill="#3D1933"/>
<path d="M243.916 114.583L206.53 29.9423L207.59 29.476L244.976 114.116L243.916 114.583Z" fill="#2F4337"/>
<path d="M299.709 216.705L262.591 114.528L263.68 114.134L300.799 216.311L299.709 216.705Z" fill="#4B1C1D"/>
<path d="M260.222 108.007L228.632 21.0474L229.721 20.6534L261.311 107.613L260.222 108.007Z" fill="#203E1B"/>
<path d="M291.654 98.7703L271.512 8.48553L272.643 8.23434L292.786 98.5191L291.654 98.7703Z" fill="#151515"/>
<path d="M316.833 211.626L293.165 105.542L294.296 105.29L317.964 211.375L316.833 211.626Z" fill="#151515"/>
<path d="M316.832 211.626L293.165 105.542L294.296 105.29L317.963 211.375L316.832 211.626Z" fill="#2C3634"/>
<path d="M308.052 95.6194L293.829 4.22021L294.975 4.04284L309.197 95.4421L308.052 95.6194Z" fill="#414051"/>
<path d="M325.831 209.868L309.119 102.474L310.264 102.297L326.976 209.691L325.831 209.868Z" fill="#414051"/>
<path d="M308.052 95.6194L293.829 4.22021L294.975 4.04284L309.197 95.4421L308.052 95.6194Z" fill="#283824"/>
<path d="M342.034 92.4962L339.888 0.0267944L341.047 1.26578e-06L343.192 92.4694L342.034 92.4962Z" fill="#2A3C23"/>
<path d="M344.715 208.083L342.195 99.4314L343.353 99.4046L345.874 208.056L344.715 208.083Z" fill="#2A3C23"/>
<path d="M344.715 208.083L342.195 99.4314L343.353 99.4046L345.874 208.056L344.715 208.083Z" fill="#37191D"/>
<path d="M358.848 92.5965L362.779 0.185577L363.937 0.234679L360.006 92.6456L358.848 92.5965Z" fill="#214548"/>
<path d="M353.933 208.11L358.553 99.5273L359.711 99.5764L355.091 208.159L353.933 208.11Z" fill="#214548"/>
<path d="M358.848 92.5965L362.779 0.185577L363.937 0.234679L360.006 92.6456L358.848 92.5965Z" fill="#2F512B"/>
<path d="M375.929 93.8135L385.917 1.8576L387.069 1.98216L377.082 93.938L375.929 93.8135Z" fill="#1F1846"/>
<path d="M363.445 208.758L375.18 100.71L376.332 100.835L364.597 208.883L363.445 208.758Z" fill="#1F1846"/>
<path d="M375.929 93.8135L385.917 1.8576L387.069 1.98216L377.082 93.938L375.929 93.8135Z" fill="#141413"/>
<path d="M392.645 96.111L408.62 5.00027L409.762 5.19949L393.787 96.3102L392.645 96.111Z" fill="#3A223F"/>
<path d="M372.677 209.999L391.447 102.944L392.589 103.143L373.818 210.199L372.677 209.999Z" fill="#3A223F"/>
<path d="M372.677 209.999L391.447 102.944L392.589 103.143L373.818 210.199L372.677 209.999Z" fill="#35451D"/>
<path d="M471.974 123.513L516.455 42.3601L517.472 42.9148L472.991 124.068L471.974 123.513Z" fill="#443F27"/>
<path d="M416.374 224.955L468.638 129.6L469.655 130.155L417.39 225.51L416.374 224.955Z" fill="#443F27"/>
<path d="M471.974 123.513L516.455 42.3601L517.472 42.9148L472.991 124.068L471.974 123.513Z" fill="#36334E"/>
<path d="M486.868 132.229L536.637 54.1919L537.615 54.8125L487.846 132.85L486.868 132.229Z" fill="#2E4E50"/>
<path d="M424.657 229.775L483.135 138.082L484.113 138.702L425.635 230.396L424.657 229.775Z" fill="#2E4E50"/>
<path d="M486.868 132.229L536.637 54.1919L537.615 54.8125L487.846 132.85L486.868 132.229Z" fill="#341E10"/>
<path d="M526.284 162.771L590.152 95.7258L590.992 96.5223L527.124 163.568L526.284 162.771Z" fill="#38162A"/>
<path d="M446.449 246.578L521.494 167.8L522.334 168.596L447.289 247.374L446.449 246.578Z" fill="#38162A"/>
<path d="M446.449 246.578L521.494 167.8L522.334 168.596L447.289 247.374L446.449 246.578Z" fill="#432D44"/>
<path d="M568.598 214.496L647.541 165.995L648.148 166.979L569.206 215.48L568.598 214.496Z" fill="#2B3636"/>
<path d="M469.92 275.122L562.677 218.133L563.285 219.118L470.528 276.107L469.92 275.122Z" fill="#2B3636"/>
<path d="M469.92 275.122L562.677 218.133L563.285 219.118L470.528 276.107L469.92 275.122Z" fill="#4D1D33"/>
<path d="M577.184 229.404L659.177 186.232L659.717 187.254L577.725 230.427L577.184 229.404Z" fill="#433F39"/>
<path d="M474.694 283.369L571.035 232.642L571.576 233.664L475.235 284.392L474.694 283.369Z" fill="#433F39"/>
<path d="M474.695 283.369L571.035 232.642L571.576 233.664L475.235 284.392L474.695 283.369Z" fill="#223A3B"/>
<path d="M584.309 243.861L668.866 205.933L669.341 206.987L584.784 244.915L584.309 243.861Z" fill="#472210"/>
<path d="M478.612 291.271L577.967 246.706L578.442 247.76L479.087 292.326L478.612 291.271Z" fill="#472210"/>
<path d="M584.309 243.861L668.866 205.933L669.341 206.987L584.784 244.915L584.309 243.861Z" fill="#321B46"/>
<path d="M596.23 275.487L685.039 248.936L685.372 250.043L596.563 276.594L596.23 275.487Z" fill="#411B1B"/>
<path d="M485.219 308.676L589.57 277.478L589.902 278.586L485.552 309.783L485.219 308.676Z" fill="#411B1B"/>
<path d="M596.23 275.487L685.039 248.936L685.372 250.043L596.563 276.594L596.23 275.487Z" fill="#351020"/>
<path d="M600.772 292.555L691.19 272.116L691.446 273.244L601.028 293.683L600.772 292.555Z" fill="#03484A"/>
<path d="M487.748 318.104L593.99 294.088L594.246 295.216L488.004 319.232L487.748 318.104Z" fill="#03484A"/>
<path d="M600.772 292.555L691.19 272.116L691.446 273.244L601.028 293.683L600.772 292.555Z" fill="#0F2732"/>
</g>
<defs>
<clipPath id="clip0_356:238">
<rect width="700" height="700" fill="white"/>
</clipPath>
</defs>
</svg>
