<svg width="700" height="700" fill="none" xmlns="http://www.w3.org/2000/svg"><g clip-path="url(#clip0_356:238)"><path d="M607.289 349.658H700v1.157h-92.711v-1.157zM491.401 349.658h108.935v1.157H491.401v-1.157z" fill="#14173A"/><path d="M491.401 349.658h108.935v1.157H491.401v-1.157z" fill="#0B5324"/><path d="M605.265 382.569l91.963 11.729-.147 1.147-91.963-11.73.147-1.146zM490.313 367.906l108.055 13.783-.147 1.147-108.055-13.783.147-1.147z" fill="#2B4813"/><path d="M490.312 367.906l108.055 13.783-.147 1.147-108.055-13.783.147-1.147z" fill="#1B2B39"/><path d="M598.933 415.409l89.664 23.514-.294 1.118-89.665-23.514.295-1.118zM486.852 386.015l105.356 27.63-.295 1.118-105.356-27.629.295-1.119z" fill="#282624"/><path d="M486.852 386.016l105.356 27.629-.295 1.118-105.356-27.629.295-1.118z" fill="#321E24"/><path d="M594.221 431.311l87.964 29.215-.366 1.097-87.964-29.215.366-1.097zM484.265 394.793l103.358 34.327-.366 1.097-103.358-34.327.366-1.097z" fill="#1A382D"/><path d="M594.221 431.311l87.964 29.215-.366 1.097-87.964-29.215.366-1.097z" fill="#25434A"/><path d="M573.57 477.625l80.509 45.866-.575 1.004-80.509-45.866.575-1.004zM472.934 420.293l94.598 53.892-.575 1.004-94.598-53.892.575-1.004z" fill="#44513F"/><path d="M573.57 477.625l80.509 45.866-.575 1.004-80.509-45.866.575-1.004z" fill="#145123"/><path d="M554.875 505.91l73.761 56.035-.702.92-73.761-56.035.702-.92zM462.674 435.867l86.669 65.841-.702.92-86.669-65.841.702-.92z" fill="#2F0C1B"/><path d="M462.674 435.867l86.669 65.841-.702.92-86.669-65.841.702-.92z" fill="#4B2912"/><path d="M544.619 518.558l70.145 60.48-.758.875-70.144-60.48.757-.875zM456.939 442.957l82.42 71.065-.758.875-82.42-71.065.758-.875z" fill="#0C0B4D"/><path d="M456.939 442.957l82.42 71.065-.758.875-82.42-71.065.758-.875z" fill="#4A4427"/><path d="M533.17 530.964l66.03 64.927-.813.823-66.031-64.926.814-.824zM450.631 449.807l77.586 76.288-.813.823-77.587-76.288.814-.823z" fill="#105147"/><path d="M533.169 530.964l66.031 64.927-.813.823-66.031-64.926.813-.824z" fill="#113D29"/><path d="M520.943 542.592l61.636 69.093-.866.769-61.635-69.093.865-.769zM443.898 456.225l72.423 81.185-.866.769-72.422-81.185.865-.769z" fill="#422C24"/><path d="M443.898 456.225l72.423 81.185-.866.768-72.422-81.184.865-.769z" fill="#3F364E"/><path d="M507.981 553.403l56.969 72.971-.914.711-56.969-72.972.914-.71zM436.769 462.189l66.939 85.741-.914.71-66.939-85.741.914-.71z" fill="#1A0C3A"/><path d="M436.77 462.188l66.938 85.742-.914.71-66.939-85.741.915-.711z" fill="#274D42"/><path d="M480.446 572.164l47.155 79.636-.998.588-47.155-79.636.998-.588zM421.502 472.618l55.407 93.573-.998.588-55.406-93.573.997-.588z" fill="#17272B"/><path d="M480.446 572.164l47.155 79.636-.998.588-47.155-79.636.998-.588z" fill="#0A293A"/><path d="M434.573 593.51l30.605 87.309-1.094.382-30.604-87.309 1.093-.382zM396.317 484.373l35.961 102.589-1.094.381-35.96-102.588 1.093-.382z" fill="#4C0D2A"/><path d="M434.573 593.51l30.605 87.309-1.094.382-30.605-87.309 1.094-.382z" fill="#055228"/><path d="M418.642 598.523l24.927 89.088-1.116.311-24.927-89.088 1.116-.311zM387.483 487.163l29.289 104.678-1.116.311-29.289-104.679 1.116-.31z" fill="#40221F"/><path d="M418.642 598.523l24.927 89.088-1.116.311-24.927-89.088 1.116-.311z" fill="#1E0B3C"/><path d="M369.061 607.281l7.146 92.219-1.156.089-7.145-92.219 1.155-.089zM360.13 492.007l8.395 108.357-1.155.089-8.396-108.357 1.156-.089z" fill="#3E3F39"/><path d="M360.13 492.007l8.396 108.357-1.156.089-8.395-108.357 1.155-.089z" fill="#1F251A"/><path d="M334.336 607.661L328.973 700l-1.157-.067 5.363-92.339 1.157.067zM341.04 492.237l-6.302 108.498-1.157-.067 6.302-108.498 1.157.067z" fill="#3C4322"/><path d="M341.041 492.237l-6.301 108.499-1.157-.067 6.301-108.499 1.157.067z" fill="#0A2220"/><path d="M317.995 606.232l-11.05 91.835-1.15-.138 11.05-91.835 1.15.138zM331.808 491.438l-12.984 107.906-1.15-.138 12.984-107.905 1.15.137z" fill="#103235"/><path d="M331.808 491.438l-12.984 107.906-1.15-.138 12.984-107.905 1.15.137z" fill="#132C47"/><path d="M301.372 603.698L284.35 694.62l-1.139-.212 17.021-90.922 1.14.212zM322.649 490.046l-20.001 106.833-1.139-.212 20.001-106.833 1.139.212z" fill="#2E354D"/><path d="M301.372 603.698L284.35 694.62l-1.139-.212 17.021-90.922 1.14.212z" fill="#0C3F12"/><path d="M222.586 575.218l-45.379 80.658-1.011-.566 45.379-80.657 1.011.565zM279.309 474.397l-53.32 94.772-1.011-.566 53.32-94.772 1.011.566z" fill="#481F22"/><path d="M222.586 575.218l-45.379 80.658-1.011-.566 45.379-80.657 1.011.565z" fill="#345043"/><path d="M194.213 556.817l-55.626 73.996-.927-.694 55.626-73.995.927.693zM263.745 464.323l-65.36 86.945-.927-.694 65.36-86.945.927.694z" fill="#3D124E"/><path d="M194.213 556.817l-55.626 73.996-.927-.694 55.626-73.995.927.693z" fill="#0F174D"/><path d="M181.023 546.296l-60.367 70.2-.879-.753 60.366-70.2.88.753zM256.481 458.546l-70.931 82.485-.879-.753 70.93-82.485.88.753z" fill="#1C1652"/><path d="M181.023 546.296l-60.367 70.2-.879-.753 60.366-70.2.88.753z" fill="#0A2E28"/><path d="M136.249 496.83l-76.344 52.478-.657-.952 76.344-52.478.657.952zM231.679 431.233l-89.704 61.661-.658-.952 89.705-61.661.657.952z" fill="#324F46"/><path d="M136.249 496.83l-76.344 52.478-.657-.952 76.344-52.478.657.952z" fill="#0D0A2E"/><path d="M127.399 483.166l-79.474 47.63-.596-.991 79.473-47.63.597.991zM226.741 423.629l-93.381 55.965-.597-.991 93.381-55.965.597.991z" fill="#2A4D1F"/><path d="M127.399 483.166l-79.474 47.63-.596-.991 79.473-47.63.597.991z" fill="#4C293E"/><path d="M96.295 405.007L5.648 424.413l-.243-1.13 90.647-19.407.243 1.131zM209.604 380.749l-106.51 22.802-.243-1.13 106.51-22.803.243 1.131z" fill="#451D53"/><path d="M96.295 405.007L5.648 424.413l-.243-1.13 90.647-19.407.243 1.131z" fill="#00ACAC"/><path d="M96.295 405.007L5.648 424.413l-.243-1.13 90.647-19.407.243 1.131z" fill="#05273C"/><path d="M93.278 388.557l-91.72 13.488-.169-1.144 91.72-13.488.169 1.144zM207.927 371.696l-107.77 15.849-.17-1.144 107.771-15.849.169 1.144z" fill="#3E4E43"/><path d="M93.278 388.557l-91.72 13.488-.169-1.144 91.72-13.488.169 1.144z" fill="#372D30"/><path d="M92.09 320.92L0 310.232l.133-1.149 92.09 10.688-.133 1.149zM207.202 334.28L98.996 321.721l.134-1.148 108.205 12.559-.133 1.148z" fill="#26352A"/><path d="M207.202 334.28L98.996 321.721l.134-1.148 108.205 12.559-.133 1.148z" fill="#452044"/><path d="M97.927 286.615L8 264.121 8.282 263l89.927 22.494-.282 1.121zM210.337 314.732l-105.665-26.43.282-1.121 105.664 26.429-.281 1.122z" fill="#432448"/><path d="M97.927 286.615L8 264.121 8.282 263l89.927 22.494-.282 1.121z" fill="#054D0F"/><path d="M102.29 272.321L14 244.101l.354-1.101 88.29 28.22-.354 1.101zM212.653 307.596l-103.741-33.159.354-1.101 103.741 33.159-.354 1.101z" fill="#2E1113"/><path d="M102.51 272.191l-88.29-28.22.353-1.101 88.29 28.22-.353 1.101z" fill="#1E2111"/><path d="M108.368 255.741L22.193 221.63l.427-1.074 86.176 34.111-.428 1.074zM216.088 298.38L114.831 258.3l.428-1.075 101.256 40.081-.427 1.074z" fill="#072246"/><path d="M108.368 255.741L22.193 221.63l.427-1.074 86.176 34.111-.428 1.074z" fill="#203A1E"/><path d="M122.629 225.545L41.616 180.57l.563-1.01 81.013 44.975-.563 1.01zM223.895 281.764l-95.19-52.846.563-1.01 95.19 52.845-.563 1.011z" fill="#4D4618"/><path d="M223.894 281.763l-95.19-52.845.564-1.01 95.19 52.845-.564 1.01z" fill="#4A4431"/><path d="M131.442 210.827l-77.853-50.224.63-.971 77.852 50.224-.629.971zM228.757 273.606l-91.476-59.012.629-.971 91.477 59.013-.63.97z" fill="#231115"/><path d="M228.759 273.607l-91.477-59.013.629-.971 91.477 59.013-.629.971z" fill="#1D4B13"/><path d="M174.532 159.9l-62.388-68.419.857-.777 62.388 68.418-.857.778zM252.516 245.424l-73.305-80.392.857-.778 73.305 80.392-.857.778z" fill="#3E3849"/><path d="M252.515 245.424l-73.305-80.392.857-.778 73.306 80.392-.858.778z" fill="#102E55"/><path d="M186.444 149.679l-58.03-72.135.904-.724 58.029 72.136-.903.723zM258.98 239.848l-68.184-84.759.904-.723 68.184 84.759-.904.723z" fill="#243D14"/><path d="M258.98 239.848l-68.184-84.759.904-.723 68.184 84.759-.904.723z" fill="#155336"/><path d="M243.916 114.583l-37.386-84.64 1.06-.467 37.386 84.64-1.06.467zM290.648 220.383l-43.928-99.452 1.06-.467 43.929 99.453-1.061.466z" fill="#3D1933"/><path d="M243.916 114.583l-37.386-84.64 1.06-.467 37.386 84.64-1.06.467z" fill="#2F4337"/><path d="M299.709 216.705l-37.118-102.177 1.089-.394 37.119 102.177-1.09.394z" fill="#4B1C1D"/><path d="M260.222 108.007l-31.59-86.96 1.089-.394 31.59 86.96-1.089.394z" fill="#203E1B"/><path d="M291.654 98.77L271.512 8.486l1.131-.252 20.143 90.285-1.132.251zM316.833 211.626l-23.668-106.084 1.131-.252 23.668 106.085-1.131.251z" fill="#151515"/><path d="M316.832 211.626l-23.667-106.084 1.131-.252 23.667 106.085-1.131.251z" fill="#2C3634"/><path d="M308.052 95.62l-14.223-91.4 1.146-.177 14.222 91.4-1.145.176zM325.831 209.868l-16.712-107.394 1.145-.177 16.712 107.394-1.145.177z" fill="#414051"/><path d="M308.052 95.62l-14.223-91.4 1.146-.177 14.222 91.4-1.145.176z" fill="#283824"/><path d="M342.034 92.496L339.888.026 341.047 0l2.145 92.47-1.158.026zM344.715 208.083l-2.52-108.652 1.158-.026 2.521 108.651-1.159.027z" fill="#2A3C23"/><path d="M344.715 208.083l-2.52-108.652 1.158-.026 2.521 108.651-1.159.027z" fill="#37191D"/><path d="M358.848 92.597L362.779.186l1.158.049-3.931 92.41-1.158-.048zM353.933 208.11l4.62-108.583 1.158.05-4.62 108.582-1.158-.049z" fill="#214548"/><path d="M358.848 92.597L362.779.186l1.158.049-3.931 92.41-1.158-.048z" fill="#2F512B"/><path d="M375.929 93.814l9.988-91.956 1.152.124-9.987 91.956-1.153-.124zM363.445 208.758L375.18 100.71l1.152.125-11.735 108.048-1.152-.125z" fill="#1F1846"/><path d="M375.929 93.814l9.988-91.956 1.152.124-9.987 91.956-1.153-.124z" fill="#141413"/><path d="M392.645 96.111l15.975-91.11 1.142.198-15.975 91.111-1.142-.199zM372.677 209.999l18.77-107.055 1.142.199-18.771 107.056-1.141-.2z" fill="#3A223F"/><path d="M372.677 209.999l18.77-107.055 1.142.199-18.771 107.056-1.141-.2z" fill="#35451D"/><path d="M471.974 123.513l44.481-81.153 1.017.555-44.481 81.153-1.017-.555zM416.374 224.955l52.264-95.355 1.017.555-52.265 95.355-1.016-.555z" fill="#443F27"/><path d="M471.974 123.513l44.481-81.153 1.017.555-44.481 81.153-1.017-.555z" fill="#36334E"/><path d="M486.868 132.229l49.769-78.037.978.62-49.769 78.038-.978-.621zM424.657 229.775l58.478-91.693.978.62-58.478 91.694-.978-.621z" fill="#2E4E50"/><path d="M486.868 132.229l49.769-78.037.978.62-49.769 78.038-.978-.621z" fill="#341E10"/><path d="M526.284 162.771l63.868-67.045.84.796-63.868 67.046-.84-.797zM446.449 246.578l75.045-78.778.84.796-75.045 78.778-.84-.796z" fill="#38162A"/><path d="M446.449 246.578l75.045-78.778.84.796-75.045 78.778-.84-.796z" fill="#432D44"/><path d="M568.598 214.496l78.943-48.501.607.984-78.942 48.501-.608-.984zM469.92 275.122l92.757-56.989.608.985-92.757 56.989-.608-.985z" fill="#2B3636"/><path d="M469.92 275.122l92.757-56.989.608.985-92.757 56.989-.608-.985z" fill="#4D1D33"/><path d="M577.184 229.404l81.993-43.172.54 1.022-81.992 43.173-.541-1.023zM474.694 283.369l96.341-50.727.541 1.022-96.341 50.728-.541-1.023z" fill="#433F39"/><path d="M474.695 283.369l96.34-50.727.541 1.022-96.341 50.728-.54-1.023z" fill="#223A3B"/><path d="M584.309 243.861l84.557-37.928.475 1.054-84.557 37.928-.475-1.054zM478.612 291.271l99.355-44.565.475 1.054-99.355 44.566-.475-1.055z" fill="#472210"/><path d="M584.309 243.861l84.557-37.928.475 1.054-84.557 37.928-.475-1.054z" fill="#321B46"/><path d="M596.23 275.487l88.809-26.551.333 1.107-88.809 26.551-.333-1.107zM485.219 308.676l104.351-31.198.332 1.108-104.35 31.197-.333-1.107z" fill="#411B1B"/><path d="M596.23 275.487l88.809-26.551.333 1.107-88.809 26.551-.333-1.107z" fill="#351020"/><path d="M600.772 292.555l90.418-20.439.256 1.128-90.418 20.439-.256-1.128zM487.748 318.104l106.242-24.016.256 1.128-106.242 24.016-.256-1.128z" fill="#03484A"/><path d="M600.772 292.555l90.418-20.439.256 1.128-90.418 20.439-.256-1.128z" fill="#0F2732"/></g><defs><clipPath id="clip0_356:238"><path fill="#fff" d="M0 0h700v700H0z"/></clipPath></defs></svg>