<svg width="44" height="44" fill="none" xmlns="http://www.w3.org/2000/svg"><g clip-path="url(#clip0_522:46)" fill="#fff"><path d="M4.46 44H3.429c-.343-.091-.681-.2-1.013-.325-2.53-1.085-3.127-4.316-1.146-6.302 3.303-3.327 6.617-6.644 9.942-9.95.056-.056.122-.105.268-.229l1.72 1.744 1.326-1.326c-.09-.114-.21-.253-.322-.4-3.586-4.693-4.625-9.904-2.826-15.523C13.945 3.668 21.798-1.017 30.11.33c6.532 1.06 12.009 6.225 13.453 12.719.195.873.295 1.768.44 2.652v2.23a2.379 2.379 0 00-.072.33 16.592 16.592 0 01-.874 4.094C40.228 30.65 31.031 35.39 22.641 32.887a17.021 17.021 0 01-6.14-3.317l-1.427 1.375 1.84 1.814c-.155.09-.301.193-.438.307-3.047 3.04-6.1 6.073-9.123 9.135-.833.846-1.692 1.584-2.893 1.799zm16.408-28.462H18.3v2.565h2.568v2.569h-2.57v2.567c1.17 0 2.311.008 3.453 0a.748.748 0 01.651.292c2.588 3.043 7.138 3.05 9.73.016a.79.79 0 01.688-.31c1.146.017 2.28.006 3.438.006V20.66h-2.57v-2.586h2.57v-2.565h-2.584v-2.571h2.586V10.37h-3.566a.627.627 0 01-.386-.108c-.585-.536-1.155-1.09-1.763-1.673.317-.584.615-1.267.573-2.062h-2.513c-.245.86-.652 1.279-1.297 1.26-.258-.008-.573-.075-.75-.24-.283-.269-.47-.639-.73-1.014h-2.395c-.043.802.262 1.481.613 2.135-.344.255-.73.428-.937.728-.678.989-1.63 1.092-2.688.982a8.223 8.223 0 00-.857 0h-1.26v2.588h2.565v2.57z"/><path d="M23.417 15.534h7.684c.017.095.027.192.031.289-.02 1.412.071 2.838-.096 4.232-.236 1.97-2.095 3.332-4.078 3.175a3.866 3.866 0 01-3.537-3.755c-.02-1.299-.004-2.597-.004-3.94zM30.841 12.925h-7.137c.38-1.441 1.965-2.56 3.594-2.553 1.609.007 3.187 1.14 3.543 2.553z"/></g><defs><clipPath id="clip0_522:46"><path fill="#fff" d="M0 0h44v44H0z"/></clipPath></defs></svg>