<svg width="46" height="46" fill="none" xmlns="http://www.w3.org/2000/svg"><mask id="a" maskUnits="userSpaceOnUse" x="0" y="0" width="46" height="46" fill="#000"><path fill="#fff" d="M0 0h46v46H0z"/><path fill-rule="evenodd" clip-rule="evenodd" d="M40.471 23.609a2.307 2.307 0 004.451-1.2 2.305 2.305 0 00-4.45-.017h-3.47v-3.13h1.615a.662.662 0 00.645-.632v-3.54h.83c.11.386.314.74.592 1.029a2.304 2.304 0 003.257-3.258c-.899-.899-2.357-.9-3.257-.002a2.417 2.417 0 00-.592 1.014h-1.475c-.337 0-.572.287-.572.623v3.55H37v-5.769c0-1.773-1.456-3.184-3.23-3.184h-5.988v-1.13h3.725c.336 0 .623-.236.623-.572V5.916c.382-.11.73-.314 1.014-.592a2.311 2.311 0 00-1.63-3.952 2.313 2.313 0 00-1.63 3.952c.289.279.642.482 1.028.592v.83H27.18c-.336 0-.615.309-.615.645v1.702h-2.957V5.535A2.308 2.308 0 0023 1a2.31 2.31 0 00-.609 4.535v3.558h-3.13V7.39a.662.662 0 00-.634-.645h-3.541v-.83a2.47 2.47 0 001.03-.592 2.299 2.299 0 10-3.261 0 2.42 2.42 0 001.013.592v1.475c0 .336.287.571.624.571h3.55v1.13h-5.727c-1.774 0-3.23 1.412-3.23 3.185v5.943h-1.13v-3.723c0-.337-.236-.624-.572-.624H5.908a2.417 2.417 0 00-.592-1.014 2.313 2.313 0 00-3.953 1.63 2.312 2.312 0 003.953 1.63c.278-.29.481-.643.592-1.029h.83v3.732c0 .335.309.615.645.615h1.702v2.955H5.53a2.305 2.305 0 100 1.217h3.556v3.13H7.383a.662.662 0 00-.646.632v3.54h-.829a2.468 2.468 0 00-.592-1.03 2.298 2.298 0 00-3.246 3.253c.895.896 2.347.9 3.246.008.278-.285.481-.633.592-1.014h1.475c.336 0 .572-.287.572-.624v-3.549h1.13v5.769c0 1.773 1.456 3.184 3.23 3.184h5.902v1.13h-3.725c-.336 0-.624.236-.624.572v1.474a2.42 2.42 0 00-1.014.592 2.311 2.311 0 001.63 3.953 2.314 2.314 0 001.631-3.953 2.466 2.466 0 00-1.029-.592v-.829h3.733c.336 0 .615-.309.615-.645v-1.702h2.957v3.558A2.308 2.308 0 0023 45a2.309 2.309 0 00.608-4.534v-3.558h3.131v1.702c.009.348.285.63.633.645h3.541v.83a2.47 2.47 0 00-1.029.591 2.297 2.297 0 003.255 3.247c.897-.895.9-2.348.006-3.247a2.418 2.418 0 00-1.014-.592V38.61c0-.336-.287-.572-.623-.572h-3.551v-1.13h5.814c1.774 0 3.23-1.411 3.23-3.184V27.78h1.044v3.723c0 .336.235.624.572.624h1.475c.11.38.314.73.592 1.014a2.314 2.314 0 102.523-3.768 2.314 2.314 0 00-2.523.508 2.46 2.46 0 00-.592 1.029h-.83v-3.732c0-.336-.31-.615-.645-.615H37V23.61h3.47zm1.456-1.378a1.088 1.088 0 111.538 1.539 1.088 1.088 0 01-1.539-1.539zm-.382-8.504a1.089 1.089 0 111.548 1.532 1.089 1.089 0 01-1.548-1.532zM30.419 3.694a1.088 1.088 0 112.176 0 1.088 1.088 0 01-2.176 0zm-8.189-1.15a1.088 1.088 0 111.54 1.54 1.088 1.088 0 01-1.54-1.54zm-8.826 1.15a1.088 1.088 0 112.176 0 1.088 1.088 0 01-2.176 0zm-8.95 11.572a1.088 1.088 0 110-1.539 1.08 1.08 0 010 1.539zm-.38 8.504a1.089 1.089 0 11-1.54-1.54 1.089 1.089 0 011.54 1.54zm.38 8.504a1.089 1.089 0 11-1.548-1.531 1.089 1.089 0 011.549 1.53zm11.127 10.032a1.087 1.087 0 11-2.175-.001 1.087 1.087 0 012.175.001zm8.189 1.15a1.089 1.089 0 11-1.539-1.54 1.089 1.089 0 011.538 1.54zm8.826-1.15a1.087 1.087 0 11-2.174-.001 1.087 1.087 0 012.174.001zm3.188-8.527a2 2 0 01-2 2h-21.48a2 2 0 01-2.001-2V12.31a2 2 0 012-2h21.48a2 2 0 012 2v21.47zm5.761-3.044a1.089 1.089 0 111.54 1.54 1.089 1.089 0 01-1.54-1.54zm-10.231-9.479l-1.422-.137a6.95 6.95 0 00-.703-1.664l.902-1.087a.536.536 0 00-.032-.718l-1.691-1.708a.536.536 0 00-.723-.036l-1.091.904a7.193 7.193 0 00-1.665-.702l-.137-1.42a.539.539 0 00-.534-.488h-2.425a.539.539 0 00-.533.488l-.137 1.418a6.963 6.963 0 00-1.668.7l-1.088-.9a.536.536 0 00-.72.033l-1.713 1.708a.536.536 0 00-.034.72l.903 1.09a7.202 7.202 0 00-.702 1.662l-1.424.137a.536.536 0 00-.486.533v2.421c0 .276.21.507.486.534l1.422.137c.16.583.397 1.142.702 1.664l-.901 1.087a.535.535 0 00.034.721l1.712 1.708c.195.195.508.21.72.033l1.091-.904c.523.303 1.083.54 1.665.702l.137 1.42a.54.54 0 00.534.488h2.426a.539.539 0 00.533-.488l.137-1.418a6.966 6.966 0 001.668-.7l1.088.9a.536.536 0 00.72-.033l1.713-1.708a.536.536 0 00.034-.721l-.903-1.09c.303-.522.538-1.08.702-1.662l1.404-.137a.536.536 0 00.484-.533v-2.42a.536.536 0 00-.485-.534zm-.587 2.469l-1.295.126a.537.537 0 00-.472.417 6.154 6.154 0 01-.858 2.029.535.535 0 00.036.634l.836 1.009-1.02 1.018-1.01-.836a.536.536 0 00-.638-.035 5.908 5.908 0 01-2.026.852.54.54 0 00-.421.475l-.127 1.315h-1.453l-.127-1.315a.538.538 0 00-.422-.474 6.123 6.123 0 01-2.03-.856.537.537 0 00-.633.038l-1.01.836-1.02-1.018.836-1.009a.535.535 0 00.034-.638 5.904 5.904 0 01-.855-2.023.537.537 0 00-.473-.419l-1.316-.127v-1.448l1.316-.127a.536.536 0 00.472-.417c.162-.723.453-1.41.858-2.03a.535.535 0 00-.036-.634l-.836-1.008 1.02-1.018 1.01.836c.182.151.44.165.638.035a5.908 5.908 0 012.026-.852.54.54 0 00.421-.476l.127-1.314h1.453l.127 1.314a.537.537 0 00.422.474c.723.16 1.412.45 2.031.857.197.126.452.11.632-.038l1.007-.835 1.005 1.014-.839 1.01a.536.536 0 00-.033.64c.409.614.699 1.3.855 2.023.05.227.24.397.473.419l1.315.127v1.449zM22.994 18.6c-.88 0-.88.942-.88 2.103v1.954c0 1.161 0 2.103.88 2.103s.88-.942.88-2.103v-1.954c0-1.161 0-2.103-.88-2.103zm-.02 7.04a.86.86 0 00-.86.86v.003a.86.86 0 10.86-.863z"/></mask><path fill-rule="evenodd" clip-rule="evenodd" d="M40.471 23.609a2.307 2.307 0 004.451-1.2 2.305 2.305 0 00-4.45-.017h-3.47v-3.13h1.615a.662.662 0 00.645-.632v-3.54h.83c.11.386.314.74.592 1.029a2.304 2.304 0 003.257-3.258c-.899-.899-2.357-.9-3.257-.002a2.417 2.417 0 00-.592 1.014h-1.475c-.337 0-.572.287-.572.623v3.55H37v-5.769c0-1.773-1.456-3.184-3.23-3.184h-5.988v-1.13h3.725c.336 0 .623-.236.623-.572V5.916c.382-.11.73-.314 1.014-.592a2.311 2.311 0 00-1.63-3.952 2.313 2.313 0 00-1.63 3.952c.289.279.642.482 1.028.592v.83H27.18c-.336 0-.615.309-.615.645v1.702h-2.957V5.535A2.308 2.308 0 0023 1a2.31 2.31 0 00-.609 4.535v3.558h-3.13V7.39a.662.662 0 00-.634-.645h-3.541v-.83a2.47 2.47 0 001.03-.592 2.299 2.299 0 10-3.261 0 2.42 2.42 0 001.013.592v1.475c0 .336.287.571.624.571h3.55v1.13h-5.727c-1.774 0-3.23 1.412-3.23 3.185v5.943h-1.13v-3.723c0-.337-.236-.624-.572-.624H5.908a2.417 2.417 0 00-.592-1.014 2.313 2.313 0 00-3.953 1.63 2.312 2.312 0 003.953 1.63c.278-.29.481-.643.592-1.029h.83v3.732c0 .335.309.615.645.615h1.702v2.955H5.53a2.305 2.305 0 100 1.217h3.556v3.13H7.383a.662.662 0 00-.646.632v3.54h-.829a2.468 2.468 0 00-.592-1.03 2.298 2.298 0 00-3.246 3.253c.895.896 2.347.9 3.246.008.278-.285.481-.633.592-1.014h1.475c.336 0 .572-.287.572-.624v-3.549h1.13v5.769c0 1.773 1.456 3.184 3.23 3.184h5.902v1.13h-3.725c-.336 0-.624.236-.624.572v1.474a2.42 2.42 0 00-1.014.592 2.311 2.311 0 001.63 3.953 2.314 2.314 0 001.631-3.953 2.466 2.466 0 00-1.029-.592v-.829h3.733c.336 0 .615-.309.615-.645v-1.702h2.957v3.558A2.308 2.308 0 0023 45a2.309 2.309 0 00.608-4.534v-3.558h3.131v1.702c.009.348.285.63.633.645h3.541v.83a2.47 2.47 0 00-1.029.591 2.297 2.297 0 003.255 3.247c.897-.895.9-2.348.006-3.247a2.418 2.418 0 00-1.014-.592V38.61c0-.336-.287-.572-.623-.572h-3.551v-1.13h5.814c1.774 0 3.23-1.411 3.23-3.184V27.78h1.044v3.723c0 .336.235.624.572.624h1.475c.11.38.314.73.592 1.014a2.314 2.314 0 102.523-3.768 2.314 2.314 0 00-2.523.508 2.46 2.46 0 00-.592 1.029h-.83v-3.732c0-.336-.31-.615-.645-.615H37V23.61h3.47zm1.456-1.378a1.088 1.088 0 111.538 1.539 1.088 1.088 0 01-1.539-1.539zm-.382-8.504a1.089 1.089 0 111.548 1.532 1.089 1.089 0 01-1.548-1.532zM30.419 3.694a1.088 1.088 0 112.176 0 1.088 1.088 0 01-2.176 0zm-8.189-1.15a1.088 1.088 0 111.54 1.54 1.088 1.088 0 01-1.54-1.54zm-8.826 1.15a1.088 1.088 0 112.176 0 1.088 1.088 0 01-2.176 0zm-8.95 11.572a1.088 1.088 0 110-1.539 1.08 1.08 0 010 1.539zm-.38 8.504a1.089 1.089 0 11-1.54-1.54 1.089 1.089 0 011.54 1.54zm.38 8.504a1.089 1.089 0 11-1.548-1.531 1.089 1.089 0 011.549 1.53zm11.127 10.032a1.087 1.087 0 11-2.175-.001 1.087 1.087 0 012.175.001zm8.189 1.15a1.089 1.089 0 11-1.539-1.54 1.089 1.089 0 011.538 1.54zm8.826-1.15a1.087 1.087 0 11-2.174-.001 1.087 1.087 0 012.174.001zm3.188-8.527a2 2 0 01-2 2h-21.48a2 2 0 01-2.001-2V12.31a2 2 0 012-2h21.48a2 2 0 012 2v21.47zm5.761-3.044a1.089 1.089 0 111.54 1.54 1.089 1.089 0 01-1.54-1.54zm-10.231-9.479l-1.422-.137a6.95 6.95 0 00-.703-1.664l.902-1.087a.536.536 0 00-.032-.718l-1.691-1.708a.536.536 0 00-.723-.036l-1.091.904a7.193 7.193 0 00-1.665-.702l-.137-1.42a.539.539 0 00-.534-.488h-2.425a.539.539 0 00-.533.488l-.137 1.418a6.963 6.963 0 00-1.668.7l-1.088-.9a.536.536 0 00-.72.033l-1.713 1.708a.536.536 0 00-.034.72l.903 1.09a7.202 7.202 0 00-.702 1.662l-1.424.137a.536.536 0 00-.486.533v2.421c0 .276.21.507.486.534l1.422.137c.16.583.397 1.142.702 1.664l-.901 1.087a.535.535 0 00.034.721l1.712 1.708c.195.195.508.21.72.033l1.091-.904c.523.303 1.083.54 1.665.702l.137 1.42a.54.54 0 00.534.488h2.426a.539.539 0 00.533-.488l.137-1.418a6.966 6.966 0 001.668-.7l1.088.9a.536.536 0 00.72-.033l1.713-1.708a.536.536 0 00.034-.721l-.903-1.09c.303-.522.538-1.08.702-1.662l1.404-.137a.536.536 0 00.484-.533v-2.42a.536.536 0 00-.485-.534zm-.587 2.469l-1.295.126a.537.537 0 00-.472.417 6.154 6.154 0 01-.858 2.029.535.535 0 00.036.634l.836 1.009-1.02 1.018-1.01-.836a.536.536 0 00-.638-.035 5.908 5.908 0 01-2.026.852.54.54 0 00-.421.475l-.127 1.315h-1.453l-.127-1.315a.538.538 0 00-.422-.474 6.123 6.123 0 01-2.03-.856.537.537 0 00-.633.038l-1.01.836-1.02-1.018.836-1.009a.535.535 0 00.034-.638 5.904 5.904 0 01-.855-2.023.537.537 0 00-.473-.419l-1.316-.127v-1.448l1.316-.127a.536.536 0 00.472-.417c.162-.723.453-1.41.858-2.03a.535.535 0 00-.036-.634l-.836-1.008 1.02-1.018 1.01.836c.182.151.44.165.638.035a5.908 5.908 0 012.026-.852.54.54 0 00.421-.476l.127-1.314h1.453l.127 1.314a.537.537 0 00.422.474c.723.16 1.412.45 2.031.857.197.126.452.11.632-.038l1.007-.835 1.005 1.014-.839 1.01a.536.536 0 00-.033.64c.409.614.699 1.3.855 2.023.05.227.24.397.473.419l1.315.127v1.449zM22.994 18.6c-.88 0-.88.942-.88 2.103v1.954c0 1.161 0 2.103.88 2.103s.88-.942.88-2.103v-1.954c0-1.161 0-2.103-.88-2.103zm-.02 7.04a.86.86 0 00-.86.86v.003a.86.86 0 10.86-.863z" fill="#fff"/><path d="M41.065 24.63l.142-.141-.142.141zm-.593-1.021l.192-.053-.04-.147h-.153v.2zm3.373 1.388l.1.173-.1-.173zm1.078-2.587l-.194.051.194-.051zm-2.219-1.714v.2-.2zm-2.233 1.696v.2h.153l.04-.147-.193-.053zm-3.47 0h-.2v.2h.2v-.2zm0-3.13v-.2h-.2v.2h.2zm1.616 0v.2h.005l-.005-.2zm.645-.632l.2.009v-.01h-.2zm0-3.54v-.2h-.2v.2h.2zm.83 0l.192-.055-.042-.145h-.15v.2zm.592 1.029l-.144.139.003.002.141-.141zm3.257-.002l.141.141-.141-.141zm0-3.256l-.142.142.142-.142zm-3.257-.002l-.141-.141-.002.001.143.14zm-.592 1.014v.2h.15l.042-.144-.192-.056zm-2.047 4.173v.2h.2v-.2h-.2zm-1.044 0h-.2v.2h.2v-.2zm-9.218-8.953h-.2v.2h.2v-.2zm0-1.13v-.2h-.2v.2h.2zm4.348-2.047l-.056-.192-.144.042v.15h.2zm1.014-.592l.14.143h.001l-.14-.143zm.509-2.521l.184-.077-.184.077zm-4.278 0l.185.076-.185-.076zm.508 2.521l-.14.142.002.002.138-.144zm1.03.592h.2v-.15l-.145-.042-.056.192zm0 .83v.2h.2v-.2h-.2zm-4.349 2.347v.2h.2v-.2h-.2zm-2.957 0h-.2v.2h.2v-.2zm0-3.558l-.052-.193-.148.04v.153h.2zm1.68-2.534l-.198.027L25.29 3zm-4.577 0l.198.027L20.711 3zm1.68 2.534h.2v-.153l-.147-.04-.053.193zm0 3.558v.2h.2v-.2h-.2zm-3.13 0h-.2v.2h.2v-.2zm0-1.702h.2v-.005l-.2.005zm-.634-.645l.01-.2h-.01v.2zm-3.541 0h-.2v.2h.2v-.2zm0-.83l-.055-.192-.145.042v.15h.2zm1.03-.592l.138.145.003-.004-.142-.14zm-.008-3.246l-.14.142.14-.142zm-3.247 0l.141.142-.141-.142zm-.007 3.246l-.142.141.002.002.14-.143zm1.014.592h.2v-.15l-.144-.042-.056.192zm4.175 2.046h.2v-.2h-.2v.2zm0 1.13v.2h.2v-.2h-.2zM9.085 18.22v.2h.2v-.2h-.2zm-1.13 0h-.2v.2h.2v-.2zm-2.047-4.347l-.192.056.042.144h.15v-.2zm-.592-1.014l.143-.14h-.002l-.141.14zm-2.522-.507l.076.185-.076-.185zm0 4.274l-.077.185.077-.185zm2.522-.507l.142.14.002-.002-.144-.138zm.592-1.029v-.2h-.15l-.042.145.192.055zm.83 0h.2v-.2h-.2v.2zm2.347 4.347h.2v-.2h-.2v.2zm0 2.955v.2h.2v-.2h-.2zm-3.556 0l-.193.053.04.147h.153v-.2zm-.594-1.021l-.142.141.142-.141zm-2.78-.367l.1.173-.1-.173zm-1.078 2.587l-.193.051.193-.051zm2.22 1.713l-.002.2.001-.2zm2.232-1.695v-.2h-.153l-.04.147.193.053zm3.556 0h.2v-.2h-.2v.2zm0 3.13v.2h.2v-.2h-.2zm-1.702 0v-.2h-.005l.005.2zm-.646.632l-.2-.009v.009h.2zm0 3.54v.2h.2v-.2h-.2zm-.829 0l-.192.055.041.145h.151v-.2zm-.592-1.03l.144-.138-.003-.003-.141.142zm-3.246.009l.142.14-.142-.14zm0 3.244l.142-.142-.142.142zm3.246.008l.14.141.003-.002-.143-.14zm.592-1.014v-.2h-.15l-.042.144.192.056zm2.047-4.173v-.2h-.2v.2h.2zm1.13 0h.2v-.2h-.2v.2zm9.132 8.953h.2v-.2h-.2v.2zm0 1.13v.2h.2v-.2h-.2zm-4.348 2.046l.055.192.145-.042v-.15h-.2zm-1.015.592l-.14-.143v.002l.14.142zm-.508 2.522l.185-.076-.185.076zm4.277 0l.185.076-.184-.076zm-.508-2.522l.141-.141-.002-.003-.139.145zm-1.029-.592h-.2v.151l.145.042.055-.193zm0-.829v-.2h-.2v.2h.2zm4.348-2.347v-.2h-.2v.2h.2zm2.957 0h.2v-.2h-.2v.2zm0 3.558l.053.193.147-.04v-.153h-.2zm-1.68 2.533l-.198.027.198-.027zm4.577 0l-.198-.027.198.027zm-1.68-2.533h-.2v.152l.148.04.052-.192zm0-3.558v-.2h-.2v.2h.2zm3.131 0h.2v-.2h-.2v.2zm0 1.702h-.2v.005l.2-.005zm.633.645l-.009.2h.01v-.2zm3.541 0h.2v-.2h-.2v.2zm0 .83l.056.192.145-.042v-.15h-.2zm-1.029.591l-.138-.144-.004.004.142.14zm.007 3.247l-.14.141.14-.141zm3.248 0l.14.141-.14-.141zm.006-3.247l.142-.14-.002-.003-.14.143zm-1.014-.592h-.2v.15l.144.042.056-.192zm-4.174-2.046h-.2v.2h.2v-.2zm0-1.13v-.2h-.2v.2h.2zM37 27.781v-.2h-.2v.2h.2zm1.044 0h.2v-.2h-.2v.2zm2.047 4.347l.192-.056-.042-.144h-.15v.2zm.592 1.014l-.143.14h.001l.142-.14zm2.523.507l-.076-.185.076.185zm0-4.275l.076-.185-.076.185zm-2.523.508l-.142-.141-.002.002.144.139zm-.592 1.029v.2h.15l.042-.145-.192-.055zm-.83 0h-.2v.2h.2v-.2zm-2.26-4.347h-.2v.2h.2v-.2zm0-2.955v-.2h-.2v.2h.2zm6.299-1.513l-.112.166.112-.166zm-1.375.135l.142.141-.142-.14zm1.775 1.186l-.184-.077.184.077zm-1.217.65l-.04.197.04-.197zm.115-10.627l.051-.193-.051.194zm-1.054.287l-.142-.14.142.14zm1.826.486l-.193.05v.001l.193-.051zm-.287 1.053l.14.142-.14-.142zm-1.535-.005l-.141.142.141-.142zM31.295 2.627l-.039-.196.04.196zm-.876 1.067l.2.001h-.2zm2.094-.416l-.185.077.185-.077zm-1.775 1.186l.141-.142-.141.142zm-6.969-1.92l-.141.141.141-.141zm-1.539 0l.141.142-.14-.142zm1.54 1.538l-.142-.141.141.141zm-1.54 0l.142-.141-.142.141zm-7.95-1.455l-.04-.196.04.196zm-.876 1.067l.2.001h-.2zm2.094-.416l-.185.077.185-.077zm-.401 1.32l-.111-.165.11.166zm-1.375-.134l.142-.142-.142.142zM2.916 15.265l.142-.141-.142.141zm1.539 0l-.14-.142-.002.001.142.142zm-1.539-1.537l.142.141-.142-.141zm1.539-.001l-.142.142h.001l.14-.142zM2.699 23.905l.111-.167-.111.167zm1.374-.135l.142.141-.142-.141zm-1.775-1.186l-.184-.077.184.077zm1.103 9.976l-.052.194.052-.194zm1.054-.286l-.143-.141.143.14zm-1.826-.486l.193-.051-.193.051zm.286-1.053l-.14-.142.14.142zm1.535.004l.142-.141-.142.141zm10.255 12.633l-.04-.196.04.196zm.876-1.066h-.2.2zm-2.093.416l-.185.076.185-.076zm.4-1.32l-.11-.166.11.166zm1.374.135l-.142.142.142-.142zm6.969 1.92l-.141.14.141-.14zm1.538 0l.142.141-.142-.141zm-1.538-1.538l-.141-.142.141.142zm1.538 0l.142-.142-.142.141zm7.952 1.453l-.04-.196.04.196zm.875-1.066h.2v-.2h-.2v.2zm-2.092.416l-.185.076.185-.076zm.4-1.32l-.11-.166.11.166zm1.374.135l-.142.142.142-.142zm.318.77l-.2-.001v.2h.2v-.2zm10.488-11.572l.142-.142-.142.142zm-1.539 0l.14.142h.001l-.141-.142zm1.54 1.539l.14.141-.14-.141zm-1.54 0l.141-.142-.141.142zM29.892 21.119l-.193.053.037.133.137.013.019-.199zm1.422.137l-.02.2.02-.2zm-2.125-1.801l-.154-.128-.09.108.072.121.172-.101zm.902-1.087l-.154-.128.154.128zm-.032-.718l.142-.141-.142.14zm-1.691-1.708l-.142.14.142-.14zm-.723-.036l.128.154-.128-.154zm-1.091.904l-.1.173.12.07.108-.09-.128-.153zm-1.665-.702l-.2.019.014.136.132.037.054-.192zm-.137-1.42l-.2.019.2-.02zm-.534-.488l.001-.2v.2zm-2.425 0V14v.2zm-.533.488l.199.019-.2-.02zm-.137 1.418l.052.192.133-.036.014-.137-.2-.02zm-1.668.7l-.128.155.108.089.12-.07-.1-.174zm-1.088-.9l.127-.155-.127.154zm-.72.033l.14.141-.14-.141zm-1.713 1.708l-.141-.142.141.142zm-.034.72l-.154.128.154-.127zm.903 1.09l.174.1.07-.12-.09-.108-.154.128zm-.702 1.662l.02.199.136-.013.037-.132-.193-.054zm-1.424.137l.02.2-.02-.2zm-.486.533h-.2.2zm0 2.421h-.2.2zm.486.534l.019-.2-.02.2zm1.422.137l.192-.053-.036-.132-.137-.014-.02.2zm.702 1.664l.154.128.09-.108-.071-.12-.173.1zm-.901 1.087l-.154-.128.154.128zm.034.721l.141-.142-.141.142zm1.712 1.708l.141-.142-.141.142zm.72.033l-.127-.154.127.154zm1.091-.904l.1-.173-.12-.07-.107.089.128.154zm1.665.702l.2-.02-.014-.136-.132-.037-.054.193zm.137 1.42l.2-.018-.2.018zm.534.488v.2-.2zm2.426 0v.2h.001l-.001-.2zm.533-.488l-.2-.019.2.02zm.137-1.418l-.053-.193-.133.037-.013.137.2.02zm1.668-.7l.128-.155-.108-.089-.12.07.1.173zm1.088.9l-.127.154.127-.154zm.72-.033l-.14-.142.14.142zm1.713-1.708l.141.142-.141-.142zm.034-.721l-.154.128.154-.128zm-.903-1.09l-.173-.1-.07.121.089.107.154-.127zm.702-1.662l-.02-.199-.135.014-.037.131.192.055zm1.404-.137l-.02-.199.02.2zm.484-.533h.2-.2zm0-2.42h.2-.2zm-2.367 2.061l-.02-.199.02.199zm1.295-.126l.02.199.18-.018v-.181h-.2zm-1.767.543l.196.044-.196-.044zm-.858 2.029l-.167-.11.167.11zm.036.634l.154-.127-.154.127zm.836 1.009l.142.141.129-.128-.117-.14-.154.127zm-1.02 1.018l-.128.154.14.116.129-.128-.142-.142zm-1.01-.836l-.128.154.128-.154zm-.638-.035l-.11-.167.11.167zm-2.026.852l-.042-.196h-.001l.043.196zm-.421.475l.199.02-.2-.02zm-.127 1.315v.2h.182l.017-.181-.199-.02zm-1.453 0l-.198.019.017.18h.181v-.2zm-.127-1.315l-.199.02.2-.02zm-.422-.474l-.043.196h.001l.043-.196zm-2.03-.856l.109-.167-.002-.002-.108.169zm-.633.038l.128.154-.128-.154zm-1.01.836l-.14.142.128.128.14-.116-.128-.154zm-1.02-1.018l-.154-.128-.117.14.13.13.14-.142zm.836-1.009l-.154-.127.154.127zm.034-.638l.166-.11-.166.11zm-.855-2.023l.195-.042-.195.042zm-.473-.419l-.02.2.02-.2zm-1.316-.127h-.2v.182l.18.017.02-.199zm0-1.448l-.02-.2-.18.018v.182h.2zm1.316-.127l.02.199-.02-.2zm.472-.417l-.195-.044.195.044zm.858-2.03l.168.11-.168-.11zm-.036-.634l-.154.128.154-.128zm-.836-1.008l-.142-.142-.129.13.117.14.154-.128zm1.02-1.018l.128-.155-.14-.116-.129.129.141.142zm1.01.836l.128-.154-.128.154zm.638.035l.11.167-.11-.167zm2.026-.852l.042.195h.001l-.043-.195zm.421-.476l-.199-.019.2.02zm.127-1.314v-.2h-.181l-.017.181.198.02zm1.453 0l.199-.019-.017-.18h-.182v.2zm.127 1.314l.2-.019-.2.02zm.422.474l.043-.195h-.001l-.042.195zm2.031.857l-.11.167.002.001.108-.168zm.632-.038l.128.154-.128-.154zm1.007-.835l.142-.14-.129-.13-.14.116.127.154zm1.005 1.014l.154.128.115-.14-.127-.129-.142.141zm-.839 1.01l-.154-.127.154.128zm-.033.64l-.167.11.167-.11zm.855 2.023l-.196.042.196-.042zm.473.419l-.02.2.02-.2zm1.315.127h.2v-.182l-.18-.017-.02.199zm10.48 2.213a2.095 2.095 0 01-.543-.933l-.386.106c.115.42.338.803.646 1.11l.282-.283zm2.538.335a2.107 2.107 0 01-2.538-.335l-.283.283c.801.8 2.04.963 3.02.398l-.199-.346zm.984-2.363c.245.92-.159 1.888-.984 2.363l.2.346a2.503 2.503 0 001.171-2.812l-.387.103zm-2.026-1.565a2.105 2.105 0 012.026 1.565l.387-.103a2.505 2.505 0 00-2.411-1.862l-.002.4zm-2.039 1.549a2.105 2.105 0 012.04-1.549v-.4a2.505 2.505 0 00-2.425 1.843l.385.106zm-3.663.147h3.47v-.4h-3.47v.4zm-.2-3.33v3.13h.4v-3.13h-.4zm1.816-.2H37v.4h1.616v-.4zm.445-.441a.462.462 0 01-.45.442l.01.4a.862.862 0 00.84-.824l-.4-.018zm0-3.53v3.539h.4v-3.54h-.4zm1.03-.2h-.83v.4h.83v-.4zm.736 1.09a2.264 2.264 0 01-.544-.946l-.384.11c.12.418.339.8.64 1.113l.288-.278zm2.971-.006a2.105 2.105 0 01-2.974.002l-.282.283a2.505 2.505 0 003.54-.002l-.283-.283zm0-2.972c.821.82.821 2.151 0 2.972l.283.283a2.502 2.502 0 000-3.538l-.282.283zM40.826 13a2.105 2.105 0 012.974.002l.283-.283a2.505 2.505 0 00-3.54-.002l.283.283zm-.541.928c.102-.35.288-.67.543-.93l-.286-.28c-.3.308-.521.685-.641 1.099l.384.111zm-1.667.144h1.475v-.4h-1.475v.4zm-.372.423c0-.249.168-.423.372-.423v-.4c-.469 0-.772.4-.772.823h.4zm0 3.55v-3.55h-.4v3.55h.4zm-1.244.2h1.044v-.4H37v.4zm-.2-5.969v5.769h.4v-5.769h-.4zm-3.03-2.984c1.668 0 3.03 1.325 3.03 2.984h.4c0-1.887-1.549-3.384-3.43-3.384v.4zm-5.988 0h5.988v-.4h-5.988v.4zm-.2-1.33v1.13h.4v-1.13h-.4zm3.925-.2h-3.725v.4h3.725v-.4zm.423-.372c0 .203-.175.371-.423.371v.4c.423 0 .823-.303.823-.771h-.4zm0-1.475v1.475h.4V5.916h-.4zm1.075-.735c-.261.255-.58.441-.93.543l.11.384c.414-.12.791-.34 1.1-.64l-.28-.287zm.463-2.302c.326.79.143 1.7-.465 2.303l.282.284c.723-.717.94-1.799.553-2.74l-.37.153zm-1.954-1.307c.856 0 1.627.516 1.954 1.307l.37-.153a2.514 2.514 0 00-2.324-1.554v.4zM29.56 2.879a2.113 2.113 0 011.954-1.307v-.4a2.513 2.513 0 00-2.323 1.554l.37.153zm.464 2.303a2.111 2.111 0 01-.464-2.303l-.37-.153c-.388.941-.17 2.023.552 2.74l.282-.284zm.944.542a2.265 2.265 0 01-.946-.544l-.277.288c.313.301.695.521 1.112.64l.11-.384zm.145 1.022v-.83h-.4v.83h.4zm-3.934.2h3.733v-.4H27.18v.4zm-.415.445c0-.238.202-.445.415-.445v-.4c-.458 0-.815.41-.815.845h.4zm0 1.702V7.39h-.4v1.702h.4zm-3.157.2h2.957v-.4h-2.957v.4zm-.2-3.758v3.558h.4V5.535h-.4zm1.682-2.507a2.108 2.108 0 01-1.534 2.314l.105.386a2.508 2.508 0 001.826-2.753l-.396.053zM23 1.2a2.11 2.11 0 012.09 1.828l.397-.053A2.509 2.509 0 0023 .8v.4zm-2.091 1.828a2.11 2.11 0 012.09-1.828V.8a2.51 2.51 0 00-2.486 2.175l.396.053zm1.535 2.314a2.108 2.108 0 01-1.535-2.314l-.396-.053a2.508 2.508 0 001.825 2.753l.106-.386zm.147 3.75V5.536h-.4v3.558h.4zm-3.33.2h3.13v-.4h-3.13v.4zm-.2-1.901v1.702h.4V7.39h-.4zm-.442-.446c.242.011.435.208.441.45l.4-.01a.862.862 0 00-.824-.84l-.017.4zm-3.533 0h3.541v-.4h-3.541v.4zm-.2-1.029v.83h.4v-.83h-.4zm1.09-.736a2.269 2.269 0 01-.945.544l.11.385c.418-.12.8-.34 1.113-.64l-.277-.29zm-.009-2.96c.82.817.822 2.143.006 2.963l.284.282a2.497 2.497 0 00-.007-3.529l-.283.284zm-2.965 0a2.099 2.099 0 012.965 0l.283-.283a2.499 2.499 0 00-3.53 0l.282.283zm-.006 2.963a2.097 2.097 0 01.006-2.963l-.282-.284a2.497 2.497 0 00-.008 3.53l.284-.283zm.928.541a2.219 2.219 0 01-.93-.543l-.28.286c.308.301.686.521 1.099.641l.111-.384zm.145 1.667V5.916h-.4v1.475h.4zm.423.371c-.25 0-.424-.168-.424-.371h-.4c0 .468.4.771.824.771v-.4zm3.55 0h-3.55v.4h3.55v-.4zm.2 1.33v-1.13h-.4v1.13h.4zm-5.927.2h5.728v-.4h-5.728v.4zm-3.03 2.985c0-1.66 1.363-2.984 3.03-2.984v-.4c-1.88 0-3.43 1.497-3.43 3.384h.4zm0 5.943v-5.943h-.4v5.943h.4zm-1.33.2h1.13v-.4h-1.13v.4zm-.2-3.924v3.724h.4v-3.723h-.4zm-.372-.423c.204 0 .372.175.372.423h.4c0-.423-.304-.823-.772-.823v.4zm-1.475 0h1.475v-.4H5.908v.4zM5.173 13c.255.26.441.58.543.93l.384-.111c-.12-.414-.34-.79-.641-1.099l-.286.28zm-2.303-.462A2.113 2.113 0 015.174 13l.283-.282a2.513 2.513 0 00-2.74-.55l.153.37zM1.563 14.49c0-.855.516-1.626 1.307-1.952l-.152-.37a2.511 2.511 0 00-1.555 2.322h.4zm1.307 1.952a2.112 2.112 0 01-1.307-1.952h-.4c0 1.017.614 1.934 1.554 2.322l.153-.37zm2.304-.463a2.113 2.113 0 01-2.304.463l-.152.37c.94.388 2.022.17 2.74-.551l-.284-.282zm.542-.943c-.102.355-.289.68-.544.945l.288.277c.3-.312.52-.695.64-1.112l-.384-.11zm1.021-.145h-.829v.4h.83v-.4zm.2 3.932V15.09h-.4v3.732h.4zm.446.415c-.238 0-.446-.202-.446-.415h-.4c0 .458.412.815.846.815v-.4zm1.702 0H7.383v.4h1.702v-.4zm.2 3.155v-2.955h-.4v2.955h.4zm-3.756.2h3.556v-.4H5.53v.4zm-.736-1.08c.26.258.447.58.543.933l.386-.105a2.488 2.488 0 00-.646-1.111l-.282.284zm-2.538-.335a2.105 2.105 0 012.538.335l.283-.283a2.505 2.505 0 00-3.02-.398l.199.346zM1.27 23.54c-.244-.92.159-1.888.984-2.363l-.2-.346a2.503 2.503 0 00-1.171 2.811l.387-.102zm2.026 1.564A2.105 2.105 0 011.27 23.54l-.387.102a2.505 2.505 0 002.411 1.862l.002-.4zm2.039-1.548a2.105 2.105 0 01-2.04 1.548v.4a2.505 2.505 0 002.426-1.842l-.386-.106zm3.75-.147H5.528v.4h3.556v-.4zm.2 3.33v-3.13h-.4v3.13h.4zm-1.903.2h1.702v-.4H7.383v.4zm-.446.44a.462.462 0 01.45-.44l-.009-.4a.862.862 0 00-.84.823l.4.018zm0 3.532v-3.54h-.4v3.54h.4zm-1.029.2h.83v-.4h-.83v.4zm-.737-1.09c.256.266.443.59.545.945l.384-.11c-.12-.418-.34-.8-.64-1.113l-.289.277zm-2.96.01a2.098 2.098 0 012.964-.007l.282-.284a2.498 2.498 0 00-3.528.008l.283.283zm0 2.961a2.096 2.096 0 010-2.961l-.282-.283a2.496 2.496 0 000 3.527l.283-.283zM5.176 33a2.098 2.098 0 01-2.963-.008l-.283.283c.972.974 2.55.979 3.528.008L5.175 33zm.541-.928c-.102.35-.288.669-.543.93l.286.28c.3-.308.52-.686.641-1.098l-.384-.112zm1.667-.144H5.908v.4h1.475v-.4zm.372-.424c0 .25-.168.424-.372.424v.4c.468 0 .772-.4.772-.824h-.4zm0-3.549v3.55h.4v-3.55h-.4zm1.33-.2h-1.13v.4h1.13v-.4zm.2 5.969v-5.769h-.4v5.769h.4zm3.03 2.985c-1.667 0-3.03-1.326-3.03-2.986h-.4c0 1.888 1.55 3.386 3.43 3.386v-.4zm5.902 0h-5.902v.4h5.902v-.4zm.2 1.33v-1.13h-.4v1.13h.4zm-3.925.2h3.725v-.4h-3.725v.4zm-.424.371c0-.203.175-.371.424-.371v-.4c-.423 0-.824.302-.824.771h.4zm0 1.474V38.61h-.4v1.474h.4zm-1.074.736c.26-.255.58-.442.93-.544l-.111-.384c-.413.12-.79.34-1.099.641l.28.287zm-.463 2.302c-.326-.791-.143-1.7.464-2.304l-.282-.283a2.511 2.511 0 00-.552 2.74l.37-.153zm1.954 1.307a2.113 2.113 0 01-1.954-1.307l-.37.152a2.513 2.513 0 002.324 1.555v-.4zm1.954-1.307a2.114 2.114 0 01-1.954 1.307v.4a2.514 2.514 0 002.323-1.555l-.37-.152zm-.465-2.304c.608.603.79 1.513.465 2.304l.37.152c.387-.94.17-2.022-.553-2.74l-.282.284zm-.943-.541c.355.101.68.288.946.544l.277-.289a2.665 2.665 0 00-1.113-.64l-.11.385zm-.145-1.022v.83h.4v-.83h-.4zm3.933-.2h-3.733v.4h3.733v-.4zm.415-.445c0 .238-.201.446-.415.446v.4c.459 0 .815-.412.815-.846h-.4zm0-1.702v1.702h.4v-1.702h-.4zm3.157-.2h-2.957v.4h2.957v-.4zm.2 3.758v-3.558h-.4v3.558h.4zm-1.682 2.506a2.108 2.108 0 011.535-2.313l-.106-.386a2.508 2.508 0 00-1.825 2.753l.396-.054zM23 44.8a2.109 2.109 0 01-2.09-1.828l-.396.054A2.509 2.509 0 0023 45.2v-.4zm2.091-1.828A2.108 2.108 0 0123 44.8v.4c1.256 0 2.32-.93 2.487-2.174l-.397-.054zm-1.534-2.313a2.108 2.108 0 011.534 2.313l.397.054a2.508 2.508 0 00-1.826-2.753l-.105.386zm-.148-3.75v3.557h.4v-3.558h-.4zm3.331-.2h-3.13v.4h3.13v-.4zm.2 1.901v-1.702h-.4v1.702h.4zm.442.446a.462.462 0 01-.442-.45l-.4.009c.011.453.371.82.824.84l.018-.4zm3.532 0h-3.54v.4h3.54v-.4zm.2 1.028v-.829h-.4v.83h.4zm-1.09.737a2.27 2.27 0 01.946-.544l-.11-.385c-.418.12-.8.34-1.113.64l.277.289zm.01 2.96a2.097 2.097 0 01-.007-2.963l-.284-.282a2.497 2.497 0 00.008 3.528l.283-.283zm2.964 0a2.1 2.1 0 01-2.964 0l-.283.283a2.5 2.5 0 003.53 0l-.283-.283zm.007-2.963c.816.82.813 2.146-.007 2.963l.283.283a2.497 2.497 0 00.007-3.529l-.283.283zm-.929-.542c.35.102.67.289.93.544l.28-.287c-.308-.3-.685-.52-1.098-.64l-.112.383zm-.144-1.666v1.474h.4V38.61h-.4zm-.423-.371c.249 0 .423.167.423.371h.4c0-.469-.4-.771-.823-.771v.4zm-3.551 0h3.55v-.4h-3.55v.4zm-.2-1.33v1.13h.4v-1.13h-.4zm6.014-.2h-5.814v.4h5.814v-.4zm3.03-2.986c0 1.66-1.362 2.986-3.03 2.986v.4c1.881 0 3.43-1.498 3.43-3.386h-.4zm0-5.942v5.943h.4V27.78h-.4zm1.244-.2H37v.4h1.044v-.4zm.2 3.923v-3.723h-.4v3.723h.4zm.372.424c-.204 0-.372-.175-.372-.424h-.4c0 .424.303.824.772.824v-.4zm1.475 0h-1.475v.4h1.475v-.4zm.735 1.074a2.218 2.218 0 01-.543-.93l-.384.112c.12.412.34.79.641 1.097l.286-.28zm2.304.462a2.114 2.114 0 01-2.305-.463l-.284.282c.718.721 1.8.94 2.741.551l-.152-.37zm1.307-1.952c0 .855-.516 1.626-1.307 1.952l.152.37a2.512 2.512 0 001.555-2.322h-.4zm-1.307-1.953a2.112 2.112 0 011.307 1.953h.4a2.512 2.512 0 00-1.555-2.323l-.152.37zm-2.305.464a2.114 2.114 0 012.305-.464l.152-.37a2.514 2.514 0 00-2.74.552l.283.282zm-.542.943a2.26 2.26 0 01.544-.946l-.288-.277a2.66 2.66 0 00-.64 1.113l.384.11zm-1.022.145h.83v-.4h-.83v.4zm-.2-3.932v3.732h.4v-3.732h-.4zm-.445-.415c.238 0 .445.202.445.415h.4c0-.459-.412-.815-.845-.815v.4zm-1.616 0h1.616v-.4H37v.4zm-.2-3.155v2.955h.4V23.61h-.4zm3.67-.2h-3.47v.4h3.47v-.4zm2.94-1.48a1.288 1.288 0 00-1.626.16l.283.284c.3-.3.769-.346 1.121-.11l.223-.333zm.475 1.564a1.287 1.287 0 00-.474-1.563l-.222.332c.352.236.489.687.327 1.078l.37.153zm-1.441.77a1.289 1.289 0 001.441-.77l-.37-.153a.889.889 0 01-.993.531l-.078.393zM41.407 23c0 .615.435 1.144 1.038 1.264l.078-.393a.888.888 0 01-.716-.87h-.4zm.378-.91c-.242.241-.377.569-.377.91h.4c0-.235.093-.46.26-.628l-.283-.282zm.865-8.843a1.289 1.289 0 00-1.247.34l.284.28a.89.89 0 01.86-.233l.103-.387zm.914.914a1.288 1.288 0 00-.914-.914l-.103.387a.888.888 0 01.63.63l.387-.103zm-.34 1.247c.33-.325.459-.8.34-1.247l-.386.103a.888.888 0 01-.234.86l.28.284zm-1.816-.005c.501.5 1.313.503 1.817.005l-.281-.284a.889.889 0 01-1.253-.004l-.283.283zm-.005-1.817a1.288 1.288 0 00.005 1.817l.283-.283a.888.888 0 01-.004-1.252l-.284-.282zM31.256 2.431a1.288 1.288 0 00-1.037 1.263h.4c0-.423.3-.788.715-.87l-.078-.393zm1.442.77a1.288 1.288 0 00-1.442-.77l.078.392a.888.888 0 01.994.532l.37-.153zm-.475 1.564c.512-.341.71-.996.475-1.564l-.37.154a.888.888 0 01-.327 1.078l.222.332zm-1.626-.16a1.29 1.29 0 001.626.16l-.222-.332a.89.89 0 01-1.122-.11l-.282.282zm-.378-.911c0 .342.135.67.378.912l.282-.284a.88.88 0 01-.26-.627l-.4-.001zm-6.308-1.292a1.289 1.289 0 00-1.822 0l.283.283a.888.888 0 011.256 0l.283-.283zm0 1.822a1.287 1.287 0 000-1.822l-.283.283a.887.887 0 010 1.256l.282.283zm-1.822 0a1.289 1.289 0 001.822 0l-.283-.283a.888.888 0 01-1.256 0l-.283.283zm-.379-.91c0 .341.136.67.38.91l.281-.284a.883.883 0 01-.261-.627h-.4zm.38-.912c-.244.241-.38.57-.38.911h.4c0-.235.094-.461.261-.627l-.282-.284zm-7.85.029a1.288 1.288 0 00-1.036 1.263h.4c0-.423.299-.788.715-.87l-.078-.393zm1.442.77a1.288 1.288 0 00-1.441-.77l.078.392a.888.888 0 01.994.532l.37-.153zm-.474 1.564c.511-.341.71-.996.474-1.564l-.37.154a.887.887 0 01-.326 1.078l.222.332zm-1.627-.16a1.29 1.29 0 001.627.16l-.222-.332a.89.89 0 01-1.122-.11l-.283.282zm-.377-.911c-.002.342.135.67.377.912l.282-.284a.88.88 0 01-.26-.627l-.4-.001zM2.774 15.407a1.288 1.288 0 001.822 0l-.283-.283a.888.888 0 01-1.255 0l-.283.283zm.001-1.82a1.287 1.287 0 000 1.82l.283-.283a.887.887 0 010-1.255l-.283-.283zm1.82-.002a1.288 1.288 0 00-1.82.001l.283.283a.888.888 0 011.255 0l.283-.284zm.382.911c0-.342-.138-.67-.382-.911l-.28.284a.88.88 0 01.262.627h.4zm-.382.912c.244-.24.382-.569.382-.912h-.4a.88.88 0 01-.263.627l.28.285zm-2.007 8.663a1.288 1.288 0 001.627-.16l-.283-.283c-.3.3-.77.346-1.122.11l-.222.333zm-.474-1.564a1.288 1.288 0 00.474 1.564l.222-.333a.888.888 0 01-.327-1.078l-.37-.153zm1.441-.77a1.289 1.289 0 00-1.441.77l.37.153a.889.889 0 01.993-.53l.078-.393zm1.037 1.264c0-.615-.434-1.144-1.037-1.264l-.078.393a.888.888 0 01.715.87h.4zm-.377.91c.241-.242.377-.57.377-.91h-.4a.889.889 0 01-.26.627l.283.283zm-.866 8.843c.447.118.923-.011 1.248-.34l-.285-.28a.889.889 0 01-.86.233l-.103.387zm-.914-.915c.119.447.468.796.914.915l.103-.387a.889.889 0 01-.63-.63l-.387.102zm.34-1.246c-.329.324-.458.8-.34 1.247l.387-.103a.888.888 0 01.234-.86l-.281-.284zm1.817.005a1.289 1.289 0 00-1.817-.005l.28.284a.889.889 0 011.254.004l.283-.283zm.005 1.816a1.288 1.288 0 00-.005-1.816l-.283.283a.888.888 0 01.003 1.252l.285.281zm10.147 11.154a1.287 1.287 0 001.037-1.261h-.4c0 .422-.3.787-.715.869l.078.392zm-1.44-.77c.235.568.838.89 1.44.77l-.078-.392a.888.888 0 01-.993-.53l-.37.153zm.473-1.562c-.51.341-.709.995-.474 1.563l.37-.154A.887.887 0 0114 41.568l-.223-.332zm1.626.16a1.288 1.288 0 00-1.626-.16l.223.333a.888.888 0 011.12.11l.283-.283zm.378.91c0-.341-.136-.67-.379-.91l-.281.283a.88.88 0 01.26.627h.4zm6.309 1.292a1.289 1.289 0 001.82 0l-.282-.283a.889.889 0 01-1.256 0l-.282.283zm0-1.82a1.287 1.287 0 000 1.82l.282-.283a.887.887 0 010-1.255l-.282-.283zm1.82-.001a1.289 1.289 0 00-1.82 0l.282.283a.889.889 0 011.256 0l.283-.283zm.001 1.821a1.289 1.289 0 000-1.821l-.283.282a.89.89 0 010 1.257l.283.282zm7.849-.03a1.288 1.288 0 001.037-1.261h-.4c0 .422-.3.787-.715.869l.078.392zm-1.44-.77c.234.568.838.89 1.44.77l-.078-.392a.888.888 0 01-.993-.53l-.37.153zm.473-1.562c-.51.341-.709.995-.474 1.563l.37-.154a.887.887 0 01.326-1.077l-.222-.332zm1.626.16a1.288 1.288 0 00-1.626-.16l.222.333a.888.888 0 011.121.11l.283-.283zm.377.91c0-.341-.135-.67-.378-.91l-.281.283a.88.88 0 01.26.627h.4zm-.2-.2v.4-.4zm1.187-6.128a2.2 2.2 0 002.2-2.199h-.4a1.8 1.8 0 01-1.8 1.8v.4zm-21.48 0h21.48v-.4h-21.48v.4zm-2.2-2.199a2.2 2.2 0 002.2 2.2v-.4a1.8 1.8 0 01-1.8-1.8h-.4zm0-21.47v21.47h.4V12.31h-.4zm2.2-2.2a2.2 2.2 0 00-2.2 2.2h.4a1.8 1.8 0 011.8-1.8v-.4zm21.48 0h-21.48v.4h21.48v-.4zm2.2 2.2a2.2 2.2 0 00-2.2-2.2v.4a1.8 1.8 0 011.8 1.8h.4zm0 21.47V12.31h-.4v21.47h.4zm7.243-3.186a1.289 1.289 0 00-1.822 0l.282.283a.889.889 0 011.257 0l.283-.283zm0 1.822a1.288 1.288 0 000-1.822l-.283.283a.887.887 0 010 1.256l.283.283zm-1.822 0a1.289 1.289 0 001.822 0l-.283-.283a.889.889 0 01-1.257 0l-.282.283zm-.38-.91c0 .342.137.67.38.91l.281-.284a.882.882 0 01-.262-.627h-.4zm.38-.913a1.28 1.28 0 00-.38.912h.4a.88.88 0 01.261-.627l-.28-.285zm-11.531-9.274l1.422.137.038-.398-1.422-.137-.038.398zm-.856-1.762c.296.507.526 1.05.682 1.616l.386-.106a7.149 7.149 0 00-.723-1.712l-.345.202zm.92-1.316l-.902 1.087.308.256.902-1.087-.308-.256zm-.02-.45c.121.123.13.318.02.45l.308.256a.736.736 0 00-.044-.987l-.284.281zm-1.691-1.708l1.691 1.708.284-.281L28.51 15.8l-.284.281zm-.453-.022a.336.336 0 01.453.022l.284-.281a.736.736 0 00-.993-.05l.256.309zm-1.091.904l1.09-.904-.255-.308-1.09.904.255.308zm-1.847-.664c.566.159 1.11.388 1.619.683l.2-.346a7.39 7.39 0 00-1.711-.722l-.108.385zm-.282-1.593l.137 1.42.398-.039-.137-1.42-.398.039zm-.336-.307c.174 0 .32.133.336.307l.398-.039a.739.739 0 00-.732-.668l-.002.4zm-2.424 0h2.425V14h-2.425v.4zm-.334.307a.339.339 0 01.335-.307l-.002-.4a.739.739 0 00-.731.668l.398.039zm-.137 1.418l.137-1.418-.398-.039-.137 1.418.398.039zm-1.766.854a6.765 6.765 0 011.62-.68l-.106-.386c-.601.165-1.178.407-1.716.72l.202.346zm-1.317-.92l1.088.902.255-.308-1.088-.902-.255.308zm-.451.021a.336.336 0 01.451-.02l.255-.309a.736.736 0 00-.99.046l.284.283zm-1.712 1.708l1.712-1.708-.283-.283-1.712 1.708.283.283zm-.022.452a.336.336 0 01.022-.452l-.283-.283a.735.735 0 00-.047.99l.308-.255zm.904 1.09l-.904-1.09-.308.255.904 1.09.308-.256zm-.664 1.843a6.996 6.996 0 01.683-1.616l-.346-.2a7.403 7.403 0 00-.722 1.707l.385.109zm-1.598.283l1.424-.138-.038-.398-1.424.137.038.399zm-.305.334c0-.173.132-.318.305-.334l-.038-.399a.736.736 0 00-.667.732h.4zm0 2.42v-2.42h-.4v2.42h.4zm.305.334a.337.337 0 01-.305-.334h-.4c0 .38.29.696.667.733l.038-.399zm1.422.138l-1.422-.137-.038.398 1.421.137.039-.398zm.856 1.763a6.769 6.769 0 01-.683-1.617l-.385.107c.165.599.408 1.175.722 1.711l.346-.201zm-.92 1.315l.901-1.087-.308-.255-.901 1.086.308.256zm.021.451a.335.335 0 01-.021-.451l-.308-.256a.735.735 0 00.047.99l.282-.283zm1.712 1.708l-1.712-1.708-.282.284 1.712 1.708.282-.284zm.452.021a.336.336 0 01-.452-.02l-.282.282a.736.736 0 00.989.046l-.255-.308zm1.09-.904l-1.09.904.255.308 1.091-.904-.255-.308zm1.847.663a6.98 6.98 0 01-1.618-.682l-.2.346a7.383 7.383 0 001.71.722l.108-.386zm.283 1.594l-.138-1.42-.398.038.137 1.42.399-.038zm.335.307a.34.34 0 01-.335-.306l-.399.037a.74.74 0 00.732.669l.002-.4zm2.425 0h-2.426v.4h2.426v-.4zm.334-.306a.339.339 0 01-.335.306l.002.4a.739.739 0 00.731-.668l-.398-.038zm.137-1.42l-.137 1.42.398.038.137-1.419-.398-.038zm1.767-.854a6.77 6.77 0 01-1.62.681l.105.386a7.174 7.174 0 001.716-.721l-.201-.346zm1.316.92l-1.088-.9-.255.307 1.088.901.255-.308zm.452-.02a.336.336 0 01-.452.02l-.255.308a.736.736 0 00.99-.046l-.283-.283zm1.712-1.709l-1.712 1.708.282.284 1.712-1.708-.282-.284zm.02-.451c.112.133.102.329-.02.451l.282.284a.735.735 0 00.047-.99l-.308.255zm-.902-1.09l.903 1.09.308-.256-.903-1.089-.308.255zm.664-1.844a7.015 7.015 0 01-.683 1.616l.346.201c.311-.537.553-1.11.722-1.708l-.385-.109zm1.577-.282l-1.404.137.039.398 1.403-.137-.038-.398zm.303-.334a.336.336 0 01-.303.334l.038.398A.736.736 0 0032 24.21h-.4zm0-2.42v2.42h.4v-2.42h-.4zm-.304-.335a.336.336 0 01.304.335h.4c0-.38-.289-.697-.666-.733l-.038.398zM29.45 24.05l1.296-.126-.04-.398-1.294.126.038.398zm-.295.262a.337.337 0 01.296-.262l-.04-.398a.737.737 0 00-.647.572l.39.088zm-.887 2.095c.42-.64.72-1.35.887-2.095l-.39-.088a5.954 5.954 0 01-.831 1.963l.334.22zm.023.397a.335.335 0 01-.023-.398l-.335-.218a.735.735 0 00.05.871l.308-.255zm.836 1.008l-.836-1.008-.308.255.836 1.008.308-.255zM28.095 29.1l1.02-1.019-.282-.283-1.02 1.018.282.284zm-1.279-.824l1.01.836.255-.308-1.01-.836-.255.308zm-.4-.022a.336.336 0 01.4.022l.256-.308a.736.736 0 00-.876-.048l.22.334zm-2.094.88a6.114 6.114 0 002.095-.88l-.221-.334a5.711 5.711 0 01-1.958.823l.084.391zm-.264.3a.34.34 0 01.265-.3l-.086-.39a.74.74 0 00-.577.651l.398.039zm-.127 1.314l.127-1.314-.398-.039-.127 1.314.398.039zm-1.652.18h1.453v-.4h-1.453v.4zm-.326-1.494l.128 1.314.398-.039-.127-1.314-.399.039zm-.265-.298c.144.03.251.151.265.298l.399-.039a.738.738 0 00-.58-.65l-.084.39zm-2.098-.885c.64.42 1.35.72 2.097.885l.087-.39a5.925 5.925 0 01-1.965-.83l-.22.335zm-.395.025a.337.337 0 01.396-.024l.216-.336a.737.737 0 00-.867.052l.255.308zm-1.01.836l1.01-.836-.255-.308-1.01.836.255.308zm-1.29-1.03l1.021 1.018.283-.283-1.021-1.019-.283.284zm.824-1.278l-.837 1.008.308.255.837-1.008-.308-.255zm.021-.4a.335.335 0 01-.021.4l.308.255a.735.735 0 00.046-.877l-.333.222zm-.884-2.092c.162.747.461 1.456.884 2.092l.333-.222a5.703 5.703 0 01-.826-1.954l-.39.084zm-.296-.262c.145.014.265.12.296.263l.391-.086a.737.737 0 00-.65-.575l-.037.398zm-1.316-.127l1.316.127.038-.398-1.316-.127-.038.398zm-.18-1.647v1.448h.4v-1.448h-.4zm1.496-.326l-1.316.127.038.398 1.316-.127-.038-.398zm.296-.262a.336.336 0 01-.296.262l.038.398a.736.736 0 00.648-.573l-.39-.087zm.886-2.095a6.353 6.353 0 00-.886 2.095l.39.087a5.954 5.954 0 01.83-1.963l-.334-.219zm-.023-.397a.336.336 0 01.023.397l.335.219a.735.735 0 00-.05-.871l-.308.255zm-.836-1.008l.836 1.008.308-.255-.836-1.009-.308.256zm1.033-1.288l-1.02 1.018.282.284 1.02-1.019-.282-.283zm1.279.824l-1.01-.837-.255.308 1.01.837.255-.308zm.4.022a.336.336 0 01-.4-.022l-.256.308c.25.207.606.226.876.048l-.22-.334zm2.094-.88a6.106 6.106 0 00-2.095.88l.221.334a5.708 5.708 0 011.958-.823l-.084-.392zm.264-.3a.34.34 0 01-.265.3l.086.39a.74.74 0 00.577-.652l-.398-.038zm.128-1.314l-.128 1.314.398.039.128-1.314-.398-.039zm1.651-.18h-1.453v.4h1.453v-.4zm.326 1.494l-.127-1.314-.398.039.127 1.314.398-.039zm.265.298a.337.337 0 01-.265-.298l-.398.038c.03.32.265.583.579.65l.084-.39zm2.099.884a6.334 6.334 0 00-2.098-.884l-.087.39c.7.156 1.366.436 1.966.83l.219-.335zm.394-.024a.336.336 0 01-.396.023l-.216.337c.27.173.62.152.867-.052l-.255-.308zm1.008-.835l-1.008.835.256.308 1.007-.835-.256-.308zm1.274 1.027l-1.005-1.014-.284.282 1.005 1.014.284-.282zm-.827 1.28l.838-1.011-.307-.255-.839 1.01.308.255zm-.02.4a.336.336 0 01.02-.4l-.308-.256a.736.736 0 00-.046.877l.333-.221zm.883 2.091a6.103 6.103 0 00-.884-2.091l-.333.221c.395.594.676 1.258.826 1.955l.391-.085zm.297.263a.336.336 0 01-.297-.263l-.39.085c.068.313.33.545.648.576l.039-.398zm1.315.127l-1.315-.127-.039.398 1.316.127.038-.398zm.181 1.648v-1.45h-.4v1.45h.4zm-8.613-3.022c0-.592.002-1.084.102-1.431.049-.169.116-.283.2-.355.08-.07.196-.117.378-.117v-.4c-.258 0-.472.07-.64.214-.163.14-.261.335-.322.547-.12.414-.118.973-.118 1.542h.4zm0 1.954v-1.954h-.4v1.954h.4zm.68 1.903c-.182 0-.298-.048-.378-.117-.084-.072-.151-.186-.2-.355-.1-.347-.102-.84-.102-1.431h-.4c0 .569-.002 1.128.118 1.543.061.211.16.406.323.546.167.144.381.214.64.214v-.4zm.68-1.903c0 .592-.001 1.084-.102 1.431-.048.17-.115.283-.2.355-.08.07-.195.117-.378.117v.4c.258 0 .473-.07.64-.214.163-.14.261-.335.323-.546.12-.415.118-.974.118-1.543h-.4zm0-1.954v1.954h.4v-1.954h-.4zm-.68-1.903c.183 0 .298.048.379.117.084.072.15.186.2.355.1.347.102.84.102 1.431h.4c0-.569.001-1.128-.118-1.542a1.105 1.105 0 00-.323-.547c-.168-.144-.382-.214-.64-.214v.4zm-.68 7.7a.66.66 0 01.66-.66v-.4a1.06 1.06 0 00-1.06 1.06h.4zm0 .003v-.004h-.4v.004h.4zm.66.657a.658.658 0 01-.66-.657h-.4c0 .585.475 1.057 1.06 1.057v-.4zm.66-.66a.66.66 0 01-.66.66v.4a1.06 1.06 0 001.06-1.06h-.4zm-.66-.66a.66.66 0 01.66.66h.4a1.06 1.06 0 00-1.06-1.06v.4z" fill="#fff" mask="url(#a)"/></svg>