<svg width="63" height="52" fill="none" xmlns="http://www.w3.org/2000/svg"><g clip-path="url(#clip0_338:13019)" fill="#fff"><path d="M30.598 30.742a7125.2 7125.2 0 009.008-1.836l.086-.02-4.634-6.346c-2.55-3.49-4.634-6.36-4.634-6.376 0-.017 4.785-15.202 4.813-15.256.01-.018 3.265 6.455 7.894 15.69L51.07 32.44l.06.12H21.675l8.922-1.818zM12.922 28.806c0-.009 2.183-4.373 4.852-9.698l4.853-9.681 5.66-5.462a2359.44 2359.44 0 015.674-5.471c-.02.091-.051.18-.091.264l-6.146 15.16-6.037 14.892h-4.384c-1.46.015-2.92.013-4.381-.004z"/></g><path d="M8.332 41.273h1.029c-.08-1.767-1.608-3.074-3.773-3.074-2.148 0-3.801 1.29-3.801 3.165 0 1.494 1.057 2.431 2.88 2.971l1.393.41c1.443.42 2.431.96 2.431 2.147 0 1.398-1.267 2.335-3.005 2.335-1.568 0-2.796-.755-2.91-2.136h-1.09c.125 1.84 1.625 3.108 4 3.108 2.523 0 4.034-1.426 4.034-3.29 0-1.932-1.682-2.704-3.16-3.12l-1.226-.352c-1.131-.318-2.319-.892-2.319-2.119 0-1.25 1.12-2.165 2.745-2.165 1.54 0 2.642.824 2.772 2.12zm7.313 8.909c1.75 0 2.926-.949 3.324-2.046l-.96-.312c-.336.784-1.125 1.432-2.364 1.432-1.784 0-2.915-1.301-2.96-3.319h6.5v-.5c0-2.914-1.801-4.284-3.693-4.284-2.262 0-3.824 1.892-3.824 4.535 0 2.647 1.534 4.494 3.977 4.494zm-2.955-5.137c.108-1.625 1.205-2.971 2.802-2.971 1.562 0 2.659 1.29 2.659 2.971h-5.46zm9.985-.5c0-1.522 1-2.46 2.375-2.46 1.34 0 2.204.898 2.204 2.324V50h1.012v-5.653c0-2.069-1.2-3.188-2.96-3.188-1.279 0-2.16.591-2.569 1.483h-.09v-1.37h-.984V50h1.012v-5.455zm11.942-3.272H32.77v-2.091h-1.017v2.09h-1.301v.881h1.3v5.807c0 1.426 1.126 2.17 2.245 2.17.42 0 .705-.079.898-.153l-.216-.914c-.142.04-.324.079-.59.079-.688 0-1.32-.324-1.32-1.42v-5.569h1.848v-.88zM37.175 50h1.017v-8.727h-1.017V50zm.517-10.227c.414 0 .761-.33.761-.728 0-.397-.347-.727-.761-.727-.415 0-.756.33-.756.727 0 .398.341.728.756.728zm4.436 4.772c0-1.522 1-2.46 2.375-2.46 1.34 0 2.204.898 2.204 2.324V50h1.012v-5.653c0-2.069-1.2-3.188-2.96-3.188-1.279 0-2.16.591-2.569 1.483h-.09v-1.37h-.983V50h1.01v-5.455zm12.032 5.637c1.75 0 2.927-.949 3.324-2.046l-.96-.312c-.335.784-1.125 1.432-2.364 1.432-1.784 0-2.914-1.301-2.96-3.319h6.5v-.5c0-2.914-1.8-4.284-3.693-4.284-2.261 0-3.824 1.892-3.824 4.535 0 2.647 1.534 4.494 3.977 4.494zm-2.954-5.137c.108-1.625 1.204-2.971 2.801-2.971 1.563 0 2.66 1.29 2.66 2.971h-5.461zm9.984-6.681H60.18V50h1.011V38.364z" fill="#fff"/><defs><clipPath id="clip0_338:13019"><path fill="#fff" transform="translate(9)" d="M0 0h45v34H0z"/></clipPath></defs></svg>