<svg width="33" height="33" fill="none" xmlns="http://www.w3.org/2000/svg"><path d="M28.97 13.992l-2.977-.888a10.353 10.353 0 00-.845-2.071l1.458-2.73a.542.542 0 00-.098-.64L24.384 5.53a.542.542 0 00-.64-.097L21.033 6.88a10.331 10.331 0 00-2.098-.888l-.89-2.943a.542.542 0 00-.524-.364h-3.004a.542.542 0 00-.515.382l-.89 2.933c-.735.217-1.445.515-2.115.89L8.33 5.45a.542.542 0 00-.64.097L5.53 7.655a.542.542 0 00-.097.64l1.44 2.666a10.34 10.34 0 00-.89 2.107l-2.942.889a.542.542 0 00-.382.515v3.005a.542.542 0 00.382.515l2.96.89c.22.72.518 1.415.89 2.07l-1.458 2.792a.542.542 0 00.097.64l2.125 2.124a.542.542 0 00.64.098l2.746-1.467c.65.35 1.336.63 2.045.836l.889 2.995a.542.542 0 00.515.383h3.005a.542.542 0 00.515-.383l.89-3.004a10.335 10.335 0 002.026-.836l2.764 1.476a.542.542 0 00.64-.098l2.125-2.124a.542.542 0 00.098-.64l-1.476-2.756c.353-.646.636-1.329.845-2.035l2.995-.89a.543.543 0 00.382-.515v-3.031a.543.543 0 00-.329-.524zm-12.95 6.916a4.889 4.889 0 110-9.778 4.889 4.889 0 010 9.778z" fill="#fff"/></svg>