<svg width="32" height="32" fill="none" xmlns="http://www.w3.org/2000/svg"><path d="M5.077 9.51a2.718 2.718 0 01-2.715-2.716V3.58a2.716 2.716 0 015.43 0v3.214a2.719 2.719 0 01-2.715 2.715zm0-7.78a1.853 1.853 0 00-1.85 1.85v3.214a1.85 1.85 0 003.7 0V3.58a1.853 1.853 0 00-1.85-1.85zM9.85 1.73a.432.432 0 01.865 0v6.914a.432.432 0 11-.865 0V1.73zM24.658 1.73a.432.432 0 01.865 0v6.914a.432.432 0 11-.865 0V1.73zM24.658 12.753a.432.432 0 11.865 0v6.914a.432.432 0 11-.865 0v-6.914zM28.774 1.73a.432.432 0 11.864 0v6.914a.432.432 0 11-.864 0V1.73zM15.63 9.51a2.719 2.719 0 01-2.716-2.716V3.58a2.714 2.714 0 115.43 0v3.214a2.718 2.718 0 01-2.714 2.715zm0-7.78a1.853 1.853 0 00-1.851 1.85v3.214a1.85 1.85 0 003.7 0V3.58a1.852 1.852 0 00-1.85-1.85zM20.544 1.73a.432.432 0 01.864 0v6.914a.432.432 0 11-.864 0V1.73zM19.834 20.532a2.718 2.718 0 01-2.715-2.716v-3.213a2.716 2.716 0 115.43 0v3.213a2.718 2.718 0 01-2.715 2.716zm0-7.78a1.853 1.853 0 00-1.85 1.851v3.213a1.851 1.851 0 103.7 0v-3.213a1.852 1.852 0 00-1.85-1.85zM7.968 12.753a.432.432 0 11.865 0v6.915a.432.432 0 01-.865 0v-6.915zM2.362 12.753a.432.432 0 11.864 0v6.915a.432.432 0 01-.864 0v-6.915zM2.362 23.356a.433.433 0 01.864 0v6.914a.432.432 0 01-.864 0v-6.914zM28.774 12.753a.432.432 0 11.864 0v6.914a.432.432 0 11-.864 0v-6.914zM13.575 12.753a.432.432 0 11.865 0v6.914a.432.432 0 11-.865 0v-6.914zM7.968 23.356a.432.432 0 11.865 0v6.914a.432.432 0 01-.865 0v-6.914zM15.63 31.135a2.719 2.719 0 01-2.716-2.715v-3.214a2.714 2.714 0 115.43 0v3.214a2.718 2.718 0 01-2.714 2.715zm0-7.78a1.853 1.853 0 00-1.851 1.851v3.214a1.85 1.85 0 003.7 0v-3.214a1.853 1.853 0 00-1.85-1.85zM26.923 31.135a2.719 2.719 0 01-2.715-2.715v-3.214a2.716 2.716 0 015.43 0v3.214a2.718 2.718 0 01-2.715 2.715zm0-7.78a1.853 1.853 0 00-1.85 1.851v3.214a1.85 1.85 0 003.7 0v-3.214a1.853 1.853 0 00-1.85-1.85zM20.544 23.356a.433.433 0 01.864 0v6.914a.432.432 0 01-.864 0v-6.914z" fill="#fff" stroke="#fff" stroke-width=".5"/></svg>