<svg width="605" height="605" fill="none" xmlns="http://www.w3.org/2000/svg"><path d="M524.872 302.204H605v1h-80.128v-1zM424.711 302.204h94.151v1h-94.151v-1zM523.122 330.649l79.482 10.137-.127.992-79.482-10.138.127-.991zM423.77 317.976l93.391 11.912-.127.991-93.391-11.912.127-.991z" fill="#00ACAC"/><path d="M423.77 317.976l93.391 11.912-.127.991-93.391-11.912.127-.991z" fill="#005050"/><path d="M517.649 359.032l77.496 20.323-.254.966-77.496-20.323.254-.966zM420.78 333.628l91.057 23.879-.254.967-91.058-23.88.255-.966zM513.576 372.776l76.027 25.25-.316.948-76.027-25.25.316-.948zM418.543 341.214l89.331 29.668-.316.948-89.331-29.668.316-.948z" fill="#00ACAC"/><path d="M513.576 372.776l76.027 25.25-.316.948-76.027-25.25.316-.948z" fill="#005050"/><path d="M495.728 412.804l69.583 39.642-.496.868-69.583-39.642.496-.868zM408.75 363.253l81.76 46.578-.497.868-81.76-46.579.497-.867z" fill="#00ACAC"/><path d="M495.728 412.804l69.583 39.642-.496.868-69.583-39.642.496-.868z" fill="#005050"/><path d="M479.571 437.251l63.75 48.43-.606.795-63.751-48.43.607-.795zM399.883 376.714l74.907 56.905-.607.795-74.907-56.905.607-.795zM470.707 448.182l60.625 52.272-.655.756-60.624-52.272.654-.756zM394.926 382.842l71.235 61.42-.655.756-71.234-61.42.654-.756zM460.811 458.905l57.07 56.115-.704.712-57.069-56.115.703-.712zM389.474 388.761l67.057 65.935-.703.712-67.057-65.935.703-.712z" fill="#00ACAC"/><path d="M460.811 458.905l57.07 56.115-.704.712-57.069-56.115.703-.712z" fill="#005050"/><path d="M450.244 468.954l53.271 59.717-.748.664-53.271-59.716.748-.665zM383.655 394.309l62.594 70.167-.749.664-62.593-70.167.748-.664zM439.041 478.298l49.237 63.068-.79.614-49.238-63.068.791-.614zM377.494 399.463l57.854 74.105-.79.614-57.855-74.105.791-.614z" fill="#00ACAC"/><path d="M377.494 399.463l57.854 74.105-.79.614-57.855-74.105.791-.614z" fill="#005050"/><path d="M415.243 494.513l40.755 68.828-.863.509-40.755-68.829.863-.508zM364.299 408.477l47.887 80.874-.862.508-47.888-80.874.863-.508z" fill="#00ACAC"/><path d="M415.243 494.513l40.755 68.828-.863.509-40.755-68.829.863-.508z" fill="#005050"/><path d="M375.595 512.962l26.452 75.46-.946.33-26.451-75.46.945-.33zM342.531 418.637l31.081 88.666-.946.33-31.08-88.666.945-.33z" fill="#00ACAC"/><path d="M375.595 512.962l26.452 75.46-.946.33-26.451-75.46.945-.33z" fill="#005050"/><path d="M361.827 517.295l21.544 76.997-.965.269-21.544-76.998.965-.268zM334.896 421.048l25.315 90.472-.965.269-25.315-90.473.965-.268z" fill="#00ACAC"/><path d="M361.827 517.295l21.544 76.997-.965.269-21.544-76.998.965-.268z" fill="#005050"/><path d="M318.975 524.864l6.175 79.704-.999.077-6.175-79.704.999-.077zM311.255 425.235l7.256 93.651-.998.077-7.256-93.651.998-.077z" fill="#00ACAC"/><path d="M311.255 425.235l7.256 93.651-.998.077-7.256-93.651.998-.077z" fill="#005050"/><path d="M288.962 525.192L284.327 605l-1-.058 4.635-79.807 1 .057zM294.756 425.433l-5.446 93.774-1-.058 5.446-93.774 1 .058z" fill="#00ACAC"/><path d="M294.756 425.433l-5.446 93.774-1-.058 5.446-93.774 1 .058z" fill="#005050"/><path d="M274.839 523.957l-9.551 79.372-.994-.119 9.55-79.372.995.119zM286.777 424.743l-11.222 93.261-.994-.119 11.222-93.261.994.119zM260.471 521.768l-14.712 78.582-.984-.183 14.711-78.582.985.183zM278.861 423.54l-17.287 92.334-.984-.183 17.286-92.335.985.184z" fill="#00ACAC"/><path d="M260.471 521.768l-14.712 78.582-.984-.183 14.711-78.582.985.183z" fill="#005050"/><path d="M192.377 497.153l-39.22 69.711-.873-.489 39.22-69.711.873.489zM241.402 410.015l-46.083 81.91-.874-.489 46.084-81.91.873.489z" fill="#00ACAC"/><path d="M192.377 497.153l-39.22 69.711-.873-.489 39.22-69.711.873.489z" fill="#005050"/><path d="M167.855 481.249l-48.076 63.953-.802-.599 48.077-63.953.801.599zM227.951 401.307l-56.49 75.146-.801-.6 56.49-75.145.801.599z" fill="#00ACAC"/><path d="M167.855 481.249l-48.076 63.953-.802-.599 48.077-63.953.801.599z" fill="#005050"/><path d="M156.456 472.155l-52.174 60.673-.76-.65 52.174-60.673.76.65zM221.673 396.314l-61.304 71.291-.76-.651 61.304-71.29.76.65zM117.758 429.403l-65.983 45.356-.568-.822 65.983-45.356.568.822zM200.237 372.708l-77.53 53.294-.569-.823 77.531-53.293.568.822z" fill="#00ACAC"/><path d="M117.758 429.403l-65.983 45.356-.568-.822 65.983-45.356.568.822z" fill="#005050"/><path d="M110.109 417.593l-68.688 41.166-.516-.857 68.688-41.165.516.856zM195.969 366.137l-80.708 48.369-.516-.857 80.708-48.369.516.857z" fill="#00ACAC"/><path d="M110.109 417.593l-68.688 41.166-.516-.857 68.688-41.165.516.856z" fill="#005050"/><path d="M83.226 350.042L4.881 366.814l-.21-.977 78.345-16.772.21.977zM181.157 329.076l-92.055 19.708-.21-.977 92.055-19.708.21.977z" fill="#00ACAC"/><path d="M83.226 350.042L4.881 366.814l-.21-.977 78.345-16.772.21.977z" fill="#005050"/><path d="M80.619 335.824L1.347 347.482l-.146-.989 79.272-11.658.146.989zM179.708 321.252L86.564 334.95l-.146-.989 93.144-13.698.146.989zM79.592 277.367L0 268.129l.115-.993 79.592 9.238-.115.993zM179.081 288.914l-93.52-10.855.115-.992 93.521 10.854-.116.993zM84.722 248.945l-77.723-19.44.243-.97 77.723 19.441-.243.969zM181.875 273.247l-91.324-22.843.243-.97 91.325 22.843-.244.97zM88.598 235.251l-76.308-24.39.306-.952 76.308 24.39-.306.952zM183.983 265.738L94.321 237.08l.306-.952 89.662 28.659-.306.951zM93.661 221.033l-74.48-29.481.37-.929 74.48 29.482-.37.928zM186.762 257.886l-87.515-34.641.37-.929 87.514 34.641-.369.929zM105.986 194.935l-70.018-38.871.487-.873 70.018 38.871-.487.873zM193.509 243.524l-82.271-45.674.487-.873 82.271 45.674-.487.873z" fill="#00ACAC"/><path d="M193.509 243.524l-82.271-45.674.487-.873 82.271 45.674-.487.873z" fill="#005050"/><path d="M113.604 182.214l-67.287-43.407.544-.839 67.287 43.407-.544.839zM197.712 236.474L118.65 185.47l.544-.839 79.062 51.004-.544.839z" fill="#00ACAC"/><path d="M197.712 236.474L118.65 185.47l.544-.839 79.062 51.004-.544.839z" fill="#005050"/><path d="M150.845 138.199l-53.92-59.133.74-.672 53.921 59.133-.741.672zM218.246 212.116l-63.357-69.482.741-.672 63.357 69.482-.741.672z" fill="#00ACAC"/><path d="M218.246 212.116l-63.357-69.482.741-.672 63.357 69.482-.741.672z" fill="#005050"/><path d="M161.141 129.365L110.987 67.02l.781-.626 50.154 62.346-.781.625zM223.833 207.297l-58.931-73.256.781-.625 58.931 73.256-.781.625zM210.813 99.032l-32.312-73.154.917-.402 32.312 73.153-.917.403zM251.203 190.474l-37.967-85.956.917-.403 37.967 85.956-.917.403zM224.905 93.348l-27.303-75.157.942-.34 27.303 75.157-.942.34zM259.033 187.295l-32.08-88.31.941-.34 32.081 88.31-.942.34z" fill="#00ACAC"/><path d="M224.905 93.348l-27.303-75.157.942-.34 27.303 75.157-.942.34z" fill="#005050"/><path d="M252.072 85.366L234.664 7.334l.977-.217 17.409 78.032-.978.217zM273.834 182.905l-20.456-91.687.978-.217 20.455 91.687-.977.217z" fill="#00ACAC"/><path d="M273.834 182.905l-20.456-91.687.978-.217 20.455 91.687-.977.217z" fill="#005050"/><path d="M266.245 82.642L253.952 3.647l.99-.153 12.293 78.995-.99.153zM281.611 181.386l-14.444-92.82.99-.152 14.444 92.819-.99.153zM295.615 79.943L293.761.023 294.762 0l1.854 79.92-1.001.023zM297.933 179.843l-2.179-93.906 1.001-.023 2.179 93.906-1.001.023zM310.147 80.03L313.545.16l1 .043-3.398 79.87-1-.043zM305.899 179.866l3.993-93.846 1 .042-3.992 93.847-1.001-.043z" fill="#00ACAC"/><path d="M310.147 80.03L313.545.16l1 .043-3.398 79.87-1-.043z" fill="#005050"/><path d="M324.911 81.081l8.632-79.476.996.108-8.632 79.476-.996-.108zM314.12 180.427l10.143-93.385.996.108-10.143 93.384-.996-.107z" fill="#00ACAC"/><path d="M324.911 81.081l8.632-79.476.996.108-8.632 79.476-.996-.108z" fill="#005050"/><path d="M339.358 83.067l13.807-78.745.986.172-13.806 78.745-.987-.172zM322.099 181.499l16.223-92.526.987.172-16.223 92.527-.987-.173zM407.921 106.751l38.444-70.14.878.48-38.444 70.139-.878-.479zM359.866 194.425l45.171-82.414.879.48-45.172 82.414-.878-.48z" fill="#00ACAC"/><path d="M407.921 106.751l38.444-70.14.878.48-38.444 70.139-.878-.479z" fill="#005050"/><path d="M420.793 114.283l43.015-67.446.845.536-43.015 67.447-.845-.537zM367.025 198.591l50.542-79.249.845.536-50.542 79.25-.845-.537z" fill="#00ACAC"/><path d="M420.793 114.283l43.015-67.446.845.536-43.015 67.447-.845-.537z" fill="#005050"/><path d="M454.859 140.681l55.201-57.947.726.689-55.201 57.946-.726-.688zM385.859 213.114l64.86-68.087.726.688-64.86 68.087-.726-.688zM491.431 185.386l68.229-41.919.525.851-68.228 41.918-.526-.85zM406.145 237.784l80.169-49.255.525.851-80.168 49.255-.526-.851zM498.852 198.27l70.865-37.313.467.884-70.864 37.313-.468-.884zM410.272 244.912l83.265-43.843.468.883-83.266 43.843-.467-.883zM505.009 210.765l73.082-32.781.411.912-73.082 32.781-.411-.912zM413.657 251.742l85.871-38.518.411.911-85.871 38.518-.411-.911z" fill="#00ACAC"/><path d="M505.009 210.765l73.082-32.781.411.912-73.082 32.781-.411-.912z" fill="#005050"/><path d="M515.313 238.099l76.757-22.947.287.957-76.756 22.947-.288-.957zM419.368 266.784l90.189-26.964.287.957-90.188 26.964-.288-.957z" fill="#00ACAC"/><path d="M515.313 238.099l76.757-22.947.287.957-76.756 22.947-.288-.957z" fill="#005050"/><path d="M519.239 252.851l78.147-17.665.222.974-78.148 17.666-.221-.975zM421.554 274.933l91.824-20.757.221.975-91.824 20.757-.221-.975z" fill="#00ACAC"/><path d="M519.239 252.851l78.147-17.665.222.974-78.148 17.666-.221-.975z" fill="#005050"/></svg>