<svg width="33" height="33" fill="none" xmlns="http://www.w3.org/2000/svg"><path d="M10.545 4.488a6.256 6.256 0 013.792-1.269 2.812 2.812 0 012.4 1.248 2.811 2.811 0 012.4-1.248 6.256 6.256 0 013.792 1.269c.84.653 1.488 1.557 1.717 2.65.525.04 1.005.257 1.408.585.611.496 1.056 1.24 1.336 2.027.438 1.224.557 2.784.102 4.112.116.055.23.119.34.192.44.293.774.712 1.02 1.207.485.968.685 2.318.685 3.958 0 1.826-.696 3.051-1.579 3.808a4.287 4.287 0 01-1.686.888c-.16.893-.608 1.927-1.31 2.803-.913 1.144-2.327 2.101-4.225 2.101-1.504 0-2.7-.832-3.478-1.648-.186-.195-.36-.4-.522-.616a6.793 6.793 0 01-.521.616c-.778.816-1.973 1.648-3.479 1.648-1.897 0-3.31-.957-4.224-2.1a6.49 6.49 0 01-1.31-2.804 4.287 4.287 0 01-1.687-.888c-.883-.757-1.579-1.984-1.579-3.808 0-1.64.202-2.992.685-3.958.246-.495.58-.912 1.02-1.208.109-.072.222-.135.34-.189-.454-1.331-.336-2.89.102-4.114.28-.787.725-1.53 1.336-2.027a2.55 2.55 0 011.408-.585c.23-1.093.879-1.997 1.719-2.65h-.002zm5.392 2.731v-.016l-.003-.08a4.391 4.391 0 00-.246-1.222c-.1-.297-.27-.566-.495-.784a1.216 1.216 0 00-.856-.298 4.656 4.656 0 00-2.81.931c-.742.578-1.19 1.36-1.19 2.27a.8.8 0 01-1.053.758c-.3-.1-.57-.044-.856.187-.313.256-.619.71-.838 1.323-.446 1.251-.4 2.766.213 3.688a.8.8 0 01.134.443h1.2a3.6 3.6 0 013.6 3.6v.536a2.4 2.4 0 11-1.6 0v-.536a2 2 0 00-2-2h-2.8a.797.797 0 01-.28-.051l-.005.01c-.316.632-.515 1.681-.515 3.241 0 1.375.504 2.149 1.021 2.592.555.477 1.171.608 1.38.608a.8.8 0 01.8.8c0 .589.32 1.618 1.023 2.501.687.856 1.674 1.5 2.976 1.5.896 0 1.7-.502 2.32-1.153a4.9 4.9 0 00.7-.923c.07-.12.13-.247.18-.378V12.02h-1.736a2.4 2.4 0 110-1.6h1.736v-3.2zm1.6 15.999v1.547c.05.13.11.257.181.377.157.272.394.604.698.924.622.65 1.427 1.152 2.321 1.152 1.303 0 2.29-.644 2.976-1.5.704-.883 1.024-1.912 1.024-2.5a.8.8 0 01.8-.8c.208 0 .824-.132 1.38-.608.516-.444 1.02-1.218 1.02-2.592 0-1.56-.2-2.608-.515-3.242a1.478 1.478 0 00-.48-.592 1.052 1.052 0 00-.605-.165.8.8 0 01-.665-1.243c.614-.922.659-2.437.212-3.688-.219-.613-.524-1.069-.838-1.323-.286-.23-.555-.288-.856-.187a.8.8 0 01-1.053-.759c0-.909-.448-1.691-1.192-2.269a4.656 4.656 0 00-2.808-.93 1.216 1.216 0 00-.856.297 1.951 1.951 0 00-.496.784 4.126 4.126 0 00-.248 1.302V21.62h1.2a2 2 0 002-2v-2.936a2.4 2.4 0 111.6 0v2.936a3.6 3.6 0 01-3.6 3.6h-1.2v-.001zm-6.4-11.999a.8.8 0 101.6 0 .8.8 0 00-1.6 0zm10.4 4a.8.8 0 100-1.6.8.8 0 000 1.6zm-9.6 4.8a.8.8 0 100 1.6.8.8 0 000-1.6z" fill="#fff"/></svg>