<svg width="44" height="44" viewBox="0 0 44 44" fill="none" xmlns="http://www.w3.org/2000/svg">
<path d="M3.90169 14.5899L4.05025 14.6106C3.68853 17.2097 4.17166 19.9075 5.40992 22.2056C5.59586 22.5505 6.02629 22.6794 6.37092 22.4937C6.71583 22.3078 6.84479 21.8776 6.659 21.5327C4.37839 17.3001 5.16233 11.9686 8.56564 8.56546C8.56564 8.56546 8.56565 8.56546 8.56565 8.56546M3.90169 14.5899L8.56565 8.56546M3.90169 14.5899L4.05025 14.6106C4.42421 11.9229 5.63831 9.48607 7.5622 7.56218C9.90361 5.22077 13.0166 3.93136 16.3279 3.93136C19.6395 3.93136 22.7521 5.22051 25.0936 7.56218C29.9269 12.3956 29.9269 20.2604 25.0938 25.0938C23.1698 27.0176 20.7328 28.2318 18.0453 28.6058C17.4825 28.6841 16.9149 28.7229 16.3478 28.7229C14.296 28.7229 12.2503 28.2161 10.4501 27.246C10.1052 27.0602 9.97633 26.63 10.1622 26.2852L10.1622 26.2851C10.3482 25.9401 10.7784 25.8113 11.1233 25.997C15.3557 28.2776 20.6874 27.4939 24.0907 24.0905C28.371 19.8101 28.371 12.8457 24.0907 8.56537C22.0175 6.4922 19.2601 5.3501 16.3282 5.3501C13.3961 5.3501 10.6389 6.49211 8.56565 8.56546M3.90169 14.5899L8.56565 8.56546" fill="white" stroke="#FAFAFA" stroke-width="0.3"/>
<path d="M7.55502 24.097L7.55503 24.097L7.56255 24.0895C7.56257 24.0895 7.56258 24.0894 7.56259 24.0894C7.83968 23.8125 8.28867 23.8125 8.56576 24.0894C8.84279 24.3665 8.84277 24.8157 8.56577 25.0927L8.56577 25.0927L8.55824 25.1003C8.41963 25.2388 8.23834 25.3081 8.05661 25.3081C7.87489 25.3081 7.6936 25.2388 7.55499 25.1003C7.278 24.8231 7.27804 24.374 7.55502 24.097Z" fill="white" stroke="#FAFAFA" stroke-width="0.3"/>
<path d="M26.764 5.89188L26.7641 5.89196L26.8161 5.94403L26.8167 5.94467L26.8167 5.94468C26.9555 6.08537 27.1382 6.15585 27.3216 6.15585C27.5018 6.15585 27.6816 6.08784 27.8198 5.95149L27.8198 5.95148C28.0987 5.67638 28.1017 5.22742 27.8267 4.94845C27.8267 4.9484 27.8266 4.94834 27.8266 4.94828L27.7673 4.88861C27.4902 4.6116 27.0412 4.61157 26.764 4.88859L26.764 5.89188ZM26.764 5.89188C26.487 5.61479 26.487 5.16562 26.764 4.88862L26.764 5.89188ZM27.3216 6.30585C27.5397 6.30585 27.7578 6.22343 27.9252 6.05826L26.6579 5.99793L26.7099 6.05001C26.878 6.22043 27.0997 6.30585 27.3216 6.30585Z" fill="white" stroke="#FAFAFA" stroke-width="0.3"/>
<path d="M33.38 27.6572L33.3358 27.7523L33.4099 27.8264L42.6934 37.1098C44.2327 38.6493 44.2327 41.1544 42.6931 42.6936L42.7992 42.7997L42.6931 42.6937C41.9472 43.4397 40.9562 43.8502 39.9011 43.8502C38.8462 43.8502 37.8551 43.4397 37.1091 42.6937L24.716 30.3005L24.6338 30.2183L24.5336 30.2774C22.0735 31.7305 19.2607 32.5065 16.3277 32.5065C12.954 32.5065 9.73873 31.4809 7.03699 29.5776L6.8006 29.4111V29.7002V30.2273C6.8006 32.0135 5.34718 33.467 3.56089 33.467C1.77469 33.467 0.321187 32.0136 0.321187 30.2273V28.555C0.321187 28.1633 0.638856 27.8457 1.03056 27.8457C1.42226 27.8457 1.73993 28.1633 1.73993 28.555V30.2274C1.73993 31.2316 2.55672 32.0484 3.56098 32.0484C4.56523 32.0484 5.38203 31.2317 5.38203 30.2274V28.3057V28.2402L5.33407 28.1957C5.18312 28.0556 5.03415 27.9138 4.88847 27.7681C1.83274 24.7122 0.15 20.6501 0.15 16.3287C0.15 13.6645 0.790284 11.0999 1.99637 8.8084L2.07453 8.6599L1.91822 8.59882C0.885125 8.19516 0.151805 7.18983 0.151805 6.01665V2.923C0.151805 1.39478 1.39544 0.151221 2.92367 0.151221C4.45189 0.151221 5.69545 1.39469 5.69545 2.923V3.8109V4.13198L5.9417 3.92594C8.42879 1.84503 11.5057 0.544662 14.7443 0.227938L14.7297 0.0786501L14.7443 0.227937C18.4067 -0.130379 22.1101 0.775826 25.172 2.77843L25.172 2.77844C25.4999 2.99287 25.5918 3.43254 25.3774 3.76044C25.163 4.08829 24.7233 4.18022 24.3954 3.96578C18.5875 0.167157 10.8064 0.977456 5.89175 5.89245C3.10426 8.67993 1.56874 12.3868 1.56874 16.3287C1.56874 20.2705 3.10418 23.9773 5.89166 26.7649L5.99773 26.6588L5.89166 26.7649C8.67914 29.5524 12.386 31.0879 16.3279 31.0879C20.2697 31.0879 23.9766 29.5524 26.764 26.7649C31.6963 21.8326 32.495 14.0333 28.6627 8.21857C28.4471 7.8914 28.5375 7.45145 28.8646 7.23587L28.8647 7.23585C29.1915 7.02025 29.6317 7.11065 29.8473 7.43783L29.8473 7.43784C30.7052 8.73945 31.3635 10.1581 31.8108 11.641L31.8825 11.8785L32.0595 11.7047C32.6446 11.1305 33.445 10.776 34.3269 10.776C36.1131 10.776 37.5666 12.2295 37.5666 14.0158V15.688C37.5666 17.4742 36.1132 18.9277 34.3269 18.9277C33.6862 18.9277 33.0892 18.7402 32.5858 18.4179L32.3882 18.2914L32.3563 18.5239C32.0654 20.6493 31.351 22.6917 30.2711 24.5287L30.2123 24.6287L30.2944 24.7107L32.1569 26.5733L32.2829 26.6992L32.3855 26.5536C32.9842 25.7048 33.9628 25.1834 35.0317 25.1834C36.8179 25.1834 38.2714 26.6368 38.2714 28.4231V29.2193C38.2714 29.611 37.9537 29.9287 37.562 29.9287C37.1703 29.9287 36.8526 29.611 36.8526 29.2193V28.4231C36.8526 27.4189 36.0359 26.6021 35.0316 26.6021C34.3191 26.6021 33.6781 27.0148 33.38 27.6572ZM4.26881 5.54504L4.3231 5.48448L4.30198 5.40594C4.28584 5.34597 4.27679 5.28459 4.27679 5.22182V2.923C4.27679 2.17672 3.66995 1.56988 2.92367 1.56988C2.17739 1.56988 1.57055 2.17672 1.57055 2.923V6.01674C1.57055 6.70802 2.09136 7.27806 2.76065 7.35914L2.85163 7.37016L2.90296 7.29424C3.31488 6.68495 3.7707 6.10064 4.26881 5.54504ZM25.9799 29.3152L25.841 29.4189L25.9636 29.5414L28.4768 32.0546L28.5829 32.1607L28.6889 32.0546L32.0543 28.6893L32.1604 28.5832L32.0543 28.4772L29.5381 25.9608L29.4152 25.8379L29.3116 25.9775C28.843 26.6087 28.3277 27.2078 27.7674 27.768C27.2042 28.3311 26.6066 28.8473 25.9799 29.3152ZM29.6921 33.0579L29.5861 33.1639L29.6921 33.27L38.1127 41.6905C39.099 42.677 40.7038 42.677 41.6902 41.6906C42.6766 40.7043 42.6766 39.0995 41.6902 38.1131L33.2696 29.6926L33.1636 29.5865L33.0575 29.6926L29.6921 33.0579ZM36.1478 14.0158C36.1478 13.0114 35.331 12.1946 34.3267 12.1946C33.3225 12.1946 32.5056 13.0114 32.5056 14.0158V15.688C32.5056 16.6923 33.3224 17.5091 34.3267 17.5091C35.3309 17.5091 36.1478 16.6923 36.1478 15.688V14.0158Z" fill="white" stroke="#FAFAFA" stroke-width="0.3"/>
<path d="M3.18755 42.2809V42.4309H3.33755H4.02024C4.41203 42.4309 4.72969 42.7485 4.72969 43.1402C4.72969 43.5319 4.41202 43.8496 4.02032 43.8496H0.936209C0.544507 43.8496 0.226838 43.5319 0.226838 43.1402C0.226838 42.7485 0.544507 42.4309 0.936209 42.4309H1.61889H1.76889V42.2809V38.4818V38.1197L1.51283 38.3758L1.36205 38.5266C1.08485 38.8035 0.635795 38.8035 0.358704 38.5266C0.0817131 38.2495 0.0817461 37.8003 0.358731 37.5233L1.97658 35.9055L1.9766 35.9054C2.17933 35.7026 2.48447 35.642 2.74964 35.7517C3.01468 35.8615 3.18755 36.1201 3.18755 36.4071V42.2809Z" fill="white" stroke="#FAFAFA" stroke-width="0.3"/>
<path d="M10.8213 42.2809V42.4309H10.9713H11.654C12.0457 42.4309 12.3635 42.7486 12.3635 43.1402C12.3635 43.5319 12.0458 43.8496 11.6541 43.8496H8.57C8.1783 43.8496 7.86063 43.5319 7.86063 43.1402C7.86063 42.7485 8.1783 42.4309 8.57 42.4309H9.25268H9.40268V42.2809V38.4818V38.1197L9.14662 38.3758L8.99584 38.5266C8.99582 38.5266 8.99581 38.5266 8.9958 38.5266C8.7186 38.8035 8.26957 38.8035 7.99249 38.5266C7.7155 38.2495 7.71554 37.8003 7.99252 37.5233L9.61037 35.9055C9.8132 35.7026 10.1184 35.642 10.3834 35.7517C10.6485 35.8615 10.8213 36.1201 10.8213 36.4071V42.2809Z" fill="white" stroke="#FAFAFA" stroke-width="0.3"/>
<path d="M26.0899 42.2809V42.4309H26.2399H26.9226C27.3143 42.4309 27.632 42.7486 27.632 43.1402C27.632 43.5319 27.3144 43.8496 26.9227 43.8496H23.8386C23.4469 43.8496 23.1292 43.5319 23.1292 43.1402C23.1292 42.7485 23.4469 42.4309 23.8386 42.4309H24.5212H24.6712V42.2809V38.4818V38.1197L24.4152 38.3758L24.2644 38.5266C24.2644 38.5266 24.2644 38.5266 24.2643 38.5266C23.9872 38.8035 23.5382 38.8035 23.2611 38.5266C22.9841 38.2495 22.9841 37.8003 23.2611 37.5233L24.8789 35.9055C25.0818 35.7026 25.3869 35.642 25.6521 35.7517C25.9171 35.8615 26.0899 36.1202 26.0899 36.4071V42.2809Z" fill="white" stroke="#FAFAFA" stroke-width="0.3"/>
<path d="M20.9473 38.9375V38.9375V40.6098C20.9473 42.396 19.4939 43.8495 17.7076 43.8495C15.9214 43.8495 14.4679 42.396 14.4679 40.6098V38.9374C14.4679 37.1512 15.9213 35.6977 17.7076 35.6977C19.4939 35.6977 20.9474 37.1512 20.9473 38.9375ZM17.7077 42.4309C18.7119 42.4309 19.5287 41.6142 19.5287 40.6098V38.9375C19.5287 37.9332 18.7119 37.1165 17.7077 37.1165C16.7034 37.1165 15.8866 37.9332 15.8866 38.9375V40.6098C15.8866 41.6141 16.7034 42.4309 17.7077 42.4309Z" fill="white" stroke="#FAFAFA" stroke-width="0.3"/>
<path d="M42.3076 32.0477V31.8977V26.0239C42.3076 25.7371 42.1348 25.4784 41.8698 25.3686C41.6046 25.2589 41.2994 25.3195 41.0966 25.5223C41.0966 25.5223 41.0966 25.5223 41.0966 25.5223L39.4789 27.1402L39.4788 27.1402C39.2019 27.4172 39.2018 27.8663 39.4788 28.1435C39.4788 28.1435 39.4788 28.1435 39.4789 28.1435M42.3076 32.0477L40.5882 28.2495C40.2524 28.585 39.7085 28.585 39.3728 28.2495L39.4789 28.1435M42.3076 32.0477H42.4576H43.1403C43.532 32.0477 43.8498 32.3654 43.8498 32.757C43.8498 33.1488 43.5321 33.4664 43.1404 33.4664H40.0563C39.6646 33.4664 39.347 33.1488 39.347 32.757C39.347 32.3653 39.6646 32.0477 40.0563 32.0477H40.739H40.889V31.8977V28.0987V27.7366L40.6329 27.9927L40.4822 28.1434M42.3076 32.0477L40.4822 28.1434M39.4789 28.1435C39.756 28.4204 40.205 28.4204 40.4822 28.1434M39.4789 28.1435L40.4822 28.1434" fill="white" stroke="#FAFAFA" stroke-width="0.3"/>
<path d="M33.7237 6.73358V6.88358H33.8737H34.5564C34.9481 6.88358 35.2657 7.20116 35.2657 7.59296C35.2657 7.98473 34.948 8.30233 34.5563 8.30233H31.4722C31.0805 8.30233 30.7628 7.98473 30.7628 7.59296C30.7628 7.20118 31.0805 6.88358 31.4722 6.88358H32.1549H32.3049V6.73358V2.93456V2.57243L32.0488 2.82849L31.898 2.9793C31.898 2.9793 31.898 2.97931 31.898 2.97931C31.6209 3.25633 31.1719 3.25631 30.8949 2.97931C30.6178 2.70221 30.6179 2.25303 30.8949 1.97604L32.5127 0.358203C32.5127 0.358196 32.5127 0.35819 32.5127 0.358184C32.7156 0.155435 33.0207 0.0946024 33.2858 0.204465L33.2858 0.204468C33.5508 0.314282 33.7237 0.573011 33.7237 0.859865V6.73358Z" fill="white" stroke="#FAFAFA" stroke-width="0.3"/>
<path d="M37.3702 3.39033C37.3702 1.60403 38.8236 0.150534 40.6099 0.150534C42.3961 0.150534 43.8497 1.60404 43.8496 3.39023V5.06258C43.8496 6.84878 42.3962 8.30228 40.6099 8.30228C38.8237 8.30228 37.3702 6.84887 37.3702 5.06258V3.39033ZM40.6099 6.88363C41.6142 6.88363 42.431 6.06684 42.431 5.06258V3.39024C42.431 2.3859 41.6142 1.56911 40.6099 1.56911C39.6057 1.56911 38.7889 2.3859 38.7889 3.39024V5.06258C38.7889 6.06684 39.6057 6.88363 40.6099 6.88363Z" fill="white" stroke="#FAFAFA" stroke-width="0.3"/>
<path d="M42.3077 17.5083V17.3583V11.4845C42.3077 11.1977 42.1348 10.9389 41.8698 10.8291L42.3077 17.5083ZM42.3077 17.5083H42.4577M42.3077 17.5083H42.4577M42.4577 17.5083H43.1404C43.5321 17.5083 43.8498 17.8259 43.8498 18.2176C43.8498 18.6094 43.5322 18.927 43.1404 18.927H40.0563C39.6646 18.927 39.347 18.6094 39.347 18.2176C39.347 17.8258 39.6646 17.5082 40.0563 17.5082H40.739H40.889V17.3582V13.5592V13.1971M42.4577 17.5083L40.889 13.1971M40.889 13.1971L40.6329 13.4531M40.889 13.1971L40.6329 13.4531M40.6329 13.4531L40.4822 13.6039C40.4821 13.6039 40.4821 13.604 40.4821 13.604M40.6329 13.4531L40.4821 13.604M41.0967 10.9828C41.0967 10.9828 41.0967 10.9828 41.0967 10.9828L39.4788 12.6007C39.2019 12.8777 39.2018 13.3268 39.4788 13.6039C39.4788 13.604 39.4789 13.604 39.4789 13.604M41.0967 10.9828L39.4789 13.604M41.0967 10.9828C41.2996 10.78 41.6047 10.7193 41.8698 10.8291L41.0967 10.9828ZM39.4789 13.604C39.7559 13.881 40.2049 13.881 40.4821 13.604M39.4789 13.604L40.4821 13.604" fill="white" stroke="#FAFAFA" stroke-width="0.3"/>
<mask id="path-13-outside-1_367:369" maskUnits="userSpaceOnUse" x="8.68018" y="8.23999" width="15" height="16" fill="black">
<rect fill="white" x="8.68018" y="8.23999" width="15" height="16"/>
<path d="M21.2865 16.3895C21.7077 16.3901 22.1119 16.2214 22.4106 15.9203C22.7093 15.6192 22.8782 15.2103 22.8802 14.7832V14.6303C22.8802 14.536 22.8433 14.4456 22.7775 14.379C22.7118 14.3123 22.6227 14.2749 22.5297 14.2749C22.4368 14.2749 22.3477 14.3123 22.2819 14.379C22.2162 14.4456 22.1793 14.536 22.1793 14.6303V14.7832C22.1775 15.0218 22.0826 15.2501 21.9153 15.4179C21.7479 15.5857 21.5219 15.6795 21.2865 15.6787H20.6023V14.9923C20.603 14.7431 20.5264 14.5 20.3834 14.2973C20.2403 14.0946 20.0381 13.9427 19.8053 13.863C19.7632 13.3376 19.6061 12.8283 19.3454 12.3723L20.5725 10.9671C20.603 10.9322 20.6264 10.8916 20.6414 10.8475C20.6564 10.8034 20.6627 10.7568 20.6599 10.7102C20.6572 10.6637 20.6454 10.6182 20.6253 10.5762C20.6052 10.5343 20.5771 10.4968 20.5427 10.4659C20.5083 10.435 20.4682 10.4112 20.4248 10.396C20.3813 10.3808 20.3353 10.3744 20.2894 10.3772C20.2435 10.38 20.1986 10.3919 20.1573 10.4123C20.116 10.4327 20.079 10.4612 20.0485 10.4961L18.926 11.7829C18.8028 11.6431 18.6691 11.5132 18.526 11.3945C18.5038 10.8179 18.2632 10.2722 17.8543 9.87087C17.4454 9.46958 16.8997 9.24363 16.3307 9.24003C15.7617 9.23644 15.2132 9.45548 14.7994 9.85158C14.3856 10.2477 14.1384 10.7903 14.1091 11.3666C13.9865 11.4657 13.8704 11.5728 13.7618 11.6874L12.617 10.3748C12.5865 10.3398 12.5495 10.3113 12.5082 10.2908C12.4668 10.2704 12.4219 10.2584 12.3759 10.2555C12.33 10.2527 12.284 10.259 12.2404 10.2742C12.1969 10.2894 12.1568 10.3131 12.1223 10.3441C12.0879 10.375 12.0597 10.4125 12.0395 10.4544C12.0194 10.4964 12.0075 10.5419 12.0047 10.5885C12.0019 10.6351 12.0082 10.6818 12.0232 10.7259C12.0381 10.7701 12.0615 10.8108 12.092 10.8457L13.3221 12.2559C13.0185 12.7378 12.834 13.2868 12.7842 13.8564C12.5457 13.9329 12.3373 14.084 12.1889 14.2881C12.0405 14.4922 11.9597 14.7387 11.9581 14.9923V15.6787H11.2738C11.0385 15.6795 10.8124 15.5857 10.6451 15.4179C10.4778 15.2501 10.3829 15.0219 10.3811 14.7832V14.6303C10.3811 14.536 10.3441 14.4456 10.2784 14.379C10.2127 14.3123 10.1236 14.2749 10.0306 14.2749C9.93768 14.2749 9.84854 14.3123 9.78282 14.379C9.7171 14.4456 9.68018 14.536 9.68018 14.6303V14.7832C9.68215 15.2103 9.851 15.6192 10.1497 15.9203C10.4484 16.2214 10.8527 16.3901 11.2738 16.3895H11.9581V17.6334H11.6026C10.7272 17.6334 10.0306 18.3672 10.0306 19.255V19.718C10.0306 19.8122 10.0675 19.9026 10.1333 19.9693C10.199 20.0359 10.2881 20.0734 10.3811 20.0734C10.474 20.0734 10.5631 20.0359 10.6289 19.9693C10.6946 19.9026 10.7315 19.8122 10.7315 19.718V19.255C10.7297 19.1371 10.7508 19.0201 10.7936 18.9106C10.8364 18.801 10.9001 18.7011 10.981 18.6165C11.0619 18.5319 11.1584 18.4643 11.2651 18.4176C11.3718 18.3709 11.4865 18.3459 11.6026 18.3442H11.9581V19.4154C11.9599 19.8717 12.0413 20.324 12.1984 20.7516C11.8223 20.8085 11.4789 21.0008 11.2311 21.2932C10.9832 21.5857 10.8473 21.9588 10.8483 22.3445V22.8163C10.8483 22.9105 10.8852 23.0009 10.951 23.0676C11.0167 23.1342 11.1058 23.1717 11.1988 23.1717C11.2917 23.1717 11.3808 23.1342 11.4466 23.0676C11.5123 23.0009 11.5492 22.9105 11.5492 22.8163V22.3447C11.5492 21.8489 11.9454 21.4245 12.4344 21.4245H12.5363C13.2112 22.55 14.4228 23.32 15.8029 23.32H16.7806C17.4437 23.3179 18.095 23.1424 18.6716 22.8103C19.2482 22.4783 19.7306 22.001 20.0721 21.4245H20.2415C20.3567 21.4224 20.4713 21.4434 20.5785 21.4865C20.6856 21.5296 20.7833 21.5939 20.8658 21.6756C20.9483 21.7573 21.0139 21.8548 21.0589 21.9624C21.1039 22.0701 21.1274 22.1857 21.128 22.3027V22.8163C21.128 22.9105 21.1649 23.0009 21.2306 23.0676C21.2963 23.1342 21.3855 23.1717 21.4784 23.1717C21.5713 23.1717 21.6605 23.1342 21.7262 23.0676C21.7919 23.0009 21.8288 22.9105 21.8288 22.8163V22.3029C21.8272 21.9028 21.6793 21.5174 21.4138 21.2215C21.1482 20.9255 20.7839 20.7399 20.3912 20.7007C20.5328 20.2874 20.6042 19.8529 20.6023 19.4154V18.4034H21.0321C21.521 18.4034 21.9457 18.8009 21.9457 19.2968V19.718C21.9457 19.8122 21.9826 19.9026 22.0483 19.9693C22.114 20.0359 22.2032 20.0734 22.2961 20.0734C22.389 20.0734 22.4782 20.0359 22.5439 19.9693C22.6096 19.9026 22.6465 19.8122 22.6465 19.718V19.2968C22.6465 18.409 21.9075 17.6926 21.0321 17.6926H20.6023V16.3895H21.2865ZM13.5009 13.7833C13.6769 12.4209 14.8647 11.2823 16.3003 11.2823C17.736 11.2823 18.9237 12.4209 19.0997 13.7833H13.5009ZM16.3174 9.9509C16.6145 9.95124 16.9048 10.0403 17.1523 10.2069C17.3998 10.3735 17.5935 10.6103 17.7091 10.8877C17.2721 10.6939 16.8007 10.5922 16.3237 10.5889C15.8467 10.5855 15.3741 10.6806 14.9344 10.8683C15.0523 10.5958 15.2458 10.3639 15.4914 10.201C15.737 10.0381 16.024 9.95123 16.3174 9.9509ZM12.6589 19.4154V16.1376C12.6589 16.1059 12.6732 16.0724 12.6732 16.0378C12.6732 16.0033 12.6589 15.9698 12.6589 15.9382V14.9923C12.6605 14.8744 12.7042 14.761 12.7819 14.6732C12.8596 14.5855 12.9661 14.5293 13.0816 14.5152C13.0945 14.5167 13.1108 14.5093 13.1239 14.5093C13.1461 14.5093 13.1706 14.4944 13.1917 14.4944H15.9297V22.609H15.8028C14.9695 22.6045 14.1716 22.2664 13.5828 21.6683C12.994 21.0703 12.662 20.2605 12.6589 19.4154ZM16.7805 22.609H16.6306V14.4941H19.4088C19.4297 14.4941 19.4513 14.509 19.4734 14.509C19.4829 14.509 19.4869 14.5126 19.4962 14.5118C19.6096 14.5288 19.7131 14.5868 19.7876 14.6751C19.8621 14.7634 19.9025 14.8761 19.9014 14.9923V17.9225C19.9014 17.96 19.8806 18.0001 19.8806 18.0422C19.8806 18.0842 19.9014 18.1244 19.9014 18.1618V19.4154C19.9014 21.1666 18.5072 22.609 16.7805 22.609Z"/>
</mask>
<path d="M21.2865 16.3895C21.7077 16.3901 22.1119 16.2214 22.4106 15.9203C22.7093 15.6192 22.8782 15.2103 22.8802 14.7832V14.6303C22.8802 14.536 22.8433 14.4456 22.7775 14.379C22.7118 14.3123 22.6227 14.2749 22.5297 14.2749C22.4368 14.2749 22.3477 14.3123 22.2819 14.379C22.2162 14.4456 22.1793 14.536 22.1793 14.6303V14.7832C22.1775 15.0218 22.0826 15.2501 21.9153 15.4179C21.7479 15.5857 21.5219 15.6795 21.2865 15.6787H20.6023V14.9923C20.603 14.7431 20.5264 14.5 20.3834 14.2973C20.2403 14.0946 20.0381 13.9427 19.8053 13.863C19.7632 13.3376 19.6061 12.8283 19.3454 12.3723L20.5725 10.9671C20.603 10.9322 20.6264 10.8916 20.6414 10.8475C20.6564 10.8034 20.6627 10.7568 20.6599 10.7102C20.6572 10.6637 20.6454 10.6182 20.6253 10.5762C20.6052 10.5343 20.5771 10.4968 20.5427 10.4659C20.5083 10.435 20.4682 10.4112 20.4248 10.396C20.3813 10.3808 20.3353 10.3744 20.2894 10.3772C20.2435 10.38 20.1986 10.3919 20.1573 10.4123C20.116 10.4327 20.079 10.4612 20.0485 10.4961L18.926 11.7829C18.8028 11.6431 18.6691 11.5132 18.526 11.3945C18.5038 10.8179 18.2632 10.2722 17.8543 9.87087C17.4454 9.46958 16.8997 9.24363 16.3307 9.24003C15.7617 9.23644 15.2132 9.45548 14.7994 9.85158C14.3856 10.2477 14.1384 10.7903 14.1091 11.3666C13.9865 11.4657 13.8704 11.5728 13.7618 11.6874L12.617 10.3748C12.5865 10.3398 12.5495 10.3113 12.5082 10.2908C12.4668 10.2704 12.4219 10.2584 12.3759 10.2555C12.33 10.2527 12.284 10.259 12.2404 10.2742C12.1969 10.2894 12.1568 10.3131 12.1223 10.3441C12.0879 10.375 12.0597 10.4125 12.0395 10.4544C12.0194 10.4964 12.0075 10.5419 12.0047 10.5885C12.0019 10.6351 12.0082 10.6818 12.0232 10.7259C12.0381 10.7701 12.0615 10.8108 12.092 10.8457L13.3221 12.2559C13.0185 12.7378 12.834 13.2868 12.7842 13.8564C12.5457 13.9329 12.3373 14.084 12.1889 14.2881C12.0405 14.4922 11.9597 14.7387 11.9581 14.9923V15.6787H11.2738C11.0385 15.6795 10.8124 15.5857 10.6451 15.4179C10.4778 15.2501 10.3829 15.0219 10.3811 14.7832V14.6303C10.3811 14.536 10.3441 14.4456 10.2784 14.379C10.2127 14.3123 10.1236 14.2749 10.0306 14.2749C9.93768 14.2749 9.84854 14.3123 9.78282 14.379C9.7171 14.4456 9.68018 14.536 9.68018 14.6303V14.7832C9.68215 15.2103 9.851 15.6192 10.1497 15.9203C10.4484 16.2214 10.8527 16.3901 11.2738 16.3895H11.9581V17.6334H11.6026C10.7272 17.6334 10.0306 18.3672 10.0306 19.255V19.718C10.0306 19.8122 10.0675 19.9026 10.1333 19.9693C10.199 20.0359 10.2881 20.0734 10.3811 20.0734C10.474 20.0734 10.5631 20.0359 10.6289 19.9693C10.6946 19.9026 10.7315 19.8122 10.7315 19.718V19.255C10.7297 19.1371 10.7508 19.0201 10.7936 18.9106C10.8364 18.801 10.9001 18.7011 10.981 18.6165C11.0619 18.5319 11.1584 18.4643 11.2651 18.4176C11.3718 18.3709 11.4865 18.3459 11.6026 18.3442H11.9581V19.4154C11.9599 19.8717 12.0413 20.324 12.1984 20.7516C11.8223 20.8085 11.4789 21.0008 11.2311 21.2932C10.9832 21.5857 10.8473 21.9588 10.8483 22.3445V22.8163C10.8483 22.9105 10.8852 23.0009 10.951 23.0676C11.0167 23.1342 11.1058 23.1717 11.1988 23.1717C11.2917 23.1717 11.3808 23.1342 11.4466 23.0676C11.5123 23.0009 11.5492 22.9105 11.5492 22.8163V22.3447C11.5492 21.8489 11.9454 21.4245 12.4344 21.4245H12.5363C13.2112 22.55 14.4228 23.32 15.8029 23.32H16.7806C17.4437 23.3179 18.095 23.1424 18.6716 22.8103C19.2482 22.4783 19.7306 22.001 20.0721 21.4245H20.2415C20.3567 21.4224 20.4713 21.4434 20.5785 21.4865C20.6856 21.5296 20.7833 21.5939 20.8658 21.6756C20.9483 21.7573 21.0139 21.8548 21.0589 21.9624C21.1039 22.0701 21.1274 22.1857 21.128 22.3027V22.8163C21.128 22.9105 21.1649 23.0009 21.2306 23.0676C21.2963 23.1342 21.3855 23.1717 21.4784 23.1717C21.5713 23.1717 21.6605 23.1342 21.7262 23.0676C21.7919 23.0009 21.8288 22.9105 21.8288 22.8163V22.3029C21.8272 21.9028 21.6793 21.5174 21.4138 21.2215C21.1482 20.9255 20.7839 20.7399 20.3912 20.7007C20.5328 20.2874 20.6042 19.8529 20.6023 19.4154V18.4034H21.0321C21.521 18.4034 21.9457 18.8009 21.9457 19.2968V19.718C21.9457 19.8122 21.9826 19.9026 22.0483 19.9693C22.114 20.0359 22.2032 20.0734 22.2961 20.0734C22.389 20.0734 22.4782 20.0359 22.5439 19.9693C22.6096 19.9026 22.6465 19.8122 22.6465 19.718V19.2968C22.6465 18.409 21.9075 17.6926 21.0321 17.6926H20.6023V16.3895H21.2865ZM13.5009 13.7833C13.6769 12.4209 14.8647 11.2823 16.3003 11.2823C17.736 11.2823 18.9237 12.4209 19.0997 13.7833H13.5009ZM16.3174 9.9509C16.6145 9.95124 16.9048 10.0403 17.1523 10.2069C17.3998 10.3735 17.5935 10.6103 17.7091 10.8877C17.2721 10.6939 16.8007 10.5922 16.3237 10.5889C15.8467 10.5855 15.3741 10.6806 14.9344 10.8683C15.0523 10.5958 15.2458 10.3639 15.4914 10.201C15.737 10.0381 16.024 9.95123 16.3174 9.9509ZM12.6589 19.4154V16.1376C12.6589 16.1059 12.6732 16.0724 12.6732 16.0378C12.6732 16.0033 12.6589 15.9698 12.6589 15.9382V14.9923C12.6605 14.8744 12.7042 14.761 12.7819 14.6732C12.8596 14.5855 12.9661 14.5293 13.0816 14.5152C13.0945 14.5167 13.1108 14.5093 13.1239 14.5093C13.1461 14.5093 13.1706 14.4944 13.1917 14.4944H15.9297V22.609H15.8028C14.9695 22.6045 14.1716 22.2664 13.5828 21.6683C12.994 21.0703 12.662 20.2605 12.6589 19.4154ZM16.7805 22.609H16.6306V14.4941H19.4088C19.4297 14.4941 19.4513 14.509 19.4734 14.509C19.4829 14.509 19.4869 14.5126 19.4962 14.5118C19.6096 14.5288 19.7131 14.5868 19.7876 14.6751C19.8621 14.7634 19.9025 14.8761 19.9014 14.9923V17.9225C19.9014 17.96 19.8806 18.0001 19.8806 18.0422C19.8806 18.0842 19.9014 18.1244 19.9014 18.1618V19.4154C19.9014 21.1666 18.5072 22.609 16.7805 22.609Z" fill="white"/>
<path d="M21.2865 16.3895C21.7077 16.3901 22.1119 16.2214 22.4106 15.9203C22.7093 15.6192 22.8782 15.2103 22.8802 14.7832V14.6303C22.8802 14.536 22.8433 14.4456 22.7775 14.379C22.7118 14.3123 22.6227 14.2749 22.5297 14.2749C22.4368 14.2749 22.3477 14.3123 22.2819 14.379C22.2162 14.4456 22.1793 14.536 22.1793 14.6303V14.7832C22.1775 15.0218 22.0826 15.2501 21.9153 15.4179C21.7479 15.5857 21.5219 15.6795 21.2865 15.6787H20.6023V14.9923C20.603 14.7431 20.5264 14.5 20.3834 14.2973C20.2403 14.0946 20.0381 13.9427 19.8053 13.863C19.7632 13.3376 19.6061 12.8283 19.3454 12.3723L20.5725 10.9671C20.603 10.9322 20.6264 10.8916 20.6414 10.8475C20.6564 10.8034 20.6627 10.7568 20.6599 10.7102C20.6572 10.6637 20.6454 10.6182 20.6253 10.5762C20.6052 10.5343 20.5771 10.4968 20.5427 10.4659C20.5083 10.435 20.4682 10.4112 20.4248 10.396C20.3813 10.3808 20.3353 10.3744 20.2894 10.3772C20.2435 10.38 20.1986 10.3919 20.1573 10.4123C20.116 10.4327 20.079 10.4612 20.0485 10.4961L18.926 11.7829C18.8028 11.6431 18.6691 11.5132 18.526 11.3945C18.5038 10.8179 18.2632 10.2722 17.8543 9.87087C17.4454 9.46958 16.8997 9.24363 16.3307 9.24003C15.7617 9.23644 15.2132 9.45548 14.7994 9.85158C14.3856 10.2477 14.1384 10.7903 14.1091 11.3666C13.9865 11.4657 13.8704 11.5728 13.7618 11.6874L12.617 10.3748C12.5865 10.3398 12.5495 10.3113 12.5082 10.2908C12.4668 10.2704 12.4219 10.2584 12.3759 10.2555C12.33 10.2527 12.284 10.259 12.2404 10.2742C12.1969 10.2894 12.1568 10.3131 12.1223 10.3441C12.0879 10.375 12.0597 10.4125 12.0395 10.4544C12.0194 10.4964 12.0075 10.5419 12.0047 10.5885C12.0019 10.6351 12.0082 10.6818 12.0232 10.7259C12.0381 10.7701 12.0615 10.8108 12.092 10.8457L13.3221 12.2559C13.0185 12.7378 12.834 13.2868 12.7842 13.8564C12.5457 13.9329 12.3373 14.084 12.1889 14.2881C12.0405 14.4922 11.9597 14.7387 11.9581 14.9923V15.6787H11.2738C11.0385 15.6795 10.8124 15.5857 10.6451 15.4179C10.4778 15.2501 10.3829 15.0219 10.3811 14.7832V14.6303C10.3811 14.536 10.3441 14.4456 10.2784 14.379C10.2127 14.3123 10.1236 14.2749 10.0306 14.2749C9.93768 14.2749 9.84854 14.3123 9.78282 14.379C9.7171 14.4456 9.68018 14.536 9.68018 14.6303V14.7832C9.68215 15.2103 9.851 15.6192 10.1497 15.9203C10.4484 16.2214 10.8527 16.3901 11.2738 16.3895H11.9581V17.6334H11.6026C10.7272 17.6334 10.0306 18.3672 10.0306 19.255V19.718C10.0306 19.8122 10.0675 19.9026 10.1333 19.9693C10.199 20.0359 10.2881 20.0734 10.3811 20.0734C10.474 20.0734 10.5631 20.0359 10.6289 19.9693C10.6946 19.9026 10.7315 19.8122 10.7315 19.718V19.255C10.7297 19.1371 10.7508 19.0201 10.7936 18.9106C10.8364 18.801 10.9001 18.7011 10.981 18.6165C11.0619 18.5319 11.1584 18.4643 11.2651 18.4176C11.3718 18.3709 11.4865 18.3459 11.6026 18.3442H11.9581V19.4154C11.9599 19.8717 12.0413 20.324 12.1984 20.7516C11.8223 20.8085 11.4789 21.0008 11.2311 21.2932C10.9832 21.5857 10.8473 21.9588 10.8483 22.3445V22.8163C10.8483 22.9105 10.8852 23.0009 10.951 23.0676C11.0167 23.1342 11.1058 23.1717 11.1988 23.1717C11.2917 23.1717 11.3808 23.1342 11.4466 23.0676C11.5123 23.0009 11.5492 22.9105 11.5492 22.8163V22.3447C11.5492 21.8489 11.9454 21.4245 12.4344 21.4245H12.5363C13.2112 22.55 14.4228 23.32 15.8029 23.32H16.7806C17.4437 23.3179 18.095 23.1424 18.6716 22.8103C19.2482 22.4783 19.7306 22.001 20.0721 21.4245H20.2415C20.3567 21.4224 20.4713 21.4434 20.5785 21.4865C20.6856 21.5296 20.7833 21.5939 20.8658 21.6756C20.9483 21.7573 21.0139 21.8548 21.0589 21.9624C21.1039 22.0701 21.1274 22.1857 21.128 22.3027V22.8163C21.128 22.9105 21.1649 23.0009 21.2306 23.0676C21.2963 23.1342 21.3855 23.1717 21.4784 23.1717C21.5713 23.1717 21.6605 23.1342 21.7262 23.0676C21.7919 23.0009 21.8288 22.9105 21.8288 22.8163V22.3029C21.8272 21.9028 21.6793 21.5174 21.4138 21.2215C21.1482 20.9255 20.7839 20.7399 20.3912 20.7007C20.5328 20.2874 20.6042 19.8529 20.6023 19.4154V18.4034H21.0321C21.521 18.4034 21.9457 18.8009 21.9457 19.2968V19.718C21.9457 19.8122 21.9826 19.9026 22.0483 19.9693C22.114 20.0359 22.2032 20.0734 22.2961 20.0734C22.389 20.0734 22.4782 20.0359 22.5439 19.9693C22.6096 19.9026 22.6465 19.8122 22.6465 19.718V19.2968C22.6465 18.409 21.9075 17.6926 21.0321 17.6926H20.6023V16.3895H21.2865ZM13.5009 13.7833C13.6769 12.4209 14.8647 11.2823 16.3003 11.2823C17.736 11.2823 18.9237 12.4209 19.0997 13.7833H13.5009ZM16.3174 9.9509C16.6145 9.95124 16.9048 10.0403 17.1523 10.2069C17.3998 10.3735 17.5935 10.6103 17.7091 10.8877C17.2721 10.6939 16.8007 10.5922 16.3237 10.5889C15.8467 10.5855 15.3741 10.6806 14.9344 10.8683C15.0523 10.5958 15.2458 10.3639 15.4914 10.201C15.737 10.0381 16.024 9.95123 16.3174 9.9509ZM12.6589 19.4154V16.1376C12.6589 16.1059 12.6732 16.0724 12.6732 16.0378C12.6732 16.0033 12.6589 15.9698 12.6589 15.9382V14.9923C12.6605 14.8744 12.7042 14.761 12.7819 14.6732C12.8596 14.5855 12.9661 14.5293 13.0816 14.5152C13.0945 14.5167 13.1108 14.5093 13.1239 14.5093C13.1461 14.5093 13.1706 14.4944 13.1917 14.4944H15.9297V22.609H15.8028C14.9695 22.6045 14.1716 22.2664 13.5828 21.6683C12.994 21.0703 12.662 20.2605 12.6589 19.4154ZM16.7805 22.609H16.6306V14.4941H19.4088C19.4297 14.4941 19.4513 14.509 19.4734 14.509C19.4829 14.509 19.4869 14.5126 19.4962 14.5118C19.6096 14.5288 19.7131 14.5868 19.7876 14.6751C19.8621 14.7634 19.9025 14.8761 19.9014 14.9923V17.9225C19.9014 17.96 19.8806 18.0001 19.8806 18.0422C19.8806 18.0842 19.9014 18.1244 19.9014 18.1618V19.4154C19.9014 21.1666 18.5072 22.609 16.7805 22.609Z" stroke="white" stroke-width="1.2" mask="url(#path-13-outside-1_367:369)"/>
</svg>
