<svg width="44" height="44" viewBox="0 0 44 44" fill="none" xmlns="http://www.w3.org/2000/svg">
<path d="M35.4471 9.1411C35.4471 9.1411 35.4475 9.14401 35.448 9.15042C35.4472 9.14441 35.4471 9.1411 35.4471 9.1411Z" fill="white"/>
<path d="M21.9696 5.70802C26.462 7.06247 30.9552 8.41248 35.4493 9.75807V24.812C35.4499 25.7491 35.2563 26.6761 34.8808 27.5344L34.8793 27.5378L34.8778 27.5412C34.1111 29.3103 32.8455 30.7979 31.2406 32.2638C29.1438 34.1784 26.768 35.7679 24.2007 37.1826C23.5399 37.546 22.8848 37.8774 22.1918 38.2279C22.1188 38.2648 22.0454 38.3019 21.9715 38.3393C19.6804 37.2485 17.4916 35.9533 15.4318 34.4692C13.3324 32.9564 11.5105 31.361 10.1263 29.4121L10.1246 29.4096C9.06486 27.9219 8.48643 26.4359 8.48643 24.8106V9.75786C12.9822 8.41013 17.4766 7.06019 21.9696 5.70802Z" fill="white"/>
<path d="M8.48852 9.14377C8.48852 9.14377 8.4884 9.14681 8.48771 9.15235C8.4881 9.14645 8.48852 9.14377 8.48852 9.14377Z" fill="white"/>
<path d="M7.90734 9.93285C7.90203 9.9352 7.89903 9.93623 7.89903 9.93623C7.89903 9.93623 7.90156 9.93501 7.90734 9.93285Z" fill="white"/>
<path d="M36.0401 9.93719C36.0401 9.93719 36.037 9.93615 36.0317 9.93378C36.0375 9.93596 36.0401 9.93719 36.0401 9.93719Z" fill="white"/>
<path fill-rule="evenodd" clip-rule="evenodd" d="M21.6145 44H22.3009C22.6446 43.8238 22.9889 43.6497 23.333 43.4758C24.1719 43.0518 25.0094 42.6285 25.8329 42.176C28.9976 40.4336 31.9925 38.4398 34.6662 36.0003C36.6954 34.1483 38.4851 32.1019 39.5958 29.541C40.1819 28.2025 40.484 26.7569 40.4831 25.2957V6.81161C40.4831 5.89745 40.177 5.48495 39.3015 5.22284C33.737 3.55852 28.1736 1.88847 22.6113 0.212687C22.1887 0.0794748 21.7353 0.0794748 21.3126 0.212687C15.7496 1.8856 10.1848 3.55566 4.61817 5.22284C3.74697 5.48495 3.43652 5.89745 3.43652 6.81161V25.2957C3.43652 27.8835 4.37539 30.149 5.85029 32.218C7.71943 34.8476 10.1278 36.9273 12.7253 38.7976C15.4978 40.7936 18.458 42.5151 21.564 43.9377C21.5791 43.9445 21.59 43.9619 21.6007 43.9792C21.6052 43.9864 21.6097 43.9936 21.6145 44ZM21.4218 3.62928C21.7784 3.51679 22.161 3.51679 22.5176 3.62928C27.2111 5.0444 31.9054 6.45467 36.6007 7.86011C37.3394 8.08145 37.5978 8.42978 37.5978 9.20174V24.8106C37.5985 26.0446 37.3436 27.2652 36.849 28.3956C35.9118 30.5582 34.4017 32.2862 32.6895 33.8501C30.4334 35.9102 27.9063 37.5938 25.236 39.0652C24.5411 39.4473 23.8344 39.8048 23.1265 40.1628C22.8362 40.3097 22.5457 40.4567 22.2557 40.6055H21.6765C21.6724 40.6001 21.6686 40.594 21.6648 40.5879C21.6558 40.5733 21.6466 40.5586 21.6339 40.5528C19.013 39.3516 16.5152 37.8978 14.1758 36.2123C11.9841 34.633 9.95189 32.8768 8.37472 30.6561C7.1302 28.909 6.33799 26.9959 6.33799 24.8106V9.20174C6.33799 8.42978 6.59995 8.08145 7.33505 7.86011C12.0321 6.45225 16.7277 5.04198 21.4218 3.62928Z" fill="white"/>
</svg>
