<svg width="44" height="44" viewBox="0 0 44 44" fill="none" xmlns="http://www.w3.org/2000/svg">
<path fill-rule="evenodd" clip-rule="evenodd" d="M19.8137 43.992H24.2721C24.4474 43.8757 24.5794 43.705 24.648 43.5061C24.9726 42.6659 25.2954 41.8256 25.6162 40.9853C25.6672 40.8373 25.7568 40.7056 25.8756 40.6037C25.9944 40.5018 26.1382 40.4334 26.2922 40.4055C28.2574 39.914 30.1342 39.2081 31.853 38.1139C32.2735 37.8446 32.6425 37.8274 33.0916 38.0451C33.5546 38.271 34.027 38.4774 34.4995 38.6838C34.8515 38.8375 35.2035 38.9912 35.5517 39.1531C35.9081 39.3181 36.1819 39.2826 36.4684 38.9893C37.2972 38.1414 38.1356 37.303 38.9835 36.4742C39.278 36.1866 39.3078 35.9104 39.1439 35.5575C38.9906 35.2278 38.8455 34.8943 38.7005 34.5611C38.4924 34.0825 38.2843 33.6042 38.0519 33.1375C37.8136 32.6574 37.8445 32.2678 38.1276 31.8209C39.1978 30.1274 39.9128 28.2849 40.3711 26.337C40.3988 26.1752 40.4695 26.0238 40.5757 25.8986C40.6819 25.7734 40.8198 25.6791 40.975 25.6254C41.3259 25.496 41.6746 25.3607 42.0233 25.2254C42.4465 25.0613 42.8698 24.897 43.2976 24.7431C43.568 24.6469 43.8338 24.5449 43.9851 24.2733V19.8149C43.834 19.5448 43.5676 19.4451 43.2987 19.3444L43.2976 19.344C42.9905 19.229 42.6845 19.1113 42.3783 18.9935C41.9247 18.819 41.4709 18.6444 41.0139 18.4789C40.8505 18.4269 40.7043 18.3314 40.591 18.2026C40.4778 18.0738 40.4018 17.9166 40.3711 17.7478C39.9193 15.7663 39.1397 13.874 38.0645 12.1493C37.9548 11.9918 37.8911 11.8068 37.8808 11.615C37.8705 11.4233 37.9139 11.2326 38.0061 11.0642C38.275 10.499 38.5262 9.92629 38.7772 9.3538C38.8932 9.08946 39.0091 8.82516 39.1267 8.56167C39.3525 8.05406 39.3399 7.98417 38.9445 7.58313C38.1325 6.75889 37.3144 5.94077 36.4902 5.12875C36.0983 4.74261 36.0238 4.73 35.5105 4.95917C35.2741 5.0643 35.0374 5.16786 34.8008 5.2714C34.2277 5.52222 33.6548 5.77291 33.087 6.04542C32.6562 6.25167 32.2953 6.25396 31.8851 5.99157C30.1698 4.89729 28.2917 4.18229 26.3266 3.69417C26.1588 3.66293 26.0024 3.58707 25.874 3.47457C25.7456 3.36207 25.6498 3.21707 25.5967 3.05479C25.4509 2.66359 25.2996 2.27411 25.1483 1.88453C24.9739 1.43542 24.7994 0.986169 24.6331 0.533961C24.5116 0.186773 24.3191 0.0469818 23.9456 0.0469818C22.6737 0.0618776 21.4018 0.059586 20.1311 0.0469818C19.7816 0.0469818 19.5845 0.169586 19.4585 0.505315C19.2702 1.01215 19.0749 1.51665 18.8796 2.02108C18.7398 2.38222 18.6 2.74331 18.4628 3.10521C18.4092 3.26072 18.3147 3.39895 18.1893 3.5054C18.0639 3.61184 17.9122 3.68259 17.7501 3.71021C15.7958 4.15355 13.9291 4.91995 12.2271 5.97782C11.7997 6.24823 11.4228 6.24136 10.9828 6.0374C10.1807 5.66386 9.37326 5.30139 8.56048 4.95C8.06662 4.73573 7.991 4.73688 7.61631 5.10584C6.78215 5.92931 5.95371 6.75736 5.131 7.59C4.74027 7.98532 4.72652 8.05636 4.95569 8.56969C5.04258 8.76843 5.12758 8.96843 5.21263 9.16856C5.45171 9.73111 5.6912 10.2946 5.97434 10.8339C6.28371 11.4217 6.20923 11.8811 5.86548 12.4185C4.85371 14.0124 4.18683 15.7564 3.75027 17.5897C3.63569 18.0709 3.41913 18.3746 2.94819 18.5361C2.46253 18.703 1.98445 18.8909 1.50641 19.0788C1.17352 19.2097 0.840649 19.3406 0.505271 19.4643C0.190167 19.5789 0.0469378 19.7496 0.0469378 20.0933C0.0576323 21.3919 0.0576323 22.6906 0.0469378 23.9892C0.0435003 24.3272 0.181 24.5082 0.493812 24.6228C0.989742 24.809 1.48344 25.0001 1.97702 25.1911C2.34901 25.3351 2.72094 25.479 3.09371 25.6208C3.24954 25.6731 3.38845 25.7663 3.4959 25.8907C3.60334 26.0151 3.67537 26.166 3.70444 26.3278C4.15394 28.3103 4.93326 30.2032 6.00986 31.9275C6.25163 32.3114 6.25162 32.6528 6.06142 33.0516C5.84285 33.5104 5.63846 33.9759 5.43406 34.4414C5.2709 34.8131 5.10774 35.1847 4.93735 35.5529C4.77465 35.8967 4.78954 36.1774 5.08975 36.4696C5.86072 37.217 6.61609 37.98 7.37147 38.7429C7.46033 38.8327 7.5492 38.9225 7.63808 39.0122C7.90965 39.286 8.16746 39.325 8.51923 39.1646C8.80354 39.0339 9.0903 38.9079 9.37704 38.7819C9.87499 38.563 10.3729 38.3441 10.8579 38.1013C11.4262 37.8182 11.8834 37.8835 12.4093 38.2158C14.0295 39.2402 15.8033 39.9105 17.663 40.3551C18.0766 40.4536 18.3482 40.6507 18.496 41.0575C18.7277 41.697 18.9747 42.3303 19.2218 42.9638C19.2913 43.1418 19.3607 43.3199 19.4299 43.4981C19.4988 43.7011 19.634 43.8751 19.8137 43.992ZM19.917 28.8662C20.6265 28.8655 21.3361 28.8647 22.0457 28.8647C22.7912 28.8647 23.5367 28.8669 24.282 28.8691C25.6788 28.8733 27.075 28.8774 28.4693 28.867C30.9706 28.8464 32.3376 26.4344 31.1047 24.263C30.8852 23.8761 30.6617 23.4909 30.4383 23.1059C30.3468 22.9481 30.2552 22.7903 30.164 22.6325C29.6192 21.6892 29.0753 20.7454 28.5316 19.8016C27.2443 17.5675 25.9572 15.3337 24.6571 13.1072C23.4414 11.0218 20.6352 11.0252 19.4241 13.1072C18.1464 15.3055 16.8764 17.5083 15.6064 19.7109C14.7237 21.2418 13.841 22.7727 12.9559 24.302C12.5539 24.9539 12.4185 25.7356 12.5777 26.4848C12.8951 27.948 14.0696 28.8578 15.66 28.8647C17.0793 28.8693 18.498 28.8677 19.917 28.8662Z" fill="white"/>
<path d="M22.8226 22.0206C22.8146 22.566 22.4984 22.9029 22.0366 22.8983C21.5748 22.8938 21.2849 22.5546 21.2643 22.0046C21.2013 20.2858 21.144 18.5785 21.0764 16.8655C21.0626 16.5023 21.1016 16.1597 21.4545 15.9787C21.6334 15.8873 21.831 15.8387 22.0318 15.8367C22.2326 15.8347 22.4312 15.8794 22.6118 15.9672C22.9556 16.123 23.022 16.4416 23.0163 16.7968C22.9943 18.6204 22.8415 20.2015 22.8226 22.0206Z" fill="white"/>
<path d="M22.032 26.683C21.9017 26.6802 21.7732 26.6518 21.6539 26.5994C21.5346 26.5469 21.4267 26.4715 21.3366 26.3774C21.2464 26.2833 21.1756 26.1723 21.1283 26.0509C21.081 25.9294 21.0581 25.7998 21.0609 25.6695C21.0637 25.5392 21.0921 25.4107 21.1446 25.2914C21.197 25.1721 21.2724 25.0643 21.3665 24.9741C21.4607 24.8839 21.5716 24.8132 21.6931 24.7659C21.8145 24.7186 21.9441 24.6957 22.0744 24.6984C22.2047 24.7012 22.3332 24.7296 22.4525 24.7821C22.5719 24.8345 22.6797 24.91 22.7699 25.0041C22.86 25.0982 22.9308 25.2091 22.9781 25.3306C23.0254 25.452 23.0483 25.5816 23.0455 25.7119C23.0427 25.8422 23.0143 25.9707 22.9619 26.0901C22.9094 26.2094 22.834 26.3172 22.7399 26.4074C22.6458 26.4976 22.5348 26.5683 22.4134 26.6156C22.2919 26.6629 22.1623 26.6858 22.032 26.683Z" fill="white"/>
</svg>
