<svg width="44" height="44" viewBox="0 0 44 44" fill="none" xmlns="http://www.w3.org/2000/svg">
<g clip-path="url(#clip0_522:46)">
<path d="M4.45985 44H3.4286C3.08569 43.9087 2.74762 43.8001 2.41568 43.6746C-0.113172 42.5895 -0.711298 39.3594 1.26985 37.3725C4.5729 34.0458 7.88704 30.7294 11.2122 27.4232C11.2684 27.3671 11.3337 27.3178 11.4804 27.1941L13.1991 28.938L14.526 27.6123C14.4366 27.4977 14.3163 27.3591 14.204 27.2113C10.6176 22.5191 9.57943 17.3078 11.3784 11.6887C13.9451 3.66783 21.7974 -1.01749 30.1093 0.330013C36.6406 1.38991 42.1177 6.55533 43.5625 13.0488C43.7573 13.9219 43.857 14.8168 44.0014 15.7014V17.9312C43.97 18.0393 43.9462 18.1496 43.9304 18.2612C43.813 19.6573 43.5192 21.0329 43.0561 22.3552C40.2282 30.6488 31.0306 35.3902 22.6408 32.8866C20.3869 32.2172 18.2961 31.0881 16.5003 29.5705L15.0737 30.9455L16.9139 32.7594C16.7594 32.8489 16.6129 32.9516 16.4762 33.0665C13.4294 36.1064 10.3769 39.1394 7.35308 42.2011C6.52006 43.0467 5.66068 43.7846 4.45985 44ZM20.8682 15.5375H18.3004V18.103H20.8682V20.672H18.2981V23.2387C19.468 23.2387 20.6092 23.2467 21.7505 23.2387C21.8749 23.2291 21.9997 23.2509 22.1136 23.3019C22.2275 23.3529 22.3268 23.4316 22.4025 23.5308C24.9897 26.5742 29.5398 26.5811 32.1329 23.5469C32.2125 23.4419 32.3171 23.3586 32.4372 23.3043C32.5573 23.2501 32.689 23.2267 32.8204 23.2364C33.9662 23.2536 35.0994 23.2432 36.2579 23.2432V20.6594H33.6878V18.0732H36.2579V15.5077H33.674V12.9365H36.2602V10.371H35.8236C34.7809 10.371 33.737 10.371 32.6932 10.371C32.5565 10.378 32.4213 10.3402 32.3082 10.2632C31.7227 9.72699 31.1532 9.17241 30.5447 8.59033C30.8621 8.00595 31.1601 7.32303 31.1177 6.52782H28.6048C28.3596 7.38835 27.9529 7.80657 27.3078 7.78824C27.0499 7.78022 26.7348 7.71262 26.5572 7.54762C26.2754 7.27949 26.0886 6.90939 25.8273 6.53355H23.4326C23.3902 7.33564 23.695 8.01512 24.0456 8.66939C23.7018 8.92376 23.3157 9.09678 23.1094 9.39699C22.4311 10.3858 21.4789 10.489 20.4213 10.379C20.1358 10.3641 19.8497 10.3641 19.5642 10.379H18.3038V12.9674H20.8693L20.8682 15.5375Z" fill="white"/>
<path d="M23.4174 15.5341H31.1013C31.118 15.6295 31.1284 15.726 31.1322 15.8228C31.1116 17.2345 31.2033 18.661 31.036 20.0555C30.7999 22.0252 28.9414 23.3865 26.958 23.2295C26.0096 23.1488 25.1242 22.7211 24.4715 22.0282C23.8189 21.3354 23.4447 20.4261 23.4208 19.4746C23.4002 18.1764 23.4174 16.8781 23.4174 15.5341Z" fill="white"/>
<path d="M30.841 12.925H23.7036C24.084 11.4836 25.6687 10.3652 27.2981 10.3721C28.9068 10.379 30.4847 11.5111 30.841 12.925Z" fill="white"/>
</g>
<defs>
<clipPath id="clip0_522:46">
<rect width="44" height="44" fill="white"/>
</clipPath>
</defs>
</svg>
