<svg width="46" height="46" viewBox="0 0 46 46" fill="none" xmlns="http://www.w3.org/2000/svg">
<mask id="path-1-outside-1_367:414" maskUnits="userSpaceOnUse" x="0" y="0" width="46" height="46" fill="black">
<rect fill="white" width="46" height="46"/>
<path fill-rule="evenodd" clip-rule="evenodd" d="M40.4715 23.609C40.5768 23.9954 40.7817 24.3475 41.0653 24.6304C41.8025 25.3665 42.9422 25.5166 43.8451 24.9971C44.7481 24.4772 45.19 23.4165 44.9227 22.4097C44.6557 21.4029 43.7459 20.7004 42.7041 20.6963C41.6618 20.6922 40.7467 21.3873 40.4715 22.392H37.0011V19.2627H38.6167C38.9649 19.2542 39.2469 18.9775 39.2622 18.6298V15.0903H40.0917C40.2025 15.4761 40.4056 15.8292 40.6842 16.1188C41.584 17.0166 43.0421 17.0159 43.9409 16.1168C44.8398 15.2177 44.8398 13.7603 43.9409 12.8612C43.0421 11.9621 41.584 11.9614 40.6842 12.8591C40.4063 13.1434 40.2028 13.4917 40.0917 13.8734H38.6167C38.2804 13.8734 38.0447 14.16 38.0447 14.4965V18.0458H37.0011V12.2772C37.0011 10.504 35.5454 9.09251 33.7712 9.09251H27.7828V7.96249H31.5077C31.8437 7.96249 32.1311 7.72684 32.1311 7.39068V5.91636C32.5129 5.80532 32.8611 5.60193 33.1454 5.32418C33.8102 4.66409 34.0106 3.66853 33.6536 2.80267C33.2962 1.93682 32.4517 1.37181 31.5148 1.37181C30.5779 1.37181 29.7334 1.93682 29.3764 2.80267C29.019 3.66853 29.2198 4.66409 29.8842 5.32418C30.174 5.60261 30.5273 5.80566 30.9135 5.91636V6.74554H27.1805C26.8442 6.74554 26.5653 7.05453 26.5653 7.39068V9.09251H23.6085V5.53504C24.7245 5.23046 25.4426 4.1473 25.2887 3.00131C25.1348 1.85533 24.1565 1 22.9998 1C21.8431 1 20.8647 1.85533 20.7108 3.00131C20.5569 4.1473 21.2751 5.23046 22.391 5.53504V9.09251H19.2603V7.39068C19.2518 7.04264 18.9753 6.76082 18.6274 6.74554H15.086V5.91636C15.4722 5.80566 15.8255 5.60227 16.1153 5.32418C17.0091 4.42539 17.006 2.97313 16.1085 2.07807C15.2113 1.18268 13.7581 1.18268 12.8609 2.07807C11.9634 2.97313 11.9603 4.42539 12.8541 5.32418C13.1384 5.60193 13.487 5.80532 13.8685 5.91636V7.39068C13.8685 7.72684 14.1555 7.96249 14.4922 7.96249H18.0428V9.09251H12.3153C10.5411 9.09251 9.08542 10.5037 9.08542 12.2772V18.2196H7.95488V14.4965C7.95488 14.1603 7.71912 13.8734 7.38315 13.8734H5.90815C5.79707 13.4917 5.59358 13.1434 5.3157 12.8591C4.65532 12.1953 3.65964 11.995 2.79373 12.3522C1.92782 12.7091 1.36289 13.5529 1.36289 14.489C1.36289 15.4251 1.92782 16.2689 2.79373 16.6261C3.65964 16.983 4.65532 16.783 5.3157 16.1188C5.59392 15.8295 5.79741 15.4761 5.90815 15.0903H6.73737V18.8217C6.73737 19.1575 7.04684 19.4366 7.38315 19.4366H9.08542V22.392H5.5287C5.42339 22.0053 5.21855 21.6532 4.93455 21.3707C4.19739 20.6342 3.05802 20.4841 2.15508 21.004C1.2518 21.5235 0.810186 22.5842 1.07719 23.591C1.34454 24.5978 2.25428 25.3003 3.29615 25.3044C4.33837 25.3084 5.25354 24.6134 5.5287 23.609H9.08542V26.7383H7.38315C7.03495 26.7464 6.75266 27.0232 6.73737 27.3709V30.9107H5.90815C5.79741 30.5246 5.59392 30.1715 5.3157 29.8818C4.4165 28.9895 2.9646 28.9932 2.07015 29.8897C1.17537 30.7861 1.17537 32.2373 2.07015 33.1337C2.9646 34.0301 4.4165 34.0339 5.3157 33.1415C5.59358 32.8573 5.79707 32.5089 5.90815 32.1276H7.38315C7.71912 32.1276 7.95488 31.8407 7.95488 31.5042V27.9552H9.08542V33.7235C9.08542 35.4967 10.5411 36.9085 12.3153 36.9085H18.2167V38.0385H14.4922C14.1559 38.0385 13.8685 38.2738 13.8685 38.61V40.0843C13.487 40.1954 13.1384 40.3988 12.8541 40.6765C12.1896 41.3366 11.9889 42.3321 12.3463 43.198C12.7033 44.0639 13.5478 44.6289 14.4847 44.6289C15.4216 44.6289 16.2661 44.0639 16.6235 43.198C16.9805 42.3321 16.7801 41.3366 16.1153 40.6765C15.8255 40.3981 15.4722 40.195 15.086 40.0843V39.2555H18.819C19.1553 39.2555 19.4342 38.9462 19.4342 38.61V36.9085H22.391V40.4656C21.2754 40.7702 20.5573 41.853 20.7112 42.999C20.8651 44.1447 21.8431 45 22.9998 45C24.1565 45 25.1348 44.1447 25.2884 42.999C25.4422 41.853 24.7245 40.7702 23.6085 40.4656V36.9085H26.7392V38.61C26.7477 38.958 27.0243 39.2399 27.3725 39.2555H30.9135V40.0843C30.5273 40.195 30.174 40.3984 29.8842 40.6765C28.9908 41.5753 28.9939 43.0275 29.8914 43.9226C30.7885 44.8173 32.2415 44.8173 33.1386 43.9226C34.0361 43.0275 34.0392 41.5753 33.1454 40.6765C32.8611 40.3988 32.5129 40.1954 32.1311 40.0843V38.61C32.1311 38.2738 31.844 38.0385 31.5077 38.0385H27.9568V36.9085H33.7712C35.5454 36.9085 37.0011 35.497 37.0011 33.7235V27.7814H38.0447V31.5042C38.0447 31.8404 38.2804 32.1276 38.6167 32.1276H40.0917C40.2028 32.5089 40.4063 32.8573 40.6842 33.1415C41.3446 33.8057 42.3406 34.0064 43.2068 33.6492C44.0731 33.2923 44.638 32.4482 44.638 31.5117C44.638 30.5752 44.0731 29.7311 43.2068 29.3739C42.3406 29.017 41.3446 29.2173 40.6842 29.8818C40.4056 30.1715 40.2021 30.5246 40.0917 30.9107H39.2622V27.179C39.2622 26.8432 38.9527 26.5644 38.6167 26.5644H37.0011V23.609H40.4715ZM41.9265 22.2311C42.2934 21.864 42.8688 21.8073 43.3006 22.0959C43.7323 22.3842 43.9002 22.9374 43.7014 23.4168C43.5027 23.8962 42.9928 24.1686 42.4836 24.0674C41.9744 23.9662 41.6075 23.5193 41.6075 23.0005C41.6075 22.7119 41.7223 22.4352 41.9265 22.2311ZM41.545 13.727C41.8195 13.4496 42.2213 13.3403 42.5987 13.4405C42.9762 13.541 43.2707 13.8354 43.3709 14.2126C43.4711 14.5895 43.3617 14.9915 43.0842 15.2659C42.6585 15.6866 41.9727 15.6846 41.5494 15.2615C41.1261 14.838 41.1241 14.1528 41.545 13.727ZM30.4193 3.69433C30.4193 3.17516 30.7858 2.72865 31.2954 2.62713C31.8046 2.52594 32.3145 2.79826 32.5132 3.27805C32.712 3.75749 32.5441 4.31062 32.1124 4.5989C31.6806 4.88718 31.1051 4.83047 30.7379 4.46376C30.5331 4.26003 30.4183 3.98295 30.4193 3.69433ZM22.2303 2.54394C22.6553 2.11916 23.3442 2.11916 23.7692 2.54394C24.1945 2.96872 24.1945 3.65766 23.7692 4.08244C23.3442 4.50722 22.6553 4.50722 22.2303 4.08244C22.0251 3.87905 21.91 3.60198 21.91 3.31336C21.91 3.0244 22.0251 2.74767 22.2303 2.54394ZM13.4038 3.69433C13.4038 3.17516 13.7703 2.72865 14.2799 2.62713C14.7891 2.52594 15.299 2.79826 15.4977 3.27805C15.6964 3.75749 15.5286 4.31062 15.0968 4.5989C14.6651 4.88718 14.0896 4.83047 13.7224 4.46376C13.5176 4.26003 13.4027 3.98295 13.4038 3.69433ZM4.45455 15.2659C4.02958 15.69 3.34099 15.69 2.91636 15.2652C2.49173 14.8408 2.49173 14.1522 2.91636 13.7277C3.34099 13.3029 4.02958 13.3029 4.45455 13.727C4.66075 13.9304 4.77659 14.2075 4.77659 14.4965C4.77659 14.7858 4.66075 15.0628 4.45455 15.2659ZM4.0734 23.7696C3.70618 24.1366 3.13072 24.1934 2.69895 23.9047C2.26752 23.6165 2.09971 23.0637 2.29844 22.5839C2.49716 22.1044 3.00706 21.8321 3.51628 21.9333C4.0255 22.0345 4.39204 22.4813 4.39204 23.0005C4.39204 23.2888 4.27722 23.5655 4.0734 23.7696ZM4.45455 32.2736C4.18041 32.5511 3.7782 32.6604 3.40078 32.5602C3.02371 32.4597 2.72884 32.1653 2.62863 31.7881C2.52842 31.4112 2.6378 31.0092 2.91534 30.7348C3.34133 30.3141 4.02686 30.3161 4.45013 30.7392C4.87375 31.1626 4.87544 31.8478 4.45455 32.2736ZM15.5806 42.3063C15.5803 42.8248 15.2137 43.2713 14.7048 43.3722C14.1963 43.4734 13.6867 43.2011 13.488 42.722C13.2896 42.2429 13.4571 41.6904 13.8885 41.4021C14.3199 41.1142 14.8947 41.1705 15.2616 41.5373C15.4664 41.7407 15.5813 42.0177 15.5806 42.3063ZM23.7695 43.4567C23.3446 43.8812 22.656 43.8808 22.231 43.4564C21.8064 43.0316 21.8064 42.3434 22.231 41.9186C22.656 41.4941 23.3446 41.4938 23.7695 41.9182C24.1938 42.3434 24.1938 43.0316 23.7695 43.4567ZM32.5965 42.3063C32.5961 42.8248 32.2296 43.2713 31.7207 43.3722C31.2122 43.4734 30.7026 43.2011 30.5039 42.722C30.3055 42.2429 30.473 41.6904 30.9044 41.4021C31.3358 41.1142 31.9106 41.1705 32.2775 41.5373C32.4823 41.7407 32.5968 42.0177 32.5961 42.3063H32.5965ZM35.7836 33.7792C35.7836 34.8831 34.8881 35.7785 33.7834 35.7785H12.3031C11.1984 35.7785 10.3029 34.8831 10.3029 33.7792V12.3087C10.3029 11.2045 11.1984 10.3095 12.3031 10.3095H33.7834C34.8881 10.3095 35.7836 11.2045 35.7836 12.3087V33.7792ZM41.545 30.7348C41.97 30.31 42.6592 30.31 43.0842 30.7348C43.5095 31.1599 43.5095 31.8485 43.0842 32.2736C42.6592 32.6984 41.97 32.6984 41.545 32.2736C41.3391 32.0702 41.2233 31.7932 41.2233 31.5042C41.2233 31.2149 41.3391 30.9378 41.545 30.7348ZM31.3138 21.2562L29.8919 21.119C29.731 20.5361 29.4948 19.9765 29.1892 19.4549L30.0908 18.3681C30.2666 18.1561 30.2528 17.8453 30.0591 17.6495L28.3677 15.9415C28.1724 15.7442 27.8587 15.7287 27.6449 15.9059L26.554 16.8098C26.0307 16.5067 25.4715 16.2709 24.889 16.1077L24.7517 14.6875C24.7254 14.4122 24.4948 14.2015 24.2182 14.2H21.7933C21.5167 14.2015 21.2861 14.4122 21.2598 14.6875L21.1226 16.1056C20.5385 16.2658 19.9778 16.5013 19.4548 16.8065L18.3669 15.9053C18.154 15.729 17.8418 15.7436 17.6462 15.9388L15.9342 17.6468C15.7383 17.8423 15.7234 18.1546 15.9001 18.3678L16.8035 19.457C16.5006 19.9792 16.2647 20.5376 16.1011 21.1187L14.677 21.2565C14.4019 21.2828 14.192 21.5132 14.1914 21.7894V24.2103C14.1917 24.4862 14.4016 24.717 14.6767 24.7436L16.0987 24.8814C16.2596 25.464 16.4958 26.0235 16.8011 26.5454L15.8998 27.632C15.7231 27.8451 15.7377 28.1575 15.9339 28.353L17.6459 30.061C17.8415 30.2562 18.1537 30.2705 18.3663 30.0941L19.4575 29.1899C19.9805 29.493 20.54 29.7292 21.1223 29.8921L21.2595 31.3125C21.2858 31.5878 21.5167 31.7985 21.7933 31.8H24.2188C24.4954 31.7983 24.7257 31.5875 24.752 31.3125L24.8893 29.8942C25.4736 29.734 26.034 29.4984 26.5573 29.1932L27.6452 30.0944C27.8581 30.2708 28.1703 30.2562 28.3659 30.061L30.0779 28.353C30.2738 28.1575 30.2884 27.8451 30.1117 27.632L29.2086 26.5428C29.5115 26.0203 29.7475 25.4619 29.9113 24.8805L31.315 24.7433C31.5896 24.7167 31.7992 24.4862 31.7995 24.2103V21.7894C31.7992 21.5132 31.589 21.2825 31.3138 21.2562ZM30.7271 23.7246L29.432 23.851C29.2011 23.8738 29.0109 24.0417 28.9604 24.268C28.7986 24.9905 28.5076 25.678 28.1018 26.297C27.9736 26.4937 27.9885 26.7508 28.1383 26.9313L28.9744 27.9399L27.9535 28.958L26.944 28.1216C26.7621 27.971 26.5032 27.9569 26.3064 28.0869C25.6901 28.4953 25.0026 28.784 24.2798 28.9388C24.0511 28.9894 23.8812 29.1813 23.8588 29.4144L23.732 30.7287H22.2795L22.1524 29.4144C22.13 29.1816 21.9593 28.9897 21.7305 28.9403C21.0071 28.7801 20.3187 28.4899 19.6991 28.084C19.5027 27.9581 19.247 27.9734 19.0673 28.1222L18.0574 28.9583L17.0365 27.9399L17.8729 26.9313C18.0239 26.7493 18.0377 26.4898 17.9067 26.2929C17.4976 25.678 17.2078 24.992 17.0517 24.2701C17.0018 24.0426 16.8107 23.8732 16.5789 23.851L15.2632 23.724V22.2758L16.5789 22.1487C16.8098 22.1263 17.0003 21.9583 17.0508 21.7317C17.2126 21.0093 17.5036 20.3218 17.9094 19.7027C18.0377 19.506 18.023 19.249 17.8732 19.0684L17.0368 18.0599L18.0574 17.0415L19.067 17.8781C19.2488 18.0291 19.5077 18.0428 19.7048 17.9128C20.3208 17.5045 21.0083 17.2158 21.7311 17.0609C21.9599 17.0104 22.13 16.8185 22.1521 16.5853L22.2795 15.2713H23.732L23.8591 16.5853C23.8812 16.8185 24.0519 17.0101 24.2807 17.0594C25.0041 17.2199 25.6925 17.5099 26.3124 17.9158C26.5089 18.0419 26.7642 18.0264 26.944 17.8775L27.9511 17.043L28.9556 18.0572L28.1171 19.0678C27.9661 19.2502 27.9526 19.5096 28.0836 19.7066C28.4927 20.3215 28.7828 21.0078 28.9389 21.7296C28.9885 21.9571 29.1796 22.1266 29.4116 22.149L30.7271 22.2758V23.7246ZM22.9942 18.6C22.1138 18.6 22.1138 19.5419 22.1138 20.7034V22.6567C22.1138 23.8181 22.1138 24.76 22.9942 24.76C23.8746 24.76 23.8746 23.8181 23.8746 22.6567V20.7034C23.8746 19.5419 23.8746 18.6 22.9942 18.6ZM22.9736 25.64C22.4988 25.64 22.1138 26.0249 22.1138 26.4994V26.5027C22.1138 26.9772 22.4988 27.3603 22.9736 27.3603C23.4485 27.3603 23.8334 26.974 23.8334 26.4994C23.8334 26.0249 23.4485 25.64 22.9736 25.64Z"/>
</mask>
<path fill-rule="evenodd" clip-rule="evenodd" d="M40.4715 23.609C40.5768 23.9954 40.7817 24.3475 41.0653 24.6304C41.8025 25.3665 42.9422 25.5166 43.8451 24.9971C44.7481 24.4772 45.19 23.4165 44.9227 22.4097C44.6557 21.4029 43.7459 20.7004 42.7041 20.6963C41.6618 20.6922 40.7467 21.3873 40.4715 22.392H37.0011V19.2627H38.6167C38.9649 19.2542 39.2469 18.9775 39.2622 18.6298V15.0903H40.0917C40.2025 15.4761 40.4056 15.8292 40.6842 16.1188C41.584 17.0166 43.0421 17.0159 43.9409 16.1168C44.8398 15.2177 44.8398 13.7603 43.9409 12.8612C43.0421 11.9621 41.584 11.9614 40.6842 12.8591C40.4063 13.1434 40.2028 13.4917 40.0917 13.8734H38.6167C38.2804 13.8734 38.0447 14.16 38.0447 14.4965V18.0458H37.0011V12.2772C37.0011 10.504 35.5454 9.09251 33.7712 9.09251H27.7828V7.96249H31.5077C31.8437 7.96249 32.1311 7.72684 32.1311 7.39068V5.91636C32.5129 5.80532 32.8611 5.60193 33.1454 5.32418C33.8102 4.66409 34.0106 3.66853 33.6536 2.80267C33.2962 1.93682 32.4517 1.37181 31.5148 1.37181C30.5779 1.37181 29.7334 1.93682 29.3764 2.80267C29.019 3.66853 29.2198 4.66409 29.8842 5.32418C30.174 5.60261 30.5273 5.80566 30.9135 5.91636V6.74554H27.1805C26.8442 6.74554 26.5653 7.05453 26.5653 7.39068V9.09251H23.6085V5.53504C24.7245 5.23046 25.4426 4.1473 25.2887 3.00131C25.1348 1.85533 24.1565 1 22.9998 1C21.8431 1 20.8647 1.85533 20.7108 3.00131C20.5569 4.1473 21.2751 5.23046 22.391 5.53504V9.09251H19.2603V7.39068C19.2518 7.04264 18.9753 6.76082 18.6274 6.74554H15.086V5.91636C15.4722 5.80566 15.8255 5.60227 16.1153 5.32418C17.0091 4.42539 17.006 2.97313 16.1085 2.07807C15.2113 1.18268 13.7581 1.18268 12.8609 2.07807C11.9634 2.97313 11.9603 4.42539 12.8541 5.32418C13.1384 5.60193 13.487 5.80532 13.8685 5.91636V7.39068C13.8685 7.72684 14.1555 7.96249 14.4922 7.96249H18.0428V9.09251H12.3153C10.5411 9.09251 9.08542 10.5037 9.08542 12.2772V18.2196H7.95488V14.4965C7.95488 14.1603 7.71912 13.8734 7.38315 13.8734H5.90815C5.79707 13.4917 5.59358 13.1434 5.3157 12.8591C4.65532 12.1953 3.65964 11.995 2.79373 12.3522C1.92782 12.7091 1.36289 13.5529 1.36289 14.489C1.36289 15.4251 1.92782 16.2689 2.79373 16.6261C3.65964 16.983 4.65532 16.783 5.3157 16.1188C5.59392 15.8295 5.79741 15.4761 5.90815 15.0903H6.73737V18.8217C6.73737 19.1575 7.04684 19.4366 7.38315 19.4366H9.08542V22.392H5.5287C5.42339 22.0053 5.21855 21.6532 4.93455 21.3707C4.19739 20.6342 3.05802 20.4841 2.15508 21.004C1.2518 21.5235 0.810186 22.5842 1.07719 23.591C1.34454 24.5978 2.25428 25.3003 3.29615 25.3044C4.33837 25.3084 5.25354 24.6134 5.5287 23.609H9.08542V26.7383H7.38315C7.03495 26.7464 6.75266 27.0232 6.73737 27.3709V30.9107H5.90815C5.79741 30.5246 5.59392 30.1715 5.3157 29.8818C4.4165 28.9895 2.9646 28.9932 2.07015 29.8897C1.17537 30.7861 1.17537 32.2373 2.07015 33.1337C2.9646 34.0301 4.4165 34.0339 5.3157 33.1415C5.59358 32.8573 5.79707 32.5089 5.90815 32.1276H7.38315C7.71912 32.1276 7.95488 31.8407 7.95488 31.5042V27.9552H9.08542V33.7235C9.08542 35.4967 10.5411 36.9085 12.3153 36.9085H18.2167V38.0385H14.4922C14.1559 38.0385 13.8685 38.2738 13.8685 38.61V40.0843C13.487 40.1954 13.1384 40.3988 12.8541 40.6765C12.1896 41.3366 11.9889 42.3321 12.3463 43.198C12.7033 44.0639 13.5478 44.6289 14.4847 44.6289C15.4216 44.6289 16.2661 44.0639 16.6235 43.198C16.9805 42.3321 16.7801 41.3366 16.1153 40.6765C15.8255 40.3981 15.4722 40.195 15.086 40.0843V39.2555H18.819C19.1553 39.2555 19.4342 38.9462 19.4342 38.61V36.9085H22.391V40.4656C21.2754 40.7702 20.5573 41.853 20.7112 42.999C20.8651 44.1447 21.8431 45 22.9998 45C24.1565 45 25.1348 44.1447 25.2884 42.999C25.4422 41.853 24.7245 40.7702 23.6085 40.4656V36.9085H26.7392V38.61C26.7477 38.958 27.0243 39.2399 27.3725 39.2555H30.9135V40.0843C30.5273 40.195 30.174 40.3984 29.8842 40.6765C28.9908 41.5753 28.9939 43.0275 29.8914 43.9226C30.7885 44.8173 32.2415 44.8173 33.1386 43.9226C34.0361 43.0275 34.0392 41.5753 33.1454 40.6765C32.8611 40.3988 32.5129 40.1954 32.1311 40.0843V38.61C32.1311 38.2738 31.844 38.0385 31.5077 38.0385H27.9568V36.9085H33.7712C35.5454 36.9085 37.0011 35.497 37.0011 33.7235V27.7814H38.0447V31.5042C38.0447 31.8404 38.2804 32.1276 38.6167 32.1276H40.0917C40.2028 32.5089 40.4063 32.8573 40.6842 33.1415C41.3446 33.8057 42.3406 34.0064 43.2068 33.6492C44.0731 33.2923 44.638 32.4482 44.638 31.5117C44.638 30.5752 44.0731 29.7311 43.2068 29.3739C42.3406 29.017 41.3446 29.2173 40.6842 29.8818C40.4056 30.1715 40.2021 30.5246 40.0917 30.9107H39.2622V27.179C39.2622 26.8432 38.9527 26.5644 38.6167 26.5644H37.0011V23.609H40.4715ZM41.9265 22.2311C42.2934 21.864 42.8688 21.8073 43.3006 22.0959C43.7323 22.3842 43.9002 22.9374 43.7014 23.4168C43.5027 23.8962 42.9928 24.1686 42.4836 24.0674C41.9744 23.9662 41.6075 23.5193 41.6075 23.0005C41.6075 22.7119 41.7223 22.4352 41.9265 22.2311ZM41.545 13.727C41.8195 13.4496 42.2213 13.3403 42.5987 13.4405C42.9762 13.541 43.2707 13.8354 43.3709 14.2126C43.4711 14.5895 43.3617 14.9915 43.0842 15.2659C42.6585 15.6866 41.9727 15.6846 41.5494 15.2615C41.1261 14.838 41.1241 14.1528 41.545 13.727ZM30.4193 3.69433C30.4193 3.17516 30.7858 2.72865 31.2954 2.62713C31.8046 2.52594 32.3145 2.79826 32.5132 3.27805C32.712 3.75749 32.5441 4.31062 32.1124 4.5989C31.6806 4.88718 31.1051 4.83047 30.7379 4.46376C30.5331 4.26003 30.4183 3.98295 30.4193 3.69433ZM22.2303 2.54394C22.6553 2.11916 23.3442 2.11916 23.7692 2.54394C24.1945 2.96872 24.1945 3.65766 23.7692 4.08244C23.3442 4.50722 22.6553 4.50722 22.2303 4.08244C22.0251 3.87905 21.91 3.60198 21.91 3.31336C21.91 3.0244 22.0251 2.74767 22.2303 2.54394ZM13.4038 3.69433C13.4038 3.17516 13.7703 2.72865 14.2799 2.62713C14.7891 2.52594 15.299 2.79826 15.4977 3.27805C15.6964 3.75749 15.5286 4.31062 15.0968 4.5989C14.6651 4.88718 14.0896 4.83047 13.7224 4.46376C13.5176 4.26003 13.4027 3.98295 13.4038 3.69433ZM4.45455 15.2659C4.02958 15.69 3.34099 15.69 2.91636 15.2652C2.49173 14.8408 2.49173 14.1522 2.91636 13.7277C3.34099 13.3029 4.02958 13.3029 4.45455 13.727C4.66075 13.9304 4.77659 14.2075 4.77659 14.4965C4.77659 14.7858 4.66075 15.0628 4.45455 15.2659ZM4.0734 23.7696C3.70618 24.1366 3.13072 24.1934 2.69895 23.9047C2.26752 23.6165 2.09971 23.0637 2.29844 22.5839C2.49716 22.1044 3.00706 21.8321 3.51628 21.9333C4.0255 22.0345 4.39204 22.4813 4.39204 23.0005C4.39204 23.2888 4.27722 23.5655 4.0734 23.7696ZM4.45455 32.2736C4.18041 32.5511 3.7782 32.6604 3.40078 32.5602C3.02371 32.4597 2.72884 32.1653 2.62863 31.7881C2.52842 31.4112 2.6378 31.0092 2.91534 30.7348C3.34133 30.3141 4.02686 30.3161 4.45013 30.7392C4.87375 31.1626 4.87544 31.8478 4.45455 32.2736ZM15.5806 42.3063C15.5803 42.8248 15.2137 43.2713 14.7048 43.3722C14.1963 43.4734 13.6867 43.2011 13.488 42.722C13.2896 42.2429 13.4571 41.6904 13.8885 41.4021C14.3199 41.1142 14.8947 41.1705 15.2616 41.5373C15.4664 41.7407 15.5813 42.0177 15.5806 42.3063ZM23.7695 43.4567C23.3446 43.8812 22.656 43.8808 22.231 43.4564C21.8064 43.0316 21.8064 42.3434 22.231 41.9186C22.656 41.4941 23.3446 41.4938 23.7695 41.9182C24.1938 42.3434 24.1938 43.0316 23.7695 43.4567ZM32.5965 42.3063C32.5961 42.8248 32.2296 43.2713 31.7207 43.3722C31.2122 43.4734 30.7026 43.2011 30.5039 42.722C30.3055 42.2429 30.473 41.6904 30.9044 41.4021C31.3358 41.1142 31.9106 41.1705 32.2775 41.5373C32.4823 41.7407 32.5968 42.0177 32.5961 42.3063H32.5965ZM35.7836 33.7792C35.7836 34.8831 34.8881 35.7785 33.7834 35.7785H12.3031C11.1984 35.7785 10.3029 34.8831 10.3029 33.7792V12.3087C10.3029 11.2045 11.1984 10.3095 12.3031 10.3095H33.7834C34.8881 10.3095 35.7836 11.2045 35.7836 12.3087V33.7792ZM41.545 30.7348C41.97 30.31 42.6592 30.31 43.0842 30.7348C43.5095 31.1599 43.5095 31.8485 43.0842 32.2736C42.6592 32.6984 41.97 32.6984 41.545 32.2736C41.3391 32.0702 41.2233 31.7932 41.2233 31.5042C41.2233 31.2149 41.3391 30.9378 41.545 30.7348ZM31.3138 21.2562L29.8919 21.119C29.731 20.5361 29.4948 19.9765 29.1892 19.4549L30.0908 18.3681C30.2666 18.1561 30.2528 17.8453 30.0591 17.6495L28.3677 15.9415C28.1724 15.7442 27.8587 15.7287 27.6449 15.9059L26.554 16.8098C26.0307 16.5067 25.4715 16.2709 24.889 16.1077L24.7517 14.6875C24.7254 14.4122 24.4948 14.2015 24.2182 14.2H21.7933C21.5167 14.2015 21.2861 14.4122 21.2598 14.6875L21.1226 16.1056C20.5385 16.2658 19.9778 16.5013 19.4548 16.8065L18.3669 15.9053C18.154 15.729 17.8418 15.7436 17.6462 15.9388L15.9342 17.6468C15.7383 17.8423 15.7234 18.1546 15.9001 18.3678L16.8035 19.457C16.5006 19.9792 16.2647 20.5376 16.1011 21.1187L14.677 21.2565C14.4019 21.2828 14.192 21.5132 14.1914 21.7894V24.2103C14.1917 24.4862 14.4016 24.717 14.6767 24.7436L16.0987 24.8814C16.2596 25.464 16.4958 26.0235 16.8011 26.5454L15.8998 27.632C15.7231 27.8451 15.7377 28.1575 15.9339 28.353L17.6459 30.061C17.8415 30.2562 18.1537 30.2705 18.3663 30.0941L19.4575 29.1899C19.9805 29.493 20.54 29.7292 21.1223 29.8921L21.2595 31.3125C21.2858 31.5878 21.5167 31.7985 21.7933 31.8H24.2188C24.4954 31.7983 24.7257 31.5875 24.752 31.3125L24.8893 29.8942C25.4736 29.734 26.034 29.4984 26.5573 29.1932L27.6452 30.0944C27.8581 30.2708 28.1703 30.2562 28.3659 30.061L30.0779 28.353C30.2738 28.1575 30.2884 27.8451 30.1117 27.632L29.2086 26.5428C29.5115 26.0203 29.7475 25.4619 29.9113 24.8805L31.315 24.7433C31.5896 24.7167 31.7992 24.4862 31.7995 24.2103V21.7894C31.7992 21.5132 31.589 21.2825 31.3138 21.2562ZM30.7271 23.7246L29.432 23.851C29.2011 23.8738 29.0109 24.0417 28.9604 24.268C28.7986 24.9905 28.5076 25.678 28.1018 26.297C27.9736 26.4937 27.9885 26.7508 28.1383 26.9313L28.9744 27.9399L27.9535 28.958L26.944 28.1216C26.7621 27.971 26.5032 27.9569 26.3064 28.0869C25.6901 28.4953 25.0026 28.784 24.2798 28.9388C24.0511 28.9894 23.8812 29.1813 23.8588 29.4144L23.732 30.7287H22.2795L22.1524 29.4144C22.13 29.1816 21.9593 28.9897 21.7305 28.9403C21.0071 28.7801 20.3187 28.4899 19.6991 28.084C19.5027 27.9581 19.247 27.9734 19.0673 28.1222L18.0574 28.9583L17.0365 27.9399L17.8729 26.9313C18.0239 26.7493 18.0377 26.4898 17.9067 26.2929C17.4976 25.678 17.2078 24.992 17.0517 24.2701C17.0018 24.0426 16.8107 23.8732 16.5789 23.851L15.2632 23.724V22.2758L16.5789 22.1487C16.8098 22.1263 17.0003 21.9583 17.0508 21.7317C17.2126 21.0093 17.5036 20.3218 17.9094 19.7027C18.0377 19.506 18.023 19.249 17.8732 19.0684L17.0368 18.0599L18.0574 17.0415L19.067 17.8781C19.2488 18.0291 19.5077 18.0428 19.7048 17.9128C20.3208 17.5045 21.0083 17.2158 21.7311 17.0609C21.9599 17.0104 22.13 16.8185 22.1521 16.5853L22.2795 15.2713H23.732L23.8591 16.5853C23.8812 16.8185 24.0519 17.0101 24.2807 17.0594C25.0041 17.2199 25.6925 17.5099 26.3124 17.9158C26.5089 18.0419 26.7642 18.0264 26.944 17.8775L27.9511 17.043L28.9556 18.0572L28.1171 19.0678C27.9661 19.2502 27.9526 19.5096 28.0836 19.7066C28.4927 20.3215 28.7828 21.0078 28.9389 21.7296C28.9885 21.9571 29.1796 22.1266 29.4116 22.149L30.7271 22.2758V23.7246ZM22.9942 18.6C22.1138 18.6 22.1138 19.5419 22.1138 20.7034V22.6567C22.1138 23.8181 22.1138 24.76 22.9942 24.76C23.8746 24.76 23.8746 23.8181 23.8746 22.6567V20.7034C23.8746 19.5419 23.8746 18.6 22.9942 18.6ZM22.9736 25.64C22.4988 25.64 22.1138 26.0249 22.1138 26.4994V26.5027C22.1138 26.9772 22.4988 27.3603 22.9736 27.3603C23.4485 27.3603 23.8334 26.974 23.8334 26.4994C23.8334 26.0249 23.4485 25.64 22.9736 25.64Z" fill="white"/>
<path d="M41.0653 24.6304L41.2066 24.4888L41.2065 24.4887L41.0653 24.6304ZM40.4715 23.609L40.6645 23.5564L40.6243 23.409H40.4715V23.609ZM43.8451 24.9971L43.9449 25.1704L43.9449 25.1704L43.8451 24.9971ZM44.9227 22.4097L44.7294 22.461L44.7294 22.461L44.9227 22.4097ZM42.7041 20.6963L42.7033 20.8963L42.7041 20.6963ZM40.4715 22.392V22.592H40.6241L40.6644 22.4449L40.4715 22.392ZM37.0011 22.392H36.8011V22.592H37.0011V22.392ZM37.0011 19.2627V19.0627H36.8011V19.2627H37.0011ZM38.6167 19.2627V19.4628L38.6216 19.4627L38.6167 19.2627ZM39.2622 18.6298L39.4622 18.6386V18.6298H39.2622ZM39.2622 15.0903V14.8903H39.0622V15.0903H39.2622ZM40.0917 15.0903L40.284 15.0351L40.2424 14.8903H40.0917V15.0903ZM40.6842 16.1188L40.54 16.2575L40.5429 16.2604L40.6842 16.1188ZM43.9409 16.1168L44.0824 16.2582L43.9409 16.1168ZM43.9409 12.8612L43.7995 13.0026L43.9409 12.8612ZM40.6842 12.8591L40.5429 12.7176L40.5412 12.7193L40.6842 12.8591ZM40.0917 13.8734V14.0734H40.2418L40.2838 13.9293L40.0917 13.8734ZM38.0447 18.0458V18.2458H38.2447V18.0458H38.0447ZM37.0011 18.0458H36.8011V18.2458H37.0011V18.0458ZM27.7828 9.09251H27.5828V9.29251H27.7828V9.09251ZM27.7828 7.96249V7.76249H27.5828V7.96249H27.7828ZM32.1311 5.91636L32.0752 5.72431L31.9311 5.76623V5.91636H32.1311ZM33.1454 5.32418L33.2852 5.46725L33.2863 5.4661L33.1454 5.32418ZM33.6536 2.80267L33.8385 2.72643L33.8385 2.72637L33.6536 2.80267ZM29.3764 2.80267L29.5613 2.87898L29.5613 2.87892L29.3764 2.80267ZM29.8842 5.32418L29.7433 5.46609L29.7457 5.46839L29.8842 5.32418ZM30.9135 5.91636H31.1136V5.76562L30.9686 5.72409L30.9135 5.91636ZM30.9135 6.74554V6.94554H31.1136V6.74554H30.9135ZM26.5653 9.09251V9.29251H26.7653V9.09251H26.5653ZM23.6085 9.09251H23.4085V9.29251H23.6085V9.09251ZM23.6085 5.53504L23.5559 5.3421L23.4085 5.38231V5.53504H23.6085ZM25.2887 3.00131L25.0905 3.02793L25.2887 3.00131ZM20.7108 3.00131L20.909 3.02793L20.7108 3.00131ZM22.391 5.53504H22.591V5.38231L22.4437 5.3421L22.391 5.53504ZM22.391 9.09251V9.29251H22.591V9.09251H22.391ZM19.2603 9.09251H19.0603V9.29251H19.2603V9.09251ZM19.2603 7.39068H19.4603L19.4602 7.38581L19.2603 7.39068ZM18.6274 6.74554L18.6362 6.54554H18.6274V6.74554ZM15.086 6.74554H14.886V6.94554H15.086V6.74554ZM15.086 5.91636L15.0309 5.72409L14.886 5.76562V5.91636H15.086ZM16.1153 5.32418L16.2538 5.46852L16.2571 5.4652L16.1153 5.32418ZM16.1085 2.07807L15.9672 2.21963L15.9673 2.21969L16.1085 2.07807ZM12.8609 2.07807L13.0021 2.21969L13.0022 2.21963L12.8609 2.07807ZM12.8541 5.32418L12.7123 5.46522L12.7144 5.46725L12.8541 5.32418ZM13.8685 5.91636H14.0685V5.76627L13.9244 5.72432L13.8685 5.91636ZM18.0428 7.96249H18.2428V7.76249H18.0428V7.96249ZM18.0428 9.09251V9.29251H18.2428V9.09251H18.0428ZM9.08542 18.2196V18.4196H9.28542V18.2196H9.08542ZM7.95488 18.2196H7.75488V18.4196H7.95488V18.2196ZM5.90815 13.8734L5.71612 13.9293L5.75806 14.0734H5.90815V13.8734ZM5.3157 12.8591L5.45871 12.7193L5.45749 12.7181L5.3157 12.8591ZM2.79373 12.3522L2.86994 12.5371L2.87 12.5371L2.79373 12.3522ZM2.79373 16.6261L2.71746 16.811L2.71752 16.811L2.79373 16.6261ZM5.3157 16.1188L5.45755 16.2599L5.45986 16.2575L5.3157 16.1188ZM5.90815 15.0903V14.8903H5.75749L5.71592 15.0351L5.90815 15.0903ZM6.73737 15.0903H6.93737V14.8903H6.73737V15.0903ZM9.08542 19.4366H9.28542V19.2366H9.08542V19.4366ZM9.08542 22.392V22.592H9.28542V22.392H9.08542ZM5.5287 22.392L5.33572 22.4446L5.37588 22.592H5.5287V22.392ZM4.93455 21.3707L4.7932 21.5122L4.7935 21.5125L4.93455 21.3707ZM2.15508 21.004L2.25479 21.1773L2.25487 21.1773L2.15508 21.004ZM1.07719 23.591L0.883878 23.6423L0.883894 23.6423L1.07719 23.591ZM3.29615 25.3044L3.29537 25.5044H3.29537L3.29615 25.3044ZM5.5287 23.609V23.409H5.37612L5.33581 23.5561L5.5287 23.609ZM9.08542 23.609H9.28542V23.409H9.08542V23.609ZM9.08542 26.7383V26.9383H9.28542V26.7383H9.08542ZM7.38315 26.7383V26.5382L7.37847 26.5383L7.38315 26.7383ZM6.73737 27.3709L6.53737 27.3621V27.3709H6.73737ZM6.73737 30.9107V31.1107H6.93737V30.9107H6.73737ZM5.90815 30.9107L5.7159 30.9658L5.75745 31.1107H5.90815V30.9107ZM5.3157 29.8818L5.45998 29.7433L5.45658 29.7399L5.3157 29.8818ZM2.07015 29.8897L2.2117 30.0309L2.21173 30.0309L2.07015 29.8897ZM2.07015 33.1337L2.21173 32.9925L2.2117 32.9924L2.07015 33.1337ZM5.3157 33.1415L5.4566 33.2835L5.45871 33.2814L5.3157 33.1415ZM5.90815 32.1276V31.9276H5.7581L5.71613 32.0717L5.90815 32.1276ZM7.95488 27.9552V27.7552H7.75488V27.9552H7.95488ZM9.08542 27.9552H9.28542V27.7552H9.08542V27.9552ZM18.2167 36.9085H18.4167V36.7085H18.2167V36.9085ZM18.2167 38.0385V38.2385H18.4167V38.0385H18.2167ZM13.8685 40.0843L13.9244 40.2764L14.0685 40.2344V40.0843H13.8685ZM12.8541 40.6765L12.7144 40.5334L12.7132 40.5346L12.8541 40.6765ZM12.3463 43.198L12.5311 43.1218L12.5311 43.1217L12.3463 43.198ZM16.6235 43.198L16.8084 43.2743L16.8084 43.2742L16.6235 43.198ZM16.1153 40.6765L16.2562 40.5346L16.2539 40.5323L16.1153 40.6765ZM15.086 40.0843H14.886V40.2351L15.0309 40.2766L15.086 40.0843ZM15.086 39.2555V39.0555H14.886V39.2555H15.086ZM19.4342 36.9085V36.7085H19.2342V36.9085H19.4342ZM22.391 36.9085H22.591V36.7085H22.391V36.9085ZM22.391 40.4656L22.4437 40.6586L22.591 40.6184V40.4656H22.391ZM20.7112 42.999L20.5129 43.0256L20.5129 43.0257L20.7112 42.999ZM25.2884 42.999L25.0901 42.9724L25.0901 42.9725L25.2884 42.999ZM23.6085 40.4656H23.4085V40.6184L23.5559 40.6586L23.6085 40.4656ZM23.6085 36.9085V36.7085H23.4085V36.9085H23.6085ZM26.7392 36.9085H26.9392V36.7085H26.7392V36.9085ZM26.7392 38.61H26.5392L26.5393 38.6149L26.7392 38.61ZM27.3725 39.2555L27.3635 39.4555H27.3725V39.2555ZM30.9135 39.2555H31.1136V39.0555H30.9135V39.2555ZM30.9135 40.0843L30.9686 40.2766L31.1136 40.2351V40.0843H30.9135ZM29.8842 40.6765L29.7457 40.5322L29.7424 40.5355L29.8842 40.6765ZM29.8914 43.9226L29.7501 44.0642L29.8914 43.9226ZM33.1386 43.9226L33.2799 44.0642L33.1386 43.9226ZM33.1454 40.6765L33.2873 40.5355L33.2852 40.5334L33.1454 40.6765ZM32.1311 40.0843H31.9311V40.2344L32.0752 40.2764L32.1311 40.0843ZM27.9568 38.0385H27.7568V38.2385H27.9568V38.0385ZM27.9568 36.9085V36.7085H27.7568V36.9085H27.9568ZM37.0011 27.7814V27.5814H36.8011V27.7814H37.0011ZM38.0447 27.7814H38.2447V27.5814H38.0447V27.7814ZM40.0917 32.1276L40.2837 32.0717L40.2418 31.9276H40.0917V32.1276ZM40.6842 33.1415L40.5412 33.2814L40.5423 33.2826L40.6842 33.1415ZM43.2068 33.6492L43.1306 33.4642L43.1306 33.4643L43.2068 33.6492ZM43.2068 29.3739L43.2831 29.189L43.283 29.189L43.2068 29.3739ZM40.6842 29.8818L40.5423 29.7408L40.54 29.7432L40.6842 29.8818ZM40.0917 30.9107V31.1107H40.2425L40.284 30.9657L40.0917 30.9107ZM39.2622 30.9107H39.0622V31.1107H39.2622V30.9107ZM37.0011 26.5644H36.8011V26.7644H37.0011V26.5644ZM37.0011 23.609V23.409H36.8011V23.609H37.0011ZM43.3006 22.0959L43.1894 22.2622L43.1895 22.2623L43.3006 22.0959ZM41.9265 22.2311L42.0679 22.3725L42.0679 22.3725L41.9265 22.2311ZM43.7014 23.4168L43.5167 23.3402V23.3402L43.7014 23.4168ZM42.4836 24.0674L42.4446 24.2635L42.4836 24.0674ZM42.5987 13.4405L42.6502 13.2472L42.6501 13.2472L42.5987 13.4405ZM41.545 13.727L41.4028 13.5864L41.4027 13.5864L41.545 13.727ZM43.3709 14.2126L43.1776 14.2639L43.1776 14.264L43.3709 14.2126ZM43.0842 15.2659L43.2248 15.4081L43.2248 15.4081L43.0842 15.2659ZM41.5494 15.2615L41.408 15.4029L41.408 15.4029L41.5494 15.2615ZM31.2954 2.62713L31.2564 2.43096L31.2563 2.43098L31.2954 2.62713ZM30.4193 3.69433L30.6193 3.69504V3.69433H30.4193ZM32.5132 3.27805L32.3284 3.35458L32.3285 3.35463L32.5132 3.27805ZM30.7379 4.46376L30.8792 4.32224L30.879 4.32195L30.7379 4.46376ZM23.7692 2.54394L23.6278 2.68539L23.6279 2.68545L23.7692 2.54394ZM22.2303 2.54394L22.3712 2.68586L22.3717 2.68539L22.2303 2.54394ZM23.7692 4.08244L23.6279 3.94093L23.6278 3.94099L23.7692 4.08244ZM22.2303 4.08244L22.3717 3.94099L22.3711 3.9404L22.2303 4.08244ZM14.2799 2.62713L14.2409 2.43096L14.2408 2.43098L14.2799 2.62713ZM13.4038 3.69433L13.6038 3.69504V3.69433H13.4038ZM15.4977 3.27805L15.3129 3.35458L15.3129 3.35463L15.4977 3.27805ZM15.0968 4.5989L14.9858 4.43257H14.9858L15.0968 4.5989ZM13.7224 4.46376L13.8637 4.32224L13.8634 4.32195L13.7224 4.46376ZM2.91636 15.2652L3.05781 15.1238L3.05775 15.1238L2.91636 15.2652ZM4.45455 15.2659L4.31422 15.1234L4.31327 15.1243L4.45455 15.2659ZM2.91636 13.7277L3.05775 13.8692L3.05781 13.8691L2.91636 13.7277ZM4.45455 13.727L4.31327 13.8686L4.3141 13.8694L4.45455 13.727ZM2.69895 23.9047L2.8101 23.7385L2.81007 23.7384L2.69895 23.9047ZM4.0734 23.7696L4.21479 23.911L4.21491 23.9109L4.0734 23.7696ZM2.29844 22.5839L2.11368 22.5073L2.11366 22.5073L2.29844 22.5839ZM3.40078 32.5602L3.34927 32.7535L3.34948 32.7535L3.40078 32.5602ZM4.45455 32.2736L4.31231 32.133L4.31229 32.1331L4.45455 32.2736ZM2.62863 31.7881L2.82193 31.7367L2.82192 31.7367L2.62863 31.7881ZM2.91534 30.7348L2.77481 30.5925L2.77474 30.5926L2.91534 30.7348ZM4.45013 30.7392L4.59152 30.5978L4.45013 30.7392ZM14.7048 43.3722L14.6659 43.176L14.6658 43.176L14.7048 43.3722ZM15.5806 42.3063L15.3806 42.3059V42.3062L15.5806 42.3063ZM13.488 42.722L13.3032 42.7985L13.3033 42.7986L13.488 42.722ZM13.8885 41.4021L13.7775 41.2358L13.7774 41.2358L13.8885 41.4021ZM15.2616 41.5373L15.1202 41.6787L15.1207 41.6792L15.2616 41.5373ZM22.231 43.4564L22.0896 43.5978L22.0897 43.5979L22.231 43.4564ZM23.7695 43.4567L23.9109 43.5983L23.9111 43.598L23.7695 43.4567ZM22.231 41.9186L22.0897 41.7771L22.0896 41.7772L22.231 41.9186ZM23.7695 41.9182L23.9111 41.777L23.9109 41.7767L23.7695 41.9182ZM31.7207 43.3722L31.6818 43.176L31.6817 43.176L31.7207 43.3722ZM32.5965 42.3063L32.7965 42.3065L32.7966 42.1063H32.5965V42.3063ZM30.5039 42.722L30.3191 42.7985L30.3191 42.7986L30.5039 42.722ZM30.9044 41.4021L30.7934 41.2358L30.7933 41.2358L30.9044 41.4021ZM32.2775 41.5373L32.1361 41.6787L32.1366 41.6792L32.2775 41.5373ZM32.5961 42.3063L32.3961 42.3059L32.3956 42.5063H32.5961V42.3063ZM43.0842 30.7348L43.2256 30.5933L43.0842 30.7348ZM41.545 30.7348L41.6854 30.8772L41.6864 30.8762L41.545 30.7348ZM43.0842 32.2736L43.2256 32.4151L43.0842 32.2736ZM41.545 32.2736L41.6864 32.1322L41.6855 32.1314L41.545 32.2736ZM29.8919 21.119L29.6991 21.1722L29.7357 21.3048L29.8727 21.318L29.8919 21.119ZM31.3138 21.2562L31.2946 21.4552L31.2948 21.4553L31.3138 21.2562ZM29.1892 19.4549L29.0352 19.3272L28.9457 19.4351L29.0166 19.556L29.1892 19.4549ZM30.0908 18.3681L29.9368 18.2404L29.9368 18.2404L30.0908 18.3681ZM30.0591 17.6495L30.2012 17.5088L30.2012 17.5087L30.0591 17.6495ZM28.3677 15.9415L28.2255 16.0822L28.2256 16.0822L28.3677 15.9415ZM27.6449 15.9059L27.7725 16.0599L27.7726 16.0599L27.6449 15.9059ZM26.554 16.8098L26.4538 16.9829L26.5743 17.0527L26.6816 16.9638L26.554 16.8098ZM24.889 16.1077L24.6899 16.1269L24.7031 16.2633L24.835 16.3003L24.889 16.1077ZM24.7517 14.6875L24.5526 14.7066L24.5526 14.7068L24.7517 14.6875ZM24.2182 14.2L24.2193 14H24.2182V14.2ZM21.7933 14.2V14L21.7922 14L21.7933 14.2ZM21.2598 14.6875L21.4589 14.7068L21.4589 14.7066L21.2598 14.6875ZM21.1226 16.1056L21.1755 16.2985L21.3083 16.262L21.3216 16.1249L21.1226 16.1056ZM19.4548 16.8065L19.3272 16.9606L19.4349 17.0497L19.5556 16.9793L19.4548 16.8065ZM18.3669 15.9053L18.4945 15.7513L18.4945 15.7513L18.3669 15.9053ZM17.6462 15.9388L17.7875 16.0804L17.7875 16.0804L17.6462 15.9388ZM15.9342 17.6468L15.793 17.5052L15.7929 17.5052L15.9342 17.6468ZM15.9001 18.3678L15.7462 18.4954L15.7462 18.4954L15.9001 18.3678ZM16.8035 19.457L16.9765 19.5574L17.0465 19.4367L16.9575 19.3293L16.8035 19.457ZM16.1011 21.1187L16.1203 21.3177L16.2565 21.3046L16.2936 21.1729L16.1011 21.1187ZM14.677 21.2565L14.6961 21.4556L14.6963 21.4555L14.677 21.2565ZM14.1914 21.7894L13.9914 21.789V21.7894H14.1914ZM14.1914 24.2103H13.9914V24.2105L14.1914 24.2103ZM14.6767 24.7436L14.696 24.5445L14.696 24.5445L14.6767 24.7436ZM16.0987 24.8814L16.2915 24.8282L16.2549 24.6956L16.118 24.6823L16.0987 24.8814ZM16.8011 26.5454L16.9551 26.6731L17.0445 26.5653L16.9738 26.4445L16.8011 26.5454ZM15.8998 27.632L15.7459 27.5043L15.7459 27.5043L15.8998 27.632ZM15.9339 28.353L16.0752 28.2114L16.0751 28.2113L15.9339 28.353ZM17.6459 30.061L17.7872 29.9194L17.7872 29.9194L17.6459 30.061ZM18.3663 30.0941L18.2387 29.9401L18.2386 29.9402L18.3663 30.0941ZM19.4575 29.1899L19.5578 29.0169L19.4372 28.947L19.3299 29.0359L19.4575 29.1899ZM21.1223 29.8921L21.3213 29.8728L21.3081 29.7364L21.1761 29.6995L21.1223 29.8921ZM21.2595 31.3125L21.4586 31.2935L21.4586 31.2933L21.2595 31.3125ZM21.7933 31.8L21.7922 32H21.7933V31.8ZM24.2188 31.8V32L24.2201 32L24.2188 31.8ZM24.752 31.3125L24.5529 31.2933L24.5529 31.2935L24.752 31.3125ZM24.8893 29.8942L24.8364 29.7013L24.7035 29.7377L24.6902 29.8749L24.8893 29.8942ZM26.5573 29.1932L26.6849 29.0392L26.5773 28.9501L26.4566 29.0205L26.5573 29.1932ZM27.6452 30.0944L27.5176 30.2485L27.5176 30.2485L27.6452 30.0944ZM28.3659 30.061L28.2246 29.9194L28.2246 29.9194L28.3659 30.061ZM30.0779 28.353L30.2192 28.4946L30.2192 28.4945L30.0779 28.353ZM30.1117 27.632L29.9577 27.7596L29.9577 27.7597L30.1117 27.632ZM29.2086 26.5428L29.0356 26.4424L28.9656 26.5631L29.0546 26.6704L29.2086 26.5428ZM29.9113 24.8805L29.8919 24.6814L29.7559 24.6947L29.7188 24.8262L29.9113 24.8805ZM31.315 24.7433L31.2957 24.5442L31.2956 24.5442L31.315 24.7433ZM31.7995 24.2103L31.9995 24.2105V24.2103H31.7995ZM31.7995 21.7894H31.9995V21.7892L31.7995 21.7894ZM29.432 23.851L29.4125 23.652L29.4124 23.652L29.432 23.851ZM30.7271 23.7246L30.7466 23.9236L30.9271 23.906V23.7246H30.7271ZM28.9604 24.268L29.1556 24.3117L29.1556 24.3116L28.9604 24.268ZM28.1018 26.297L27.9346 26.1874L27.9343 26.1878L28.1018 26.297ZM28.1383 26.9313L28.2923 26.8037L28.2922 26.8036L28.1383 26.9313ZM28.9744 27.9399L29.1157 28.0815L29.2448 27.9527L29.1284 27.8122L28.9744 27.9399ZM27.9535 28.958L27.8259 29.112L27.966 29.228L28.0947 29.0996L27.9535 28.958ZM26.944 28.1216L26.8164 28.2756L26.8164 28.2756L26.944 28.1216ZM26.3064 28.0869L26.1961 27.9201L26.196 27.9202L26.3064 28.0869ZM24.2798 28.9388L24.2379 28.7433L24.2367 28.7435L24.2798 28.9388ZM23.8588 29.4144L24.0578 29.4336L24.0578 29.4336L23.8588 29.4144ZM23.732 30.7287V30.9287H23.9136L23.9311 30.7479L23.732 30.7287ZM22.2795 30.7287L22.0805 30.748L22.0979 30.9287H22.2795V30.7287ZM22.1524 29.4144L21.9534 29.4336L21.9534 29.4337L22.1524 29.4144ZM21.7305 28.9403L21.6873 29.1356L21.6884 29.1358L21.7305 28.9403ZM19.6991 28.084L19.8087 27.9166L19.807 27.9155L19.6991 28.084ZM19.0673 28.1222L19.1948 28.2763L19.1948 28.2762L19.0673 28.1222ZM18.0574 28.9583L17.9161 29.0999L18.0449 29.2283L18.1849 29.1123L18.0574 28.9583ZM17.0365 27.9399L16.8825 27.8122L16.7661 27.9526L16.8952 28.0815L17.0365 27.9399ZM17.8729 26.9313L17.719 26.8036L17.7189 26.8037L17.8729 26.9313ZM17.9067 26.2929L18.0732 26.1821L18.0732 26.1821L17.9067 26.2929ZM17.0517 24.2701L17.2472 24.2278L17.2471 24.2272L17.0517 24.2701ZM16.5789 23.851L16.5597 24.0501L16.5599 24.0501L16.5789 23.851ZM15.2632 23.724H15.0632V23.9056L15.2439 23.9231L15.2632 23.724ZM15.2632 22.2758L15.2439 22.0767L15.0632 22.0941V22.2758H15.2632ZM16.5789 22.1487L16.5982 22.3478L16.5983 22.3478L16.5789 22.1487ZM17.0508 21.7317L16.8557 21.688L16.8556 21.6882L17.0508 21.7317ZM17.9094 19.7027L18.0766 19.8124L18.0769 19.812L17.9094 19.7027ZM17.8732 19.0684L17.7192 19.1961L17.7193 19.1961L17.8732 19.0684ZM17.0368 18.0599L16.8955 17.9183L16.7664 18.0471L16.8828 18.1876L17.0368 18.0599ZM18.0574 17.0415L18.185 16.8875L18.0449 16.7714L17.9161 16.8999L18.0574 17.0415ZM19.067 17.8781L19.1947 17.7243L19.1946 17.7242L19.067 17.8781ZM19.7048 17.9128L19.815 18.0798L19.8153 18.0795L19.7048 17.9128ZM21.7311 17.0609L21.773 17.2565L21.7742 17.2562L21.7311 17.0609ZM22.1521 16.5853L21.9531 16.566L21.953 16.5664L22.1521 16.5853ZM22.2795 15.2713V15.0713H22.098L22.0805 15.252L22.2795 15.2713ZM23.732 15.2713L23.931 15.2521L23.9136 15.0713H23.732V15.2713ZM23.8591 16.5853L24.0582 16.5664L24.0581 16.5661L23.8591 16.5853ZM24.2807 17.0594L24.324 16.8642L24.3229 16.8639L24.2807 17.0594ZM26.3124 17.9158L26.2028 18.0831L26.2043 18.0841L26.3124 17.9158ZM26.944 17.8775L27.0715 18.0316L27.0716 18.0315L26.944 17.8775ZM27.9511 17.043L28.0932 16.9022L27.9644 16.7722L27.8235 16.889L27.9511 17.043ZM28.9556 18.0572L29.1095 18.1849L29.2253 18.0453L29.0977 17.9165L28.9556 18.0572ZM28.1171 19.0678L27.9632 18.9401L27.9631 18.9402L28.1171 19.0678ZM28.0836 19.7066L27.9171 19.8173L27.9171 19.8174L28.0836 19.7066ZM28.9389 21.7296L28.7434 21.7719L28.7435 21.7723L28.9389 21.7296ZM29.4116 22.149L29.3924 22.3481L29.3925 22.3481L29.4116 22.149ZM30.7271 22.2758H30.9271V22.0941L30.7463 22.0767L30.7271 22.2758ZM41.2065 24.4887C40.9476 24.2305 40.7606 23.9091 40.6645 23.5564L40.2785 23.6616C40.3931 24.0817 40.6158 24.4645 40.9241 24.772L41.2065 24.4887ZM43.7454 24.8237C42.9207 25.2982 41.8798 25.1611 41.2066 24.4888L40.924 24.7719C41.7251 25.5719 42.9637 25.735 43.9449 25.1704L43.7454 24.8237ZM44.7294 22.461C44.9735 23.3803 44.57 24.349 43.7453 24.8237L43.9449 25.1704C44.9262 24.6055 45.4066 23.4526 45.116 22.3584L44.7294 22.461ZM42.7033 20.8963C43.6548 20.9 44.4855 21.5416 44.7294 22.461L45.116 22.3584C44.8258 21.2642 43.8371 20.5007 42.7048 20.4963L42.7033 20.8963ZM40.6644 22.4449C40.9157 21.5274 41.7514 20.8926 42.7033 20.8963L42.7048 20.4963C41.5723 20.4919 40.5777 21.2472 40.2786 22.3392L40.6644 22.4449ZM37.0011 22.592H40.4715V22.192H37.0011V22.592ZM36.8011 19.2627V22.392H37.2011V19.2627H36.8011ZM38.6167 19.0627H37.0011V19.4627H38.6167V19.0627ZM39.0624 18.621C39.0517 18.8637 38.8549 19.0569 38.6118 19.0628L38.6216 19.4627C39.075 19.4516 39.4421 19.0913 39.462 18.6386L39.0624 18.621ZM39.0622 15.0903V18.6298H39.4622V15.0903H39.0622ZM40.0917 14.8903H39.2622V15.2903H40.0917V14.8903ZM40.8283 15.9802C40.5724 15.7141 40.3857 15.3896 40.284 15.0351L39.8995 15.1455C40.0192 15.5625 40.2388 15.9443 40.54 16.2575L40.8283 15.9802ZM43.7995 15.9754C42.9787 16.7964 41.6472 16.7971 40.8254 15.9772L40.5429 16.2604C41.5209 17.2361 43.1054 17.2354 44.0824 16.2582L43.7995 15.9754ZM43.7995 13.0026C44.6203 13.8236 44.6203 15.1544 43.7995 15.9754L44.0824 16.2582C45.0593 15.281 45.0593 13.697 44.0824 12.7198L43.7995 13.0026ZM40.8254 13.0007C41.6472 12.1809 42.9787 12.1815 43.7995 13.0026L44.0824 12.7198C43.1054 11.7426 41.5209 11.7419 40.5429 12.7176L40.8254 13.0007ZM40.2838 13.9293C40.3856 13.5792 40.5723 13.2596 40.8272 12.999L40.5412 12.7193C40.2403 13.0271 40.02 13.4043 39.8997 13.8175L40.2838 13.9293ZM38.6167 14.0734H40.0917V13.6734H38.6167V14.0734ZM38.2447 14.4965C38.2447 14.2474 38.4125 14.0734 38.6167 14.0734V13.6734C38.1483 13.6734 37.8447 14.0725 37.8447 14.4965H38.2447ZM38.2447 18.0458V14.4965H37.8447V18.0458H38.2447ZM37.0011 18.2458H38.0447V17.8458H37.0011V18.2458ZM36.8011 12.2772V18.0458H37.2011V12.2772H36.8011ZM33.7712 9.29251C35.4386 9.29251 36.8011 10.6181 36.8011 12.2772H37.2011C37.2011 10.39 35.6522 8.89251 33.7712 8.89251V9.29251ZM27.7828 9.29251H33.7712V8.89251H27.7828V9.29251ZM27.5828 7.96249V9.09251H27.9828V7.96249H27.5828ZM31.5077 7.76249H27.7828V8.16249H31.5077V7.76249ZM31.9311 7.39068C31.9311 7.59443 31.7565 7.76249 31.5077 7.76249V8.16249C31.9308 8.16249 32.3311 7.85925 32.3311 7.39068H31.9311ZM31.9311 5.91636V7.39068H32.3311V5.91636H31.9311ZM33.0057 5.18111C32.7448 5.43592 32.4254 5.62247 32.0752 5.72431L32.1869 6.1084C32.6003 5.98818 32.9773 5.76795 33.2852 5.46725L33.0057 5.18111ZM33.4687 2.87892C33.7949 3.66989 33.6118 4.57929 33.0045 5.18225L33.2863 5.4661C34.0087 4.7489 34.2264 3.66717 33.8385 2.72643L33.4687 2.87892ZM31.5148 1.57181C32.3708 1.57181 33.1423 2.088 33.4687 2.87898L33.8385 2.72637C33.4502 1.78564 32.5327 1.17181 31.5148 1.17181V1.57181ZM29.5613 2.87892C29.8874 2.088 30.6589 1.57181 31.5148 1.57181V1.17181C30.497 1.17181 29.5794 1.78564 29.1915 2.72643L29.5613 2.87892ZM30.0252 5.18229C29.4182 4.57928 29.2348 3.66987 29.5613 2.87898L29.1915 2.72637C28.8032 3.66719 29.0214 4.74891 29.7433 5.46607L30.0252 5.18229ZM30.9686 5.72409C30.6136 5.62235 30.289 5.43576 30.0228 5.17996L29.7457 5.46839C30.059 5.76946 30.441 5.98897 30.8584 6.10862L30.9686 5.72409ZM31.1136 6.74554V5.91636H30.7135V6.74554H31.1136ZM27.1805 6.94554H30.9135V6.54554H27.1805V6.94554ZM26.7653 7.39068C26.7653 7.15254 26.9667 6.94554 27.1805 6.94554V6.54554C26.7217 6.54554 26.3653 6.95651 26.3653 7.39068H26.7653ZM26.7653 9.09251V7.39068H26.3653V9.09251H26.7653ZM23.6085 9.29251H26.5653V8.89251H23.6085V9.29251ZM23.4085 5.53504V9.09251H23.8085V5.53504H23.4085ZM25.0905 3.02793C25.231 4.07456 24.5751 5.0639 23.5559 5.3421L23.6612 5.72798C24.8738 5.39703 25.6542 4.22003 25.4869 2.97469L25.0905 3.02793ZM22.9998 1.2C24.0564 1.2 24.9499 1.9813 25.0905 3.02793L25.4869 2.97469C25.3197 1.72936 24.2566 0.8 22.9998 0.8V1.2ZM20.909 3.02793C21.0496 1.9813 21.9432 1.2 22.9998 1.2V0.8C21.743 0.8 20.6798 1.72936 20.5126 2.97469L20.909 3.02793ZM22.4437 5.3421C21.4244 5.0639 20.7685 4.07456 20.909 3.02793L20.5126 2.97469C20.3454 4.22003 21.1258 5.39703 22.3384 5.72798L22.4437 5.3421ZM22.591 9.09251V5.53504H22.191V9.09251H22.591ZM19.2603 9.29251H22.391V8.89251H19.2603V9.29251ZM19.0603 7.39068V9.09251H19.4603V7.39068H19.0603ZM18.6186 6.94534C18.8615 6.95601 19.0544 7.15272 19.0603 7.39556L19.4602 7.38581C19.4492 6.93257 19.089 6.56562 18.6362 6.54573L18.6186 6.94534ZM15.086 6.94554H18.6274V6.54554H15.086V6.94554ZM14.886 5.91636V6.74554H15.286V5.91636H14.886ZM15.9768 5.17988C15.7105 5.43547 15.3858 5.62238 15.0309 5.72409L15.1411 6.10862C15.5587 5.98894 15.9406 5.76907 16.2538 5.46848L15.9768 5.17988ZM15.9673 2.21969C16.7866 3.03683 16.7894 4.36261 15.9735 5.18315L16.2571 5.4652C17.2287 4.48816 17.2254 2.90943 16.2497 1.93646L15.9673 2.21969ZM13.0022 2.21963C13.8213 1.40216 15.1481 1.40216 15.9672 2.21963L16.2498 1.93651C15.2745 0.963198 13.6949 0.963198 12.7196 1.93651L13.0022 2.21963ZM12.9959 5.18315C12.18 4.36261 12.1828 3.03683 13.0021 2.21969L12.7197 1.93646C11.744 2.90943 11.7407 4.48816 12.7123 5.4652L12.9959 5.18315ZM13.9244 5.72432C13.5744 5.62247 13.2547 5.43588 12.9939 5.18111L12.7144 5.46725C13.0222 5.76798 13.3996 5.98818 13.8126 6.10839L13.9244 5.72432ZM14.0685 7.39068V5.91636H13.6685V7.39068H14.0685ZM14.4922 7.76249C14.2427 7.76249 14.0685 7.59443 14.0685 7.39068H13.6685C13.6685 7.85925 14.0684 8.16249 14.4922 8.16249V7.76249ZM18.0428 7.76249H14.4922V8.16249H18.0428V7.76249ZM18.2428 9.09251V7.96249H17.8428V9.09251H18.2428ZM12.3153 9.29251H18.0428V8.89251H12.3153V9.29251ZM9.28542 12.2772C9.28542 10.6178 10.6478 9.29251 12.3153 9.29251V8.89251C10.4343 8.89251 8.88542 10.3896 8.88542 12.2772H9.28542ZM9.28542 18.2196V12.2772H8.88542V18.2196H9.28542ZM7.95488 18.4196H9.08542V18.0196H7.95488V18.4196ZM7.75488 14.4965V18.2196H8.15488V14.4965H7.75488ZM7.38315 14.0734C7.58686 14.0734 7.75488 14.2476 7.75488 14.4965H8.15488C8.15488 14.073 7.85138 13.6734 7.38315 13.6734V14.0734ZM5.90815 14.0734H7.38315V13.6734H5.90815V14.0734ZM5.1727 12.999C5.42758 13.2596 5.61422 13.5792 5.71612 13.9293L6.10018 13.8175C5.97991 13.4043 5.75959 13.0271 5.45871 12.7193L5.1727 12.999ZM2.87 12.5371C3.66103 12.2108 4.57063 12.3938 5.17392 13.0002L5.45749 12.7181C4.74 11.9969 3.65824 11.7792 2.71746 12.1673L2.87 12.5371ZM1.56289 14.489C1.56289 13.6339 2.07891 12.8631 2.86994 12.5371L2.71752 12.1673C1.77673 12.555 1.16289 13.4718 1.16289 14.489H1.56289ZM2.87 16.4412C2.0789 16.1149 1.56289 15.3441 1.56289 14.489H1.16289C1.16289 15.5062 1.77673 16.4229 2.71746 16.811L2.87 16.4412ZM5.17388 15.9778C4.57064 16.5845 3.66106 16.7673 2.86994 16.4412L2.71752 16.811C3.65822 17.1987 4.73999 16.9815 5.45753 16.2599L5.17388 15.9778ZM5.71592 15.0351C5.61415 15.3896 5.42715 15.7144 5.17155 15.9802L5.45986 16.2575C5.7607 15.9447 5.98066 15.5625 6.10038 15.1455L5.71592 15.0351ZM6.73737 14.8903H5.90815V15.2903H6.73737V14.8903ZM6.93737 18.8217V15.0903H6.53737V18.8217H6.93737ZM7.38315 19.2366C7.14462 19.2366 6.93737 19.0347 6.93737 18.8217H6.53737C6.53737 19.2802 6.94907 19.6366 7.38315 19.6366V19.2366ZM9.08542 19.2366H7.38315V19.6366H9.08542V19.2366ZM9.28542 22.392V19.4366H8.88542V22.392H9.28542ZM5.5287 22.592H9.08542V22.192H5.5287V22.592ZM4.7935 21.5125C5.05266 21.7703 5.23961 22.0916 5.33572 22.4446L5.72167 22.3395C5.60717 21.919 5.38443 21.5361 5.0756 21.2289L4.7935 21.5125ZM2.25487 21.1773C3.07951 20.7025 4.12002 20.8396 4.7932 21.5122L5.07591 21.2292C4.27476 20.4288 3.03652 20.2657 2.05529 20.8306L2.25487 21.1773ZM1.27051 23.5397C1.02668 22.6203 1.42996 21.6517 2.25479 21.1773L2.05537 20.8306C1.07365 21.3952 0.593691 22.5481 0.883878 23.6423L1.27051 23.5397ZM3.29693 25.1044C2.34544 25.1006 1.51464 24.459 1.2705 23.5397L0.883894 23.6423C1.17445 24.7365 2.16311 25.4999 3.29537 25.5044L3.29693 25.1044ZM5.33581 23.5561C5.08455 24.4733 4.24884 25.1081 3.29693 25.1044L3.29537 25.5044C4.4279 25.5088 5.42252 24.7535 5.72159 23.6618L5.33581 23.5561ZM9.08542 23.409H5.5287V23.809H9.08542V23.409ZM9.28542 26.7383V23.609H8.88542V26.7383H9.28542ZM7.38315 26.9383H9.08542V26.5383H7.38315V26.9383ZM6.93718 27.3797C6.94784 27.1371 7.14486 26.9439 7.38783 26.9382L7.37847 26.5383C6.92505 26.549 6.55747 26.9093 6.53756 27.3621L6.93718 27.3797ZM6.93737 30.9107V27.3709H6.53737V30.9107H6.93737ZM5.90815 31.1107H6.73737V30.7107H5.90815V31.1107ZM5.17147 30.0204C5.42717 30.2866 5.61415 30.6111 5.7159 30.9658L6.1004 30.8555C5.98066 30.4381 5.76067 30.0564 5.45994 29.7433L5.17147 30.0204ZM2.21173 30.0309C3.02831 29.2125 4.35387 29.2091 5.17482 30.0238L5.45658 29.7399C4.47913 28.7699 2.90089 28.7739 1.92858 29.7484L2.21173 30.0309ZM2.2117 32.9924C1.39485 32.1741 1.39485 30.8493 2.2117 30.0309L1.9286 29.7484C0.955887 30.7229 0.955886 32.3005 1.9286 33.275L2.2117 32.9924ZM5.17482 32.9996C4.35387 33.8143 3.02831 33.8108 2.21173 32.9925L1.92858 33.275C2.90089 34.2494 4.47913 34.2535 5.45658 33.2835L5.17482 32.9996ZM5.71613 32.0717C5.61424 32.4215 5.42759 32.741 5.1727 33.0017L5.45871 33.2814C5.75958 32.9736 5.97989 32.5964 6.10017 32.1836L5.71613 32.0717ZM7.38315 31.9276H5.90815V32.3276H7.38315V31.9276ZM7.75488 31.5042C7.75488 31.7535 7.5868 31.9276 7.38315 31.9276V32.3276C7.85144 32.3276 8.15488 31.928 8.15488 31.5042H7.75488ZM7.75488 27.9552V31.5042H8.15488V27.9552H7.75488ZM9.08542 27.7552H7.95488V28.1552H9.08542V27.7552ZM9.28542 33.7235V27.9552H8.88542V33.7235H9.28542ZM12.3153 36.7085C10.6479 36.7085 9.28542 35.3826 9.28542 33.7235H8.88542C8.88542 35.6107 10.4342 37.1085 12.3153 37.1085V36.7085ZM18.2167 36.7085H12.3153V37.1085H18.2167V36.7085ZM18.4167 38.0385V36.9085H18.0167V38.0385H18.4167ZM14.4922 38.2385H18.2167V37.8385H14.4922V38.2385ZM14.0685 38.61C14.0685 38.4065 14.2428 38.2385 14.4922 38.2385V37.8385C14.069 37.8385 13.6685 38.1412 13.6685 38.61H14.0685ZM14.0685 40.0843V38.61H13.6685V40.0843H14.0685ZM12.9939 40.8196C13.2547 40.5648 13.5744 40.3782 13.9244 40.2764L13.8126 39.8923C13.3996 40.0125 13.0222 40.2327 12.7144 40.5334L12.9939 40.8196ZM12.5311 43.1217C12.2047 42.3308 12.3881 41.4214 12.9951 40.8184L12.7132 40.5346C11.9912 41.2518 11.7731 42.3335 12.1614 43.2743L12.5311 43.1217ZM14.4847 44.4289C13.6287 44.4289 12.8573 43.9127 12.5311 43.1218L12.1614 43.2742C12.5493 44.215 13.4668 44.8289 14.4847 44.8289V44.4289ZM16.4386 43.1217C16.1121 43.9127 15.3406 44.4289 14.4847 44.4289V44.8289C15.5026 44.8289 16.4201 44.215 16.8084 43.2743L16.4386 43.1217ZM15.9744 40.8184C16.5816 41.4214 16.7647 42.3308 16.4386 43.1218L16.8084 43.2742C17.1963 42.3335 16.9785 41.2518 16.2562 40.5346L15.9744 40.8184ZM15.0309 40.2766C15.3859 40.3783 15.7105 40.5649 15.9767 40.8207L16.2539 40.5323C15.9405 40.2312 15.5586 40.0117 15.1411 39.8921L15.0309 40.2766ZM14.886 39.2555V40.0843H15.286V39.2555H14.886ZM18.819 39.0555H15.086V39.4555H18.819V39.0555ZM19.2342 38.61C19.2342 38.8483 19.0327 39.0555 18.819 39.0555V39.4555C19.2779 39.4555 19.6342 39.044 19.6342 38.61H19.2342ZM19.2342 36.9085V38.61H19.6342V36.9085H19.2342ZM22.391 36.7085H19.4342V37.1085H22.391V36.7085ZM22.591 40.4656V36.9085H22.191V40.4656H22.591ZM20.9094 42.9724C20.7688 41.9258 21.4247 40.9368 22.4437 40.6586L22.3383 40.2727C21.1261 40.6037 20.3457 41.7803 20.5129 43.0256L20.9094 42.9724ZM22.9998 44.8C21.9432 44.8 21.0499 44.0187 20.9094 42.9724L20.5129 43.0257C20.6802 44.2706 21.743 45.2 22.9998 45.2V44.8ZM25.0901 42.9725C24.9499 44.0187 24.0564 44.8 22.9998 44.8V45.2C24.2565 45.2 25.3197 44.2707 25.4866 43.0256L25.0901 42.9725ZM23.5559 40.6586C24.5751 40.9368 25.2307 41.9258 25.0901 42.9724L25.4866 43.0256C25.6538 41.7803 24.8738 40.6037 23.6612 40.2727L23.5559 40.6586ZM23.4085 36.9085V40.4656H23.8085V36.9085H23.4085ZM26.7392 36.7085H23.6085V37.1085H26.7392V36.7085ZM26.9392 38.61V36.9085H26.5392V38.61H26.9392ZM27.3814 39.0557C27.138 39.0448 26.9451 38.8479 26.9392 38.6051L26.5393 38.6149C26.5504 39.0682 26.9105 39.435 27.3635 39.4553L27.3814 39.0557ZM30.9135 39.0555H27.3725V39.4555H30.9135V39.0555ZM31.1136 40.0843V39.2555H30.7135V40.0843H31.1136ZM30.0227 40.8208C30.2891 40.5652 30.6137 40.3783 30.9686 40.2766L30.8584 39.8921C30.4409 40.0117 30.059 40.2316 29.7458 40.5322L30.0227 40.8208ZM30.0326 43.781C29.2132 42.9638 29.2104 41.638 30.0261 40.8175L29.7424 40.5355C28.7712 41.5125 28.7745 43.0913 29.7501 44.0642L30.0326 43.781ZM32.9974 43.781C32.1783 44.5979 30.8517 44.5979 30.0326 43.781L29.7501 44.0642C30.7254 45.0368 32.3046 45.0368 33.2799 44.0642L32.9974 43.781ZM33.0036 40.8175C33.8196 41.6381 33.8168 42.9639 32.9974 43.781L33.2799 44.0642C34.2555 43.0912 34.2588 41.5125 33.2872 40.5355L33.0036 40.8175ZM32.0752 40.2764C32.4254 40.3782 32.7448 40.5648 33.0057 40.8196L33.2852 40.5334C32.9773 40.2327 32.6003 40.0125 32.1869 39.8923L32.0752 40.2764ZM31.9311 38.61V40.0843H32.3311V38.61H31.9311ZM31.5077 38.2385C31.757 38.2385 31.9311 38.4063 31.9311 38.61H32.3311C32.3311 38.1413 31.9311 37.8385 31.5077 37.8385V38.2385ZM27.9568 38.2385H31.5077V37.8385H27.9568V38.2385ZM27.7568 36.9085V38.0385H28.1568V36.9085H27.7568ZM33.7712 36.7085H27.9568V37.1085H33.7712V36.7085ZM36.8011 33.7235C36.8011 35.3829 35.4386 36.7085 33.7712 36.7085V37.1085C35.6523 37.1085 37.2011 35.6111 37.2011 33.7235H36.8011ZM36.8011 27.7814V33.7235H37.2011V27.7814H36.8011ZM38.0447 27.5814H37.0011V27.9814H38.0447V27.5814ZM38.2447 31.5042V27.7814H37.8447V31.5042H38.2447ZM38.6167 31.9276C38.4127 31.9276 38.2447 31.7531 38.2447 31.5042H37.8447C37.8447 31.9276 38.1481 32.3276 38.6167 32.3276V31.9276ZM40.0917 31.9276H38.6167V32.3276H40.0917V31.9276ZM40.8272 33.0017C40.5723 32.741 40.3856 32.4215 40.2837 32.0717L39.8997 32.1836C40.02 32.5964 40.2403 32.9736 40.5412 33.2814L40.8272 33.0017ZM43.1306 33.4643C42.3392 33.7906 41.4293 33.6073 40.826 33.0005L40.5423 33.2826C41.2598 34.0041 42.3419 34.2221 43.2831 33.8341L43.1306 33.4643ZM44.438 31.5117C44.438 32.3672 43.9219 33.1382 43.1306 33.4642L43.283 33.8341C44.2242 33.4463 44.838 32.5292 44.838 31.5117H44.438ZM43.1306 29.5588C43.922 29.8851 44.438 30.6562 44.438 31.5117H44.838C44.838 30.4942 44.2242 29.5771 43.2831 29.189L43.1306 29.5588ZM40.826 30.0228C41.4293 29.4158 42.3392 29.2328 43.1306 29.5588L43.283 29.189C42.3419 28.8013 41.2598 29.0189 40.5423 29.7409L40.826 30.0228ZM40.284 30.9657C40.3854 30.6111 40.5723 30.2866 40.8283 30.0205L40.54 29.7432C40.2389 30.0563 40.0188 30.4381 39.8994 30.8557L40.284 30.9657ZM39.2622 31.1107H40.0917V30.7107H39.2622V31.1107ZM39.0622 27.179V30.9107H39.4622V27.179H39.0622ZM38.6167 26.7644C38.855 26.7644 39.0622 26.966 39.0622 27.179H39.4622C39.4622 26.7204 39.0504 26.3644 38.6167 26.3644V26.7644ZM37.0011 26.7644H38.6167V26.3644H37.0011V26.7644ZM36.8011 23.609V26.5644H37.2011V23.609H36.8011ZM40.4715 23.409H37.0011V23.809H40.4715V23.409ZM43.4117 21.9297C42.9006 21.588 42.2194 21.6551 41.785 22.0897L42.0679 22.3725C42.3673 22.073 42.837 22.0266 43.1894 22.2622L43.4117 21.9297ZM43.8862 23.4934C44.1215 22.9257 43.9228 22.2709 43.4116 21.9296L43.1895 22.2623C43.5419 22.4976 43.6788 22.949 43.5167 23.3402L43.8862 23.4934ZM42.4446 24.2635C43.0473 24.3833 43.6509 24.061 43.8862 23.4934L43.5167 23.3402C43.3545 23.7315 42.9383 23.9538 42.5226 23.8712L42.4446 24.2635ZM41.4075 23.0005C41.4075 23.6148 41.8419 24.1438 42.4446 24.2635L42.5226 23.8712C42.1069 23.7886 41.8075 23.4239 41.8075 23.0005H41.4075ZM41.7851 22.0896C41.5434 22.3312 41.4075 22.6588 41.4075 23.0005H41.8075C41.8075 22.765 41.9012 22.5392 42.0679 22.3725L41.7851 22.0896ZM42.6501 13.2472C42.2034 13.1286 41.7277 13.258 41.4028 13.5864L41.6871 13.8677C41.9112 13.6413 42.2393 13.552 42.5474 13.6338L42.6501 13.2472ZM43.5642 14.1613C43.4455 13.7146 43.0968 13.3661 42.6502 13.2472L42.5473 13.6337C42.8555 13.7158 43.0958 13.9561 43.1776 14.2639L43.5642 14.1613ZM43.2248 15.4081C43.5533 15.0834 43.6828 14.6075 43.5642 14.1612L43.1776 14.264C43.2594 14.5715 43.1701 14.8997 42.9436 15.1237L43.2248 15.4081ZM41.408 15.4029C41.909 15.9037 42.7209 15.9062 43.2248 15.4081L42.9436 15.1236C42.5962 15.467 42.0363 15.4654 41.6908 15.12L41.408 15.4029ZM41.4027 13.5864C40.9045 14.0905 40.9069 14.9017 41.408 15.4029L41.6908 15.1201C41.3453 14.7744 41.3437 14.2152 41.6872 13.8676L41.4027 13.5864ZM31.2563 2.43098C30.6533 2.55113 30.2193 3.07967 30.2193 3.69433H30.6193C30.6193 3.27066 30.9184 2.90618 31.3345 2.82327L31.2563 2.43098ZM32.698 3.20151C32.4627 2.63352 31.8591 2.3112 31.2564 2.43096L31.3344 2.82329C31.7501 2.74068 32.1663 2.96301 32.3284 3.35458L32.698 3.20151ZM32.2234 4.76523C32.7346 4.42395 32.9333 3.76911 32.698 3.20146L32.3285 3.35463C32.4906 3.74587 32.3537 4.19728 32.0013 4.43257L32.2234 4.76523ZM30.5966 4.60528C31.0313 5.03934 31.7124 5.10646 32.2234 4.76523L32.0013 4.43257C31.6489 4.66789 31.179 4.6216 30.8792 4.32224L30.5966 4.60528ZM30.2193 3.69363C30.2181 4.03584 30.3542 4.3642 30.5969 4.60556L30.879 4.32195C30.712 4.15585 30.6184 3.93007 30.6193 3.69504L30.2193 3.69363ZM23.9106 2.40248C23.4075 1.89964 22.592 1.89964 22.0889 2.40248L22.3717 2.68539C22.7186 2.33867 23.2809 2.33867 23.6278 2.68539L23.9106 2.40248ZM23.9105 4.22395C24.4141 3.72105 24.4141 2.90533 23.9105 2.40243L23.6279 2.68545C23.975 3.0321 23.975 3.59428 23.6279 3.94093L23.9105 4.22395ZM22.0889 4.2239C22.592 4.72673 23.4075 4.72673 23.9106 4.2239L23.6278 3.94099C23.2809 4.2877 22.7186 4.2877 22.3717 3.94099L22.0889 4.2239ZM21.71 3.31336C21.71 3.6552 21.8464 3.98345 22.0895 4.22448L22.3711 3.9404C22.2039 3.77465 22.11 3.54875 22.11 3.31336H21.71ZM22.0894 2.40201C21.8464 2.64329 21.71 2.97111 21.71 3.31336H22.11C22.11 3.07769 22.2039 2.85204 22.3712 2.68586L22.0894 2.40201ZM14.2408 2.43098C13.6378 2.55113 13.2038 3.07967 13.2038 3.69433H13.6038C13.6038 3.27066 13.9028 2.90618 14.3189 2.82327L14.2408 2.43098ZM15.6825 3.20151C15.4472 2.63352 14.8436 2.3112 14.2409 2.43096L14.3188 2.82329C14.7346 2.74068 15.1507 2.963 15.3129 3.35458L15.6825 3.20151ZM15.2079 4.76523C15.719 4.42395 15.9177 3.76911 15.6825 3.20146L15.3129 3.35463C15.4751 3.74587 15.3382 4.19728 14.9858 4.43257L15.2079 4.76523ZM13.5811 4.60528C14.0157 5.03934 14.6968 5.10646 15.2079 4.76523L14.9858 4.43257C14.6333 4.66789 14.1635 4.6216 13.8637 4.32224L13.5811 4.60528ZM13.2038 3.69363C13.2025 4.03584 13.3387 4.3642 13.5814 4.60556L13.8634 4.32195C13.6964 4.15585 13.6029 3.93007 13.6038 3.69504L13.2038 3.69363ZM2.77492 15.4066C3.27767 15.9095 4.09279 15.9094 4.59582 15.4075L4.31327 15.1243C3.96636 15.4705 3.40432 15.4704 3.05781 15.1238L2.77492 15.4066ZM2.77497 13.5863C2.27219 14.0888 2.27219 14.9041 2.77497 15.4067L3.05775 15.1238C2.71127 14.7774 2.71127 14.2155 3.05775 13.8692L2.77497 13.5863ZM4.59582 13.5855C4.09279 13.0835 3.27767 13.0834 2.77492 13.5863L3.05781 13.8691C3.40432 13.5225 3.96636 13.5224 4.31327 13.8686L4.59582 13.5855ZM4.97659 14.4965C4.97659 14.1539 4.83927 13.8256 4.595 13.5847L4.3141 13.8694C4.48223 14.0353 4.57659 14.2611 4.57659 14.4965H4.97659ZM4.59488 15.4084C4.83931 15.1677 4.97659 14.8393 4.97659 14.4965H4.57659C4.57659 14.7323 4.48219 14.958 4.31422 15.1234L4.59488 15.4084ZM2.5878 24.071C3.09892 24.4127 3.78011 24.3455 4.21479 23.911L3.93201 23.6281C3.63224 23.9278 3.16251 23.974 2.8101 23.7385L2.5878 24.071ZM2.11366 22.5073C1.87842 23.0753 2.07707 23.7297 2.58783 24.071L2.81007 23.7384C2.45798 23.5032 2.321 23.0521 2.48321 22.6604L2.11366 22.5073ZM3.55526 21.7371C2.95257 21.6174 2.34896 21.9397 2.11368 22.5073L2.48319 22.6605C2.64537 22.2692 3.06155 22.0469 3.4773 22.1295L3.55526 21.7371ZM4.59204 23.0005C4.59204 22.386 4.15815 21.8569 3.55526 21.7371L3.4773 22.1295C3.89286 22.212 4.19204 22.5767 4.19204 23.0005H4.59204ZM4.21491 23.9109C4.45608 23.6695 4.59204 23.3419 4.59204 23.0005H4.19204C4.19204 23.2356 4.09837 23.4616 3.93189 23.6283L4.21491 23.9109ZM3.34948 32.7535C3.79606 32.8721 4.27216 32.7427 4.59681 32.4142L4.31229 32.1331C4.08865 32.3594 3.76033 32.4487 3.45209 32.3669L3.34948 32.7535ZM2.43533 31.8394C2.55401 32.2862 2.90311 32.6346 3.34927 32.7535L3.45229 32.367C3.14431 32.2849 2.90368 32.0445 2.82193 31.7367L2.43533 31.8394ZM2.77474 30.5926C2.44621 30.9173 2.31669 31.3932 2.43535 31.8395L2.82192 31.7367C2.74014 31.4291 2.8294 31.101 3.05595 30.877L2.77474 30.5926ZM4.59152 30.5978C4.09046 30.0969 3.279 30.0946 2.77481 30.5925L3.05588 30.8771C3.40367 30.5336 3.96326 30.5353 4.30874 30.8807L4.59152 30.5978ZM4.59679 32.4142C5.09496 31.9103 5.09302 31.099 4.59152 30.5978L4.30874 30.8807C4.65447 31.2262 4.65593 31.7854 4.31231 32.133L4.59679 32.4142ZM14.7437 43.5684C15.3463 43.449 15.7802 42.9203 15.7806 42.3065L15.3806 42.3062C15.3803 42.7294 15.0812 43.0937 14.6659 43.176L14.7437 43.5684ZM13.3033 42.7986C13.5385 43.3657 14.1417 43.6882 14.7439 43.5684L14.6658 43.176C14.2509 43.2586 13.8349 43.0364 13.6727 42.6453L13.3033 42.7986ZM13.7774 41.2358C13.2666 41.5771 13.0683 42.2312 13.3032 42.7985L13.6728 42.6454C13.5109 42.2545 13.6475 41.8037 13.9996 41.5684L13.7774 41.2358ZM15.403 41.3958C14.9686 40.9616 14.2881 40.895 13.7775 41.2358L13.9995 41.5685C14.3517 41.3334 14.8209 41.3795 15.1202 41.6787L15.403 41.3958ZM15.7806 42.3068C15.7814 41.9648 15.6453 41.6364 15.4025 41.3953L15.1207 41.6792C15.2876 41.8449 15.3811 42.0706 15.3806 42.3059L15.7806 42.3068ZM22.0897 43.5979C22.5927 44.1003 23.4077 44.1008 23.9109 43.5983L23.6282 43.3152C23.2814 43.6616 22.7193 43.6614 22.3723 43.3149L22.0897 43.5979ZM22.0896 41.7772C21.5869 42.2801 21.5869 43.0949 22.0896 43.5978L22.3725 43.315C22.0259 42.9683 22.0259 42.4067 22.3725 42.06L22.0896 41.7772ZM23.9109 41.7767C23.4077 41.2742 22.5927 41.2747 22.0897 41.7771L22.3723 42.0601C22.7193 41.7136 23.2814 41.7134 23.6282 42.0597L23.9109 41.7767ZM23.9111 43.598C24.4133 43.0948 24.4133 42.2801 23.9111 41.777L23.628 42.0595C23.9743 42.4066 23.9743 42.9684 23.628 43.3155L23.9111 43.598ZM31.7596 43.5684C32.3621 43.449 32.796 42.9203 32.7965 42.3065L32.3965 42.3062C32.3962 42.7294 32.097 43.0937 31.6818 43.176L31.7596 43.5684ZM30.3191 42.7986C30.5544 43.3657 31.1576 43.6882 31.7597 43.5684L31.6817 43.176C31.2667 43.2586 30.8508 43.0364 30.6886 42.6453L30.3191 42.7986ZM30.7933 41.2358C30.2825 41.5771 30.0842 42.2312 30.3191 42.7985L30.6886 42.6454C30.5268 42.2545 30.6634 41.8037 31.0155 41.5684L30.7933 41.2358ZM32.4189 41.3958C31.9845 40.9616 31.304 40.895 30.7934 41.2358L31.0154 41.5685C31.3676 41.3334 31.8367 41.3795 32.1361 41.6787L32.4189 41.3958ZM32.7961 42.3068C32.7969 41.965 32.6613 41.6366 32.4184 41.3953L32.1366 41.6792C32.3033 41.8448 32.3967 42.0705 32.3961 42.3059L32.7961 42.3068ZM32.5965 42.1063H32.5961V42.5063H32.5965V42.1063ZM33.7834 35.9785C34.9985 35.9785 35.9836 34.9936 35.9836 33.7792H35.5836C35.5836 34.7726 34.7777 35.5785 33.7834 35.5785V35.9785ZM12.3031 35.9785H33.7834V35.5785H12.3031V35.9785ZM10.1029 33.7792C10.1029 34.9936 11.088 35.9785 12.3031 35.9785V35.5785C11.3088 35.5785 10.5029 34.7726 10.5029 33.7792H10.1029ZM10.1029 12.3087V33.7792H10.5029V12.3087H10.1029ZM12.3031 10.1095C11.088 10.1095 10.1029 11.094 10.1029 12.3087H10.5029C10.5029 11.3151 11.3088 10.5095 12.3031 10.5095V10.1095ZM33.7834 10.1095H12.3031V10.5095H33.7834V10.1095ZM35.9836 12.3087C35.9836 11.094 34.9985 10.1095 33.7834 10.1095V10.5095C34.7777 10.5095 35.5836 11.3151 35.5836 12.3087H35.9836ZM35.9836 33.7792V12.3087H35.5836V33.7792H35.9836ZM43.2256 30.5933C42.7225 30.0905 41.9067 30.0905 41.4036 30.5933L41.6864 30.8762C42.0332 30.5295 42.5959 30.5295 42.9428 30.8762L43.2256 30.5933ZM43.2256 32.4151C43.729 31.9119 43.729 31.0966 43.2256 30.5933L42.9428 30.8762C43.29 31.2233 43.29 31.7852 42.9428 32.1322L43.2256 32.4151ZM41.4036 32.4151C41.9067 32.9179 42.7225 32.9179 43.2256 32.4151L42.9428 32.1322C42.5959 32.4789 42.0332 32.4789 41.6864 32.1322L41.4036 32.4151ZM41.0233 31.5042C41.0233 31.8467 41.1606 32.175 41.4044 32.4159L41.6855 32.1314C41.5177 31.9655 41.4233 31.7396 41.4233 31.5042H41.0233ZM41.4045 30.5924C41.1605 30.8331 41.0233 31.1614 41.0233 31.5042H41.4233C41.4233 31.2684 41.5177 31.0426 41.6854 30.8772L41.4045 30.5924ZM29.8727 21.318L31.2946 21.4552L31.333 21.0571L29.9111 20.9199L29.8727 21.318ZM29.0166 19.556C29.3134 20.0626 29.5428 20.606 29.6991 21.1722L30.0847 21.0658C29.9192 20.4661 29.6761 19.8904 29.3617 19.3538L29.0166 19.556ZM29.9368 18.2404L29.0352 19.3272L29.3431 19.5826L30.2447 18.4958L29.9368 18.2404ZM29.9169 17.7902C30.0384 17.9129 30.0469 18.1077 29.9368 18.2404L30.2447 18.4958C30.4863 18.2046 30.4673 17.7776 30.2012 17.5088L29.9169 17.7902ZM28.2256 16.0822L29.917 17.7902L30.2012 17.5087L28.5098 15.8008L28.2256 16.0822ZM27.7726 16.0599C27.9066 15.9488 28.1032 15.9585 28.2255 16.0822L28.5098 15.8008C28.2417 15.5299 27.8109 15.5085 27.5173 15.7519L27.7726 16.0599ZM26.6816 16.9638L27.7725 16.0599L27.5173 15.7519L26.4264 16.6558L26.6816 16.9638ZM24.835 16.3003C25.4013 16.4589 25.945 16.6882 26.4538 16.9829L26.6543 16.6368C26.1164 16.3252 25.5416 16.0828 24.9429 15.9151L24.835 16.3003ZM24.5526 14.7068L24.6899 16.1269L25.088 16.0884L24.9508 14.6683L24.5526 14.7068ZM24.2171 14.4C24.3911 14.4009 24.5361 14.5335 24.5526 14.7066L24.9508 14.6685C24.9147 14.291 24.5986 14.0021 24.2193 14L24.2171 14.4ZM21.7933 14.4H24.2182V14H21.7933V14.4ZM21.4589 14.7066C21.4755 14.5335 21.6204 14.4009 21.7944 14.4L21.7922 14C21.4129 14.0021 21.0968 14.291 21.0607 14.6685L21.4589 14.7066ZM21.3216 16.1249L21.4589 14.7068L21.0607 14.6683L20.9235 16.0863L21.3216 16.1249ZM19.5556 16.9793C20.0636 16.6829 20.6082 16.4541 21.1755 16.2985L21.0696 15.9127C20.4689 16.0775 19.8921 16.3198 19.354 16.6338L19.5556 16.9793ZM18.2393 16.0593L19.3272 16.9606L19.5824 16.6525L18.4945 15.7513L18.2393 16.0593ZM17.7875 16.0804C17.9101 15.958 18.1059 15.9488 18.2393 16.0593L18.4945 15.7513C18.2021 15.5091 17.7734 15.5292 17.5049 15.7972L17.7875 16.0804ZM16.0755 17.7884L17.7875 16.0804L17.505 15.7972L15.793 17.5052L16.0755 17.7884ZM16.0541 18.2401C15.9434 18.1066 15.9527 17.9109 16.0755 17.7883L15.7929 17.5052C15.524 17.7736 15.5034 18.2027 15.7462 18.4954L16.0541 18.2401ZM16.9575 19.3293L16.0541 18.2401L15.7462 18.4954L16.6496 19.5847L16.9575 19.3293ZM16.2936 21.1729C16.4526 20.6079 16.682 20.065 16.9765 19.5574L16.6305 19.3566C16.3192 19.8934 16.0767 20.4673 15.9086 21.0645L16.2936 21.1729ZM14.6963 21.4555L16.1203 21.3177L16.0818 20.9196L14.6578 21.0574L14.6963 21.4555ZM14.3914 21.7899C14.3918 21.6166 14.5234 21.4721 14.6961 21.4556L14.658 21.0574C14.2805 21.0935 13.9922 21.4098 13.9914 21.789L14.3914 21.7899ZM14.3914 24.2103V21.7894H13.9914V24.2103H14.3914ZM14.696 24.5445C14.5231 24.5278 14.3916 24.3829 14.3914 24.2101L13.9914 24.2105C13.9918 24.5896 14.2801 24.9062 14.6575 24.9427L14.696 24.5445ZM16.118 24.6823L14.696 24.5445L14.6575 24.9427L16.0794 25.0805L16.118 24.6823ZM16.9738 26.4445C16.6772 25.9375 16.4477 25.394 16.2915 24.8282L15.9059 24.9346C16.0714 25.534 16.3144 26.1096 16.6285 26.6464L16.9738 26.4445ZM16.0538 27.7597L16.9551 26.6731L16.6472 26.4178L15.7459 27.5043L16.0538 27.7597ZM16.0751 28.2113C15.9522 28.0889 15.943 27.8933 16.0538 27.7597L15.7459 27.5043C15.5032 27.797 15.5233 28.2261 15.7927 28.4946L16.0751 28.2113ZM17.7872 29.9194L16.0752 28.2114L15.7927 28.4946L17.5047 30.2026L17.7872 29.9194ZM18.2386 29.9402C18.1054 30.0507 17.9097 30.0417 17.7872 29.9194L17.5046 30.2025C17.7732 30.4706 18.2019 30.4903 18.494 30.2481L18.2386 29.9402ZM19.3299 29.0359L18.2387 29.9401L18.4939 30.2481L19.5851 29.3439L19.3299 29.0359ZM21.1761 29.6995C20.6102 29.5411 20.0663 29.3116 19.5578 29.0169L19.3572 29.363C19.8948 29.6745 20.4699 29.9172 21.0684 30.0847L21.1761 29.6995ZM21.4586 31.2933L21.3213 29.8728L20.9232 29.9113L21.0604 31.3318L21.4586 31.2933ZM21.7944 31.6C21.6203 31.5991 21.4751 31.4664 21.4586 31.2935L21.0604 31.3315C21.0965 31.7092 21.4131 31.998 21.7922 32L21.7944 31.6ZM24.2188 31.6H21.7933V32H24.2188V31.6ZM24.5529 31.2935C24.5364 31.4663 24.3916 31.5989 24.2175 31.6L24.2201 32C24.5993 31.9976 24.915 31.7087 24.9511 31.3316L24.5529 31.2935ZM24.6902 29.8749L24.5529 31.2933L24.9511 31.3318L25.0883 29.9134L24.6902 29.8749ZM26.4566 29.0205C25.9482 29.3169 25.4039 29.5457 24.8364 29.7013L24.9421 30.0871C25.5432 29.9222 26.1197 29.6799 26.6581 29.366L26.4566 29.0205ZM27.7728 29.9404L26.6849 29.0392L26.4297 29.3472L27.5176 30.2485L27.7728 29.9404ZM28.2246 29.9194C28.102 30.0418 27.9062 30.0509 27.7728 29.9404L27.5176 30.2485C27.81 30.4907 28.2387 30.4705 28.5072 30.2025L28.2246 29.9194ZM29.9366 28.2114L28.2246 29.9194L28.5072 30.2026L30.2192 28.4946L29.9366 28.2114ZM29.9577 27.7597C30.0686 27.8933 30.0593 28.089 29.9366 28.2114L30.2192 28.4945C30.4882 28.226 30.5083 27.7969 30.2656 27.5043L29.9577 27.7597ZM29.0546 26.6704L29.9577 27.7596L30.2657 27.5043L29.3626 26.4151L29.0546 26.6704ZM29.7188 24.8262C29.5595 25.3916 29.3301 25.9344 29.0356 26.4424L29.3816 26.6431C29.693 26.1061 29.9354 25.5322 30.1038 24.9348L29.7188 24.8262ZM31.2956 24.5442L29.8919 24.6814L29.9308 25.0795L31.3345 24.9423L31.2956 24.5442ZM31.5995 24.2101C31.5993 24.383 31.4679 24.5275 31.2957 24.5442L31.3343 24.9424C31.7112 24.9058 31.9991 24.5894 31.9995 24.2105L31.5995 24.2101ZM31.5995 21.7894V24.2103H31.9995V21.7894H31.5995ZM31.2948 21.4553C31.4676 21.4718 31.5993 21.6166 31.5995 21.7896L31.9995 21.7892C31.9991 21.4098 31.7104 21.0932 31.3329 21.0571L31.2948 21.4553ZM29.4514 24.0501L30.7466 23.9236L30.7077 23.5255L29.4125 23.652L29.4514 24.0501ZM29.1556 24.3116C29.1872 24.1699 29.3064 24.0644 29.4516 24.0501L29.4124 23.652C29.0958 23.6831 28.8346 23.9136 28.7652 24.2244L29.1556 24.3116ZM28.2691 26.4067C28.6881 25.7675 28.9885 25.0577 29.1556 24.3117L28.7652 24.2243C28.6087 24.9233 28.3272 25.5885 27.9346 26.1874L28.2691 26.4067ZM28.2922 26.8036C28.1983 26.6905 28.189 26.5295 28.2694 26.4063L27.9343 26.1878C27.7581 26.458 27.7787 26.8111 27.9844 27.0591L28.2922 26.8036ZM29.1284 27.8122L28.2923 26.8037L27.9844 27.059L28.8205 28.0675L29.1284 27.8122ZM28.0947 29.0996L29.1157 28.0815L28.8332 27.7983L27.8123 28.8164L28.0947 29.0996ZM26.8164 28.2756L27.8259 29.112L28.0811 28.804L27.0716 27.9676L26.8164 28.2756ZM26.4167 28.2538C26.5399 28.1724 26.7023 28.1811 26.8164 28.2756L27.0716 27.9676C26.822 27.7608 26.4665 27.7414 26.1961 27.9201L26.4167 28.2538ZM24.3217 29.1344C25.0689 28.9743 25.7796 28.6758 26.4169 28.2537L26.196 27.9202C25.6005 28.3147 24.9363 28.5937 24.2379 28.7433L24.3217 29.1344ZM24.0578 29.4336C24.072 29.2867 24.1789 29.166 24.3229 29.1341L24.2367 28.7435C23.9232 28.8128 23.6904 29.0758 23.6597 29.3953L24.0578 29.4336ZM23.9311 30.7479L24.0578 29.4336L23.6597 29.3952L23.5329 30.7095L23.9311 30.7479ZM22.2795 30.9287H23.732V30.5287H22.2795V30.9287ZM21.9534 29.4337L22.0805 30.748L22.4786 30.7095L22.3515 29.3952L21.9534 29.4337ZM21.6884 29.1358C21.832 29.1668 21.9393 29.2874 21.9534 29.4336L22.3515 29.3952C22.3208 29.0757 22.0865 28.8125 21.7727 28.7448L21.6884 29.1358ZM19.5895 28.2512C20.2294 28.6704 20.9402 28.9702 21.6873 29.1356L21.7738 28.7451C21.074 28.5901 20.4081 28.3093 19.8087 27.9167L19.5895 28.2512ZM19.1948 28.2762C19.3073 28.183 19.4678 28.1733 19.5913 28.2524L19.807 27.9155C19.5375 27.7429 19.1866 27.7637 18.9397 27.9682L19.1948 28.2762ZM18.1849 29.1123L19.1948 28.2763L18.9397 27.9682L17.9299 28.8042L18.1849 29.1123ZM16.8952 28.0815L17.9161 29.0999L18.1986 28.8167L17.1777 27.7983L16.8952 28.0815ZM17.7189 26.8037L16.8825 27.8122L17.1904 28.0675L18.0268 27.059L17.7189 26.8037ZM17.7401 26.4036C17.8222 26.527 17.8136 26.6896 17.719 26.8036L18.0268 27.059C18.2342 26.809 18.2531 26.4527 18.0732 26.1821L17.7401 26.4036ZM16.8562 24.3124C17.0176 25.0587 17.3172 25.7679 17.7402 26.4036L18.0732 26.1821C17.678 25.5881 17.398 24.9253 17.2472 24.2278L16.8562 24.3124ZM16.5599 24.0501C16.7051 24.064 16.825 24.1702 16.8564 24.313L17.2471 24.2272C17.1785 23.9151 16.9163 23.6823 16.5979 23.6519L16.5599 24.0501ZM15.2439 23.9231L16.5597 24.0501L16.5982 23.652L15.2824 23.5249L15.2439 23.9231ZM15.0632 22.2758V23.724H15.4632V22.2758H15.0632ZM16.5597 21.9496L15.2439 22.0767L15.2824 22.4748L16.5982 22.3478L16.5597 21.9496ZM16.8556 21.6882C16.824 21.8302 16.7046 21.9356 16.5596 21.9497L16.5983 22.3478C16.915 22.317 17.1766 22.0865 17.246 21.7753L16.8556 21.6882ZM17.7421 19.5931C17.3231 20.2322 17.0227 20.9421 16.8557 21.688L17.246 21.7754C17.4025 21.0765 17.684 20.4113 18.0766 19.8124L17.7421 19.5931ZM17.7193 19.1961C17.813 19.3091 17.8223 19.4701 17.7419 19.5935L18.0769 19.812C18.253 19.542 18.233 19.1888 18.0271 18.9407L17.7193 19.1961ZM16.8828 18.1876L17.7192 19.1961L18.0271 18.9407L17.1907 17.9322L16.8828 18.1876ZM17.9161 16.8999L16.8955 17.9183L17.178 18.2015L18.1987 17.1831L17.9161 16.8999ZM19.1946 17.7242L18.185 16.8875L17.9298 17.1955L18.9393 18.0321L19.1946 17.7242ZM19.5947 17.7459C19.4709 17.8276 19.3085 17.8188 19.1947 17.7243L18.9392 18.032C19.189 18.2394 19.5446 18.2581 19.815 18.0798L19.5947 17.7459ZM21.6892 16.8654C20.942 17.0254 20.2313 17.3239 19.5943 17.7461L19.8153 18.0795C20.4104 17.6851 21.0746 17.4061 21.773 17.2565L21.6892 16.8654ZM21.953 16.5664C21.9391 16.7129 21.8322 16.8338 21.688 16.8656L21.7742 17.2562C22.0875 17.187 22.3209 16.9241 22.3513 16.6042L21.953 16.5664ZM22.0805 15.252L21.9531 16.566L22.3512 16.6046L22.4786 15.2906L22.0805 15.252ZM23.732 15.0713H22.2795V15.4713H23.732V15.0713ZM24.0581 16.5661L23.931 15.2521L23.5329 15.2906L23.66 16.6046L24.0581 16.5661ZM24.3229 16.8639C24.1791 16.8329 24.072 16.7126 24.0582 16.5664L23.66 16.6042C23.6903 16.9244 23.9248 17.1873 24.2386 17.2549L24.3229 16.8639ZM26.422 17.7485C25.7818 17.3293 25.0709 17.0299 24.324 16.8642L24.2374 17.2547C24.9372 17.41 25.6032 17.6905 26.2028 18.0831L26.422 17.7485ZM26.8164 17.7235C26.7037 17.8169 26.5436 17.8266 26.4204 17.7475L26.2043 18.0841C26.4741 18.2573 26.8248 18.236 27.0715 18.0316L26.8164 17.7235ZM27.8235 16.889L26.8164 17.7235L27.0716 18.0315L28.0787 17.197L27.8235 16.889ZM29.0977 17.9165L28.0932 16.9022L27.809 17.1837L28.8135 18.1979L29.0977 17.9165ZM28.271 19.1955L29.1095 18.1849L28.8017 17.9295L27.9632 18.9401L28.271 19.1955ZM28.2501 19.5959C28.168 19.4723 28.1765 19.3097 28.2711 19.1954L27.9631 18.9402C27.7557 19.1906 27.7373 19.5469 27.9171 19.8173L28.2501 19.5959ZM29.1343 21.6874C28.973 20.9411 28.6731 20.2315 28.2501 19.5958L27.9171 19.8174C28.3123 20.4114 28.5926 21.0745 28.7434 21.7719L29.1343 21.6874ZM29.4309 21.9499C29.2851 21.9359 29.1653 21.8294 29.1343 21.687L28.7435 21.7723C28.8117 22.0848 29.0741 22.3173 29.3924 22.3481L29.4309 21.9499ZM30.7463 22.0767L29.4308 21.9499L29.3925 22.3481L30.7079 22.4748L30.7463 22.0767ZM30.9271 23.7246V22.2758H30.5271V23.7246H30.9271ZM22.3138 20.7034C22.3138 20.1113 22.3156 19.6188 22.416 19.2717C22.4647 19.103 22.5316 18.9892 22.6156 18.917C22.6961 18.8478 22.8118 18.8 22.9942 18.8V18.4C22.7363 18.4 22.5219 18.47 22.3548 18.6137C22.1911 18.7544 22.093 18.9487 22.0317 19.1606C21.9119 19.5748 21.9138 20.1341 21.9138 20.7034H22.3138ZM22.3138 22.6567V20.7034H21.9138V22.6567H22.3138ZM22.9942 24.56C22.8118 24.56 22.6961 24.5123 22.6156 24.4431C22.5316 24.3709 22.4647 24.2571 22.416 24.0884C22.3156 23.7412 22.3138 23.2488 22.3138 22.6567H21.9138C21.9138 23.226 21.9119 23.7853 22.0317 24.1995C22.093 24.4114 22.1911 24.6057 22.3548 24.7464C22.5219 24.89 22.7363 24.96 22.9942 24.96V24.56ZM23.6746 22.6567C23.6746 23.2488 23.6727 23.7412 23.5724 24.0884C23.5236 24.2571 23.4567 24.3709 23.3728 24.4431C23.2922 24.5123 23.1765 24.56 22.9942 24.56V24.96C23.252 24.96 23.4665 24.89 23.6335 24.7464C23.7972 24.6057 23.8954 24.4114 23.9567 24.1995C24.0764 23.7853 24.0746 23.226 24.0746 22.6567H23.6746ZM23.6746 20.7034V22.6567H24.0746V20.7034H23.6746ZM22.9942 18.8C23.1765 18.8 23.2922 18.8478 23.3728 18.917C23.4567 18.9892 23.5236 19.103 23.5724 19.2717C23.6727 19.6188 23.6746 20.1113 23.6746 20.7034H24.0746C24.0746 20.1341 24.0764 19.5748 23.9567 19.1606C23.8954 18.9487 23.7972 18.7544 23.6335 18.6137C23.4665 18.47 23.252 18.4 22.9942 18.4V18.8ZM22.3138 26.4994C22.3138 26.1354 22.6091 25.84 22.9736 25.84V25.44C22.3884 25.44 21.9138 25.9143 21.9138 26.4994H22.3138ZM22.3138 26.5027V26.4994H21.9138V26.5027H22.3138ZM22.9736 27.1603C22.6086 27.1603 22.3138 26.8662 22.3138 26.5027H21.9138C21.9138 27.0883 22.3889 27.5603 22.9736 27.5603V27.1603ZM23.6334 26.4994C23.6334 26.8639 23.3376 27.1603 22.9736 27.1603V27.5603C23.5593 27.5603 24.0334 27.084 24.0334 26.4994H23.6334ZM22.9736 25.84C23.3381 25.84 23.6334 26.1354 23.6334 26.4994H24.0334C24.0334 25.9143 23.5589 25.44 22.9736 25.44V25.84Z" fill="white" mask="url(#path-1-outside-1_367:414)"/>
</svg>
