<svg width="32" height="32" viewBox="0 0 32 32" fill="none" xmlns="http://www.w3.org/2000/svg">
<path d="M5.07679 9.50919C4.3569 9.50838 3.66674 9.22206 3.1577 8.71302C2.64867 8.20399 2.36234 7.51382 2.36154 6.79394V3.5801C2.37056 2.86586 2.66061 2.18392 3.16888 1.68202C3.67715 1.18013 4.3627 0.898697 5.077 0.898697C5.79131 0.898697 6.47685 1.18013 6.98512 1.68202C7.49339 2.18392 7.78345 2.86586 7.79246 3.5801V6.79394C7.79155 7.51386 7.50512 8.20403 6.99602 8.71305C6.48692 9.22207 5.79671 9.50838 5.07679 9.50919ZM5.07679 1.72973C4.58621 1.7303 4.11589 1.92543 3.769 2.27232C3.42211 2.61921 3.22698 3.08953 3.22641 3.5801V6.79394C3.23383 7.27985 3.43208 7.74334 3.77832 8.08434C4.12457 8.42533 4.59104 8.61646 5.077 8.61646C5.56297 8.61646 6.02944 8.42533 6.37568 8.08434C6.72193 7.74334 6.92017 7.27985 6.9276 6.79394V3.5801C6.92702 3.08945 6.73183 2.61907 6.38485 2.27217C6.03786 1.92527 5.56744 1.73018 5.07679 1.72973Z" fill="white" stroke="white" stroke-width="0.5"/>
<path d="M9.85046 1.72973C9.85046 1.49091 10.0441 1.2973 10.2829 1.2973C10.5217 1.2973 10.7153 1.49091 10.7153 1.72973V8.64434C10.7153 8.88316 10.5217 9.07677 10.2829 9.07677C10.0441 9.07677 9.85046 8.88316 9.85046 8.64434V1.72973Z" fill="white" stroke="white" stroke-width="0.5"/>
<path d="M24.6582 1.72974C24.6582 1.49091 24.8518 1.2973 25.0907 1.2973C25.3295 1.2973 25.5231 1.49091 25.5231 1.72974V8.64433C25.5231 8.88316 25.3295 9.07677 25.0907 9.07677C24.8518 9.07677 24.6582 8.88316 24.6582 8.64433V1.72974Z" fill="white" stroke="white" stroke-width="0.5"/>
<path d="M24.6582 12.7529C24.6582 12.514 24.8518 12.3204 25.0907 12.3204C25.3295 12.3204 25.5231 12.514 25.5231 12.7529V19.6674C25.5231 19.9063 25.3295 20.0999 25.0907 20.0999C24.8518 20.0999 24.6582 19.9063 24.6582 19.6674V12.7529Z" fill="white" stroke="white" stroke-width="0.5"/>
<path d="M28.7737 1.72974C28.7737 1.49091 28.9673 1.2973 29.2061 1.2973C29.4449 1.2973 29.6385 1.49091 29.6385 1.72974V8.64433C29.6385 8.88316 29.4449 9.07677 29.2061 9.07677C28.9673 9.07677 28.7737 8.88316 28.7737 8.64433V1.72974Z" fill="white" stroke="white" stroke-width="0.5"/>
<path d="M15.6299 9.50919C14.9099 9.50839 14.2197 9.22208 13.7106 8.71306C13.2015 8.20404 12.9151 7.51387 12.9142 6.79395V3.58011C12.9142 3.22354 12.9844 2.87046 13.1209 2.54103C13.2573 2.2116 13.4573 1.91228 13.7095 1.66014C13.9616 1.40801 14.2609 1.20801 14.5903 1.07155C14.9198 0.9351 15.2729 0.864868 15.6294 0.864868C15.986 0.864868 16.3391 0.9351 16.6685 1.07155C16.9979 1.20801 17.2973 1.40801 17.5494 1.66014C17.8015 1.91228 18.0015 2.2116 18.138 2.54103C18.2744 2.87046 18.3447 3.22354 18.3447 3.58011V6.79395C18.3439 7.51376 18.0576 8.20386 17.5487 8.71288C17.0397 9.2219 16.3497 9.50828 15.6299 9.50919ZM15.6299 1.72973C15.1392 1.73019 14.6688 1.92527 14.3218 2.27218C13.9748 2.61908 13.7796 3.08946 13.779 3.58011V6.79395C13.779 7.03694 13.8269 7.27756 13.9199 7.50206C14.0129 7.72656 14.1492 7.93054 14.321 8.10236C14.4928 8.27419 14.6968 8.41049 14.9213 8.50348C15.1458 8.59647 15.3864 8.64433 15.6294 8.64433C15.8724 8.64433 16.113 8.59647 16.3375 8.50348C16.562 8.41049 16.766 8.27419 16.9378 8.10236C17.1097 7.93054 17.246 7.72656 17.3389 7.50206C17.4319 7.27756 17.4798 7.03694 17.4798 6.79395V3.58011C17.4793 3.08958 17.2843 2.61926 16.9375 2.27235C16.5907 1.92545 16.1204 1.73031 15.6299 1.72973Z" fill="white" stroke="white" stroke-width="0.5"/>
<path d="M20.5436 1.72974C20.5436 1.49091 20.7372 1.2973 20.9761 1.2973C21.2149 1.2973 21.4085 1.49091 21.4085 1.72974V8.64433C21.4085 8.88316 21.2149 9.07677 20.9761 9.07677C20.7372 9.07677 20.5436 8.88316 20.5436 8.64433V1.72974Z" fill="white" stroke="white" stroke-width="0.5"/>
<path d="M19.8344 20.5323C19.1144 20.5314 18.4242 20.2449 17.9152 19.7357C17.4063 19.2265 17.1201 18.5362 17.1195 17.8162V14.6033C17.115 14.2438 17.1819 13.8871 17.3163 13.5537C17.4507 13.2203 17.65 12.9169 17.9025 12.6612C18.1551 12.4054 18.4559 12.2023 18.7876 12.0637C19.1192 11.9251 19.4751 11.8537 19.8346 11.8537C20.194 11.8537 20.5499 11.9251 20.8816 12.0637C21.2132 12.2023 21.514 12.4054 21.7666 12.6612C22.0192 12.9169 22.2184 13.2203 22.3528 13.5537C22.4873 13.8871 22.5541 14.2438 22.5496 14.6033V17.8162C22.549 18.5363 22.2628 19.2266 21.7537 19.7359C21.2447 20.2451 20.5544 20.5315 19.8344 20.5323ZM19.8344 12.7529C19.3439 12.7536 18.8736 12.9487 18.5268 13.2956C18.1801 13.6425 17.985 14.1128 17.9844 14.6033V17.8162C17.9807 18.0616 18.0257 18.3052 18.117 18.533C18.2083 18.7607 18.344 18.9681 18.5162 19.1429C18.6884 19.3177 18.8936 19.4566 19.1199 19.5513C19.3463 19.6461 19.5892 19.6949 19.8346 19.6949C20.0799 19.6949 20.3229 19.6461 20.5492 19.5513C20.7755 19.4566 20.9808 19.3177 21.1529 19.1429C21.3251 18.9681 21.4608 18.7607 21.5521 18.533C21.6434 18.3052 21.6885 18.0616 21.6847 17.8162V14.6033C21.6842 14.1127 21.489 13.6424 21.1421 13.2955C20.7952 12.9486 20.3249 12.7534 19.8344 12.7529Z" fill="white" stroke="white" stroke-width="0.5"/>
<path d="M7.96848 12.7529C7.96848 12.514 8.16208 12.3204 8.4009 12.3204C8.63973 12.3204 8.83333 12.514 8.83333 12.7529V19.6675C8.83333 19.9063 8.63973 20.0999 8.4009 20.0999C8.16208 20.0999 7.96848 19.9063 7.96848 19.6675V12.7529Z" fill="white" stroke="white" stroke-width="0.5"/>
<path d="M2.36154 12.7529C2.36154 12.514 2.55515 12.3204 2.79397 12.3204C3.0328 12.3204 3.22641 12.514 3.22641 12.7529V19.6675C3.22641 19.9063 3.0328 20.0999 2.79397 20.0999C2.55515 20.0999 2.36154 19.9063 2.36154 19.6675V12.7529Z" fill="white" stroke="white" stroke-width="0.5"/>
<path d="M2.36154 23.3557C2.36154 23.1169 2.55515 22.9232 2.79397 22.9232C3.0328 22.9232 3.22641 23.1169 3.22641 23.3557V30.2703C3.22641 30.5091 3.0328 30.7027 2.79397 30.7027C2.55515 30.7027 2.36154 30.5091 2.36154 30.2703V23.3557Z" fill="white" stroke="white" stroke-width="0.5"/>
<path d="M28.7737 12.7529C28.7737 12.514 28.9673 12.3204 29.2061 12.3204C29.4449 12.3204 29.6385 12.514 29.6385 12.7529V19.6674C29.6385 19.9063 29.4449 20.0999 29.2061 20.0999C28.9673 20.0999 28.7737 19.9063 28.7737 19.6674V12.7529Z" fill="white" stroke="white" stroke-width="0.5"/>
<path d="M13.5754 12.7529C13.5754 12.514 13.769 12.3204 14.0078 12.3204C14.2467 12.3204 14.4403 12.514 14.4403 12.7529V19.6674C14.4403 19.9063 14.2467 20.0999 14.0078 20.0999C13.769 20.0999 13.5754 19.9063 13.5754 19.6674V12.7529Z" fill="white" stroke="white" stroke-width="0.5"/>
<path d="M7.96848 23.3557C7.96848 23.1169 8.16208 22.9232 8.4009 22.9232C8.63973 22.9232 8.83333 23.1169 8.83333 23.3557V30.2703C8.83333 30.5091 8.63973 30.7027 8.4009 30.7027C8.16208 30.7027 7.96848 30.5091 7.96848 30.2703V23.3557Z" fill="white" stroke="white" stroke-width="0.5"/>
<path d="M15.6299 31.1351C14.9099 31.1343 14.2197 30.848 13.7106 30.339C13.2015 29.83 12.9151 29.1398 12.9142 28.4199V25.2061C12.9142 24.8495 12.9844 24.4964 13.1209 24.167C13.2573 23.8376 13.4573 23.5382 13.7095 23.2861C13.9616 23.034 14.2609 22.834 14.5903 22.6975C14.9198 22.561 15.2729 22.4908 15.6294 22.4908C15.986 22.4908 16.3391 22.561 16.6685 22.6975C16.9979 22.834 17.2973 23.034 17.5494 23.2861C17.8015 23.5382 18.0015 23.8376 18.138 24.167C18.2744 24.4964 18.3447 24.8495 18.3447 25.2061V28.4199C18.3439 29.1397 18.0576 29.8298 17.5487 30.3388C17.0397 30.8478 16.3497 31.1342 15.6299 31.1351ZM15.6299 23.3557C15.1392 23.3563 14.6689 23.5514 14.3219 23.8982C13.975 24.2451 13.7797 24.7154 13.779 25.2061V28.4199C13.779 28.6629 13.8269 28.9035 13.9199 29.128C14.0129 29.3525 14.1492 29.5565 14.321 29.7283C14.4928 29.9001 14.6968 30.0364 14.9213 30.1294C15.1458 30.2224 15.3864 30.2703 15.6294 30.2703C15.8724 30.2703 16.113 30.2224 16.3375 30.1294C16.562 30.0364 16.766 29.9001 16.9378 29.7283C17.1097 29.5565 17.246 29.3525 17.3389 29.128C17.4319 28.9035 17.4798 28.6629 17.4798 28.4199V25.2061C17.4792 24.7156 17.2842 24.2453 16.9374 23.8984C16.5906 23.5516 16.1204 23.3564 15.6299 23.3557Z" fill="white" stroke="white" stroke-width="0.5"/>
<path d="M26.9233 31.1351C26.2033 31.1343 25.5131 30.848 25.004 30.339C24.4949 29.83 24.2085 29.1398 24.2076 28.4199V25.2061C24.2166 24.4918 24.5067 23.8099 25.0149 23.308C25.5232 22.8061 26.2087 22.5247 26.9231 22.5247C27.6374 22.5247 28.3229 22.8061 28.8312 23.308C29.3394 23.8099 29.6295 24.4918 29.6385 25.2061V28.4199C29.6377 29.1398 29.3514 29.83 28.8424 30.339C28.3333 30.848 27.6432 31.1343 26.9233 31.1351ZM26.9233 23.3557C26.4327 23.3563 25.9623 23.5514 25.6153 23.8983C25.2684 24.2451 25.0731 24.7155 25.0725 25.2061V28.4199C25.0799 28.9058 25.2781 29.3693 25.6244 29.7103C25.9706 30.0513 26.4371 30.2424 26.9231 30.2424C27.409 30.2424 27.8755 30.0513 28.2217 29.7103C28.568 29.3693 28.7662 28.9058 28.7737 28.4199V25.2061C28.7731 24.7155 28.5779 24.2452 28.2311 23.8983C27.8842 23.5514 27.4138 23.3563 26.9233 23.3557Z" fill="white" stroke="white" stroke-width="0.5"/>
<path d="M20.5436 23.3557C20.5436 23.1169 20.7372 22.9232 20.9761 22.9232C21.2149 22.9232 21.4085 23.1169 21.4085 23.3557V30.2703C21.4085 30.5091 21.2149 30.7027 20.9761 30.7027C20.7372 30.7027 20.5436 30.5091 20.5436 30.2703V23.3557Z" fill="white" stroke="white" stroke-width="0.5"/>
</svg>
